<?xml version="1.0" encoding="UTF-8" standalone="no"?>
<!DOCTYPE svg PUBLIC "-//W3C//DTD SVG 1.1//EN" "http://www.w3.org/Graphics/SVG/1.1/DTD/svg11.dtd">
<svg viewBox="0 0 273 273" version="1.1" xmlns="http://www.w3.org/2000/svg" xmlns:xlink="http://www.w3.org/1999/xlink" xml:space="preserve" style="fill-rule:evenodd;clip-rule:evenodd;stroke-linejoin:round;stroke-miterlimit:1.41421;">
	<g id="Seal">
		<title>Seal of Approval</title>

		<path fill="#C28900" d="M131.5 6.941c0.527-2.306 2.578-3.941 4.942-3.941c2.365 0 4.416 1.635 4.943 3.941l3.962 17.35c0.066 0.289 0.311 0.502 0.606 0.527c0.295 0.025 0.573-0.144 0.687-0.417l6.838-16.431c0.908-2.183 3.206-3.448 5.537-3.049c2.331 0.4 4.075 2.358 4.205 4.719l0.973 17.771c0.016 0.295 0.222 0.547 0.509 0.621c0.286 0.075 0.588-0.044 0.747-0.294l9.516-15.039c1.264-1.999 3.743-2.857 5.973-2.07c2.229 0.788 3.618 3.013 3.347 5.362l-2.044 17.68c-0.034 0.294 0.126 0.576 0.396 0.698c0.27 0.122 0.588 0.056 0.786-0.164l11.921-13.214c1.584-1.756 4.172-2.184 6.236-1.03c2.065 1.153 3.058 3.581 2.393 5.85l-5.002 17.08c-0.083 0.284 0.027 0.589 0.272 0.755c0.246 0.166 0.57 0.154 0.803-0.029l13.983-11.01c1.858-1.463 4.48-1.446 6.32 0.039c1.84 1.486 2.409 4.046 1.37 6.171l-7.817 15.988c-0.13 0.266-0.073 0.586 0.141 0.791c0.214 0.205 0.535 0.248 0.796 0.107l15.642-8.488c2.079-1.128 4.661-0.669 6.223 1.106c1.563 1.775 1.69 4.395 0.307 6.314l-10.406 14.437c-0.173 0.24-0.171 0.565 0.005 0.803c0.176 0.238 0.486 0.335 0.766 0.24l16.852-5.722c2.24-0.761 4.707 0.128 5.947 2.142c1.24 2.014 0.923 4.617-0.764 6.274l-12.697 12.471c-0.211 0.208-0.264 0.528-0.131 0.793c0.134 0.264 0.423 0.412 0.715 0.366l17.577-2.792c2.335-0.371 4.617 0.922 5.499 3.116c0.882 2.194 0.129 4.707-1.814 6.055l-14.621 10.146c-0.244 0.169-0.35 0.476-0.263 0.759c0.086 0.283 0.346 0.478 0.642 0.481l17.796 0.219c2.365 0.029 4.395 1.689 4.893 4.001c0.499 2.312-0.668 4.661-2.811 5.661l-16.125 7.529c-0.269 0.126-0.425 0.41-0.388 0.704c0.038 0.294 0.261 0.529 0.552 0.583l17.503 3.223c2.326 0.428 4.047 2.407 4.147 4.77c0.1 2.363-1.446 4.481-3.727 5.105l-17.167 4.696c-0.285 0.078-0.488 0.332-0.5 0.628c-0.013 0.295 0.167 0.566 0.445 0.668l16.706 6.134c2.22 0.815 3.582 3.057 3.281 5.403c-0.3 2.345-2.182 4.172-4.536 4.401l-17.713 1.727c-0.295 0.029-0.537 0.245-0.6 0.534c-0.062 0.29 0.07 0.587 0.327 0.734l15.429 8.87c2.05 1.178 3.013 3.618 2.321 5.879c-0.693 2.261-2.857 3.743-5.215 3.572l-17.75-1.292c-0.296-0.021-0.571 0.15-0.682 0.425c-0.11 0.275-0.03 0.59 0.198 0.779l13.708 11.349c1.822 1.508 2.359 4.076 1.294 6.187c-1.065 2.112-3.448 3.207-5.744 2.639l-17.276-4.273c-0.287-0.071-0.588 0.052-0.743 0.304c-0.156 0.253-0.13 0.576 0.063 0.801l11.593 13.503c1.541 1.794 1.636 4.415 0.23 6.317c-1.407 1.901-3.941 2.577-6.107 1.63l-16.306-7.131c-0.272-0.119-0.589-0.048-0.784 0.174c-0.196 0.222-0.226 0.546-0.073 0.8l9.144 15.268c1.215 2.028 0.866 4.628-0.841 6.264c-1.708 1.637-4.32 1.875-6.295 0.575l-14.866-9.784c-0.247-0.163-0.572-0.147-0.802 0.039c-0.231 0.186-0.314 0.5-0.207 0.776l6.432 16.594c0.855 2.205 0.072 4.708-1.888 6.032c-1.959 1.324-4.574 1.118-6.301-0.498l-12.999-12.155c-0.216-0.203-0.538-0.242-0.797-0.097c-0.259 0.144-0.394 0.439-0.335 0.729l3.535 17.443c0.47 2.317-0.725 4.652-2.88 5.626c-2.155 0.974-4.697 0.329-6.126-1.555l-10.758-14.178c-0.179-0.236-0.49-0.329-0.769-0.23c-0.279 0.098-0.463 0.366-0.454 0.662l0.537 17.789c0.071 2.364-1.501 4.463-3.79 5.059c-2.288 0.596-4.685-0.47-5.775-2.568l-8.207-15.792c-0.137-0.263-0.427-0.407-0.719-0.357c-0.292 0.05-0.518 0.283-0.559 0.576l-2.477 17.624c-0.33 2.342-2.234 4.145-4.591 4.345c-2.356 0.201-4.538-1.254-5.258-3.507l-5.42-16.951c-0.09-0.283-0.352-0.474-0.649-0.474c-0.296 0-0.558 0.191-0.648 0.474l-5.42 16.951c-0.72 2.253-2.902 3.708-5.258 3.507c-2.357-0.2-4.261-2.003-4.591-4.345l-2.477-17.624c-0.041-0.293-0.267-0.526-0.559-0.576c-0.292-0.05-0.583 0.094-0.719 0.357l-8.207 15.792c-1.09 2.098-3.487 3.164-5.775 2.568c-2.289-0.596-3.862-2.695-3.79-5.059l0.537-17.789c0.009-0.296-0.175-0.564-0.454-0.662c-0.279-0.099-0.59-0.006-0.769 0.23l-10.758 14.178c-1.429 1.884-3.971 2.529-6.126 1.555c-2.155-0.974-3.35-3.309-2.88-5.626l3.535-17.443c0.059-0.29-0.077-0.585-0.335-0.729c-0.259-0.145-0.581-0.106-0.797 0.097l-12.999 12.155c-1.727 1.616-4.342 1.822-6.301 0.498c-1.96-1.324-2.743-3.827-1.888-6.032l6.432-16.594c0.107-0.276 0.024-0.59-0.207-0.776c-0.23-0.186-0.555-0.202-0.802-0.039l-14.866 9.784c-1.976 1.3-4.588 1.062-6.295-0.575c-1.707-1.636-2.056-4.236-0.841-6.264l9.144-15.268c0.152-0.254 0.123-0.578-0.073-0.8c-0.195-0.222-0.512-0.293-0.784-0.174l-16.306 7.131c-2.166 0.947-4.7 0.271-6.107-1.63c-1.406-1.902-1.311-4.523 0.23-6.317l11.593-13.503c0.193-0.225 0.219-0.548 0.063-0.801c-0.155-0.252-0.456-0.375-0.743-0.304l-17.277 4.273c-2.295 0.568-4.679-0.527-5.743-2.639c-1.065-2.111-0.528-4.679 1.294-6.187l13.708-11.349c0.228-0.189 0.308-0.504 0.198-0.779c-0.111-0.275-0.386-0.446-0.682-0.425l-17.75 1.292c-2.358 0.171-4.522-1.311-5.215-3.572c-0.692-2.261 0.271-4.701 2.321-5.879l15.429-8.87c0.257-0.147 0.389-0.444 0.326-0.734c-0.062-0.289-0.304-0.505-0.599-0.534l-17.713-1.727c-2.354-0.229-4.236-2.056-4.537-4.401c-0.3-2.346 1.061-4.588 3.281-5.403l16.707-6.134c0.278-0.102 0.458-0.373 0.445-0.668c-0.012-0.296-0.215-0.55-0.5-0.628l-17.167-4.696c-2.281-0.624-3.827-2.742-3.727-5.105c0.1-2.363 1.821-4.342 4.147-4.77l17.503-3.223c0.291-0.054 0.514-0.289 0.552-0.583c0.037-0.294-0.119-0.578-0.388-0.704l-16.126-7.529c-2.142-1-3.309-3.349-2.811-5.661c0.499-2.312 2.529-3.972 4.894-4.001l17.795-0.219c0.297-0.003 0.556-0.198 0.643-0.481c0.087-0.283-0.019-0.59-0.263-0.759l-14.621-10.146c-1.943-1.348-2.696-3.861-1.814-6.055c0.882-2.194 3.164-3.487 5.499-3.116l17.577 2.792c0.292 0.046 0.581-0.102 0.715-0.366c0.133-0.265 0.08-0.585-0.131-0.793l-12.697-12.471c-1.687-1.657-2.004-4.26-0.764-6.274c1.24-2.014 3.707-2.903 5.947-2.142l16.851 5.722c0.281 0.095 0.591-0.002 0.767-0.24c0.176-0.238 0.178-0.563 0.005-0.803l-10.406-14.437c-1.383-1.919-1.256-4.539 0.307-6.314c1.562-1.775 4.144-2.234 6.223-1.106l15.642 8.488c0.26 0.141 0.582 0.098 0.796-0.107c0.214-0.205 0.271-0.525 0.141-0.791l-7.817-15.988c-1.039-2.125-0.47-4.685 1.37-6.171c1.84-1.485 4.462-1.502 6.32-0.039l13.983 11.01c0.233 0.183 0.557 0.195 0.803 0.029c0.245-0.166 0.355-0.471 0.272-0.755l-5.002-17.08c-0.665-2.269 0.328-4.697 2.393-5.85c2.064-1.154 4.652-0.726 6.236 1.03l11.921 13.214c0.198 0.22 0.516 0.286 0.786 0.164c0.27-0.122 0.43-0.404 0.396-0.698l-2.044-17.68c-0.271-2.349 1.118-4.574 3.347-5.362c2.23-0.787 4.708 0.071 5.973 2.07l9.516 15.039c0.159 0.25 0.461 0.369 0.747 0.294c0.287-0.074 0.492-0.326 0.509-0.621l0.973-17.771c0.13-2.361 1.874-4.319 4.205-4.719c2.331-0.399 4.629 0.866 5.537 3.049l6.838 16.431c0.114 0.273 0.391 0.442 0.687 0.417c0.295-0.025 0.54-0.238 0.606-0.527l3.962-17.35z"/>
		<circle fill="#DF9D00" fill-opacity="0.35" cx="136.5" cy="136.5" r="107"/>
	</g>
</svg>
