<?xml version="1.0" encoding="UTF-8" standalone="no"?>
<svg
   xmlns:dc="http://purl.org/dc/elements/1.1/"
   xmlns:cc="http://creativecommons.org/ns#"
   xmlns:rdf="http://www.w3.org/1999/02/22-rdf-syntax-ns#"
   xmlns:svg="http://www.w3.org/2000/svg"
   xmlns="http://www.w3.org/2000/svg"
   xmlns:sodipodi="http://sodipodi.sourceforge.net/DTD/sodipodi-0.dtd"
   xmlns:inkscape="http://www.inkscape.org/namespaces/inkscape"
   viewBox="0 0 512 512"
   style="height: 512px; width: 512px;"
   version="1.1"
   id="svg6"
   sodipodi:docname="sprint.svg"
   inkscape:version="0.92.2 (unknown)">
  <metadata
     id="metadata12">
    <rdf:RDF>
      <cc:Work
         rdf:about="">
        <dc:format>image/svg+xml</dc:format>
        <dc:type
           rdf:resource="http://purl.org/dc/dcmitype/StillImage" />
      </cc:Work>
    </rdf:RDF>
  </metadata>
  <defs
     id="defs10" />
  <sodipodi:namedview
     pagecolor="#ffffff"
     bordercolor="#666666"
     borderopacity="1"
     objecttolerance="10"
     gridtolerance="10"
     guidetolerance="10"
     inkscape:pageopacity="0"
     inkscape:pageshadow="2"
     inkscape:window-width="1366"
     inkscape:window-height="715"
     id="namedview8"
     showgrid="false"
     inkscape:zoom="0.921875"
     inkscape:cx="290.65254"
     inkscape:cy="284.36211"
     inkscape:window-x="0"
     inkscape:window-y="0"
     inkscape:window-maximized="1"
     inkscape:current-layer="svg6" />
  <path
     fill="#ffffff"
     d="M169.53 16.344L259.345 88 337 92.28l-1.03 18.657-161.376-8.906-118.78-4.905 227.28 68.03-197.72 246.75-14.53-17.655-49.22 96.625 248.69-202.78 51.81 11.592-38.78 40.594L270.5 329.5l-57.28 84.125L444.843 273.47 328 241.06l100.22-81.718c1.132.46 2.3.898 3.5 1.22 23.324 6.248 49.764-16.835 59.06-51.533 9.298-34.695-2.08-67.874-25.405-74.124-23.325-6.25-49.765 16.802-59.063 51.5-1.467 5.476-2.403 10.918-2.875 16.22L169.53 16.343z"
     id="path4"
     style="fill:#0000cc" />
  <path
     style="opacity:0.97000002;fill:#000000;fill-opacity:0;stroke:none;stroke-width:2.16949153"
     d="m 27.769492,482.49546 c 0,-1.82481 14.495359,-30.76647 30.840007,-61.57566 l 12.985246,-24.47681 5.748392,7.58417 c 3.161613,4.17133 6.72466,7.58316 7.91788,7.5819 3.331224,-0.004 198.951463,-245.44878 196.983123,-247.15527 -0.95088,-0.8244 -49.01965,-15.56096 -106.81948,-32.7479 C 117.62483,114.51895 72.22817,100.09214 74.543189,99.646303 c 5.139202,-0.989719 96.991201,3.029977 190.785621,8.349317 38.18305,2.16546 70.15594,3.49199 71.05085,2.94784 0.89492,-0.54415 1.62712,-5.22348 1.62712,-10.3985 v -9.409136 l -32,-1.407941 c -48.63215,-2.139728 -42.47177,0.355113 -87.00124,-35.233927 -21.75217,-17.384867 -39.2446,-31.913653 -38.87206,-32.286192 0.37254,-0.372539 49.11867,17.223173 108.32474,39.101583 59.20605,21.878411 109.57156,40.389633 111.92331,41.136053 3.72133,1.1811 4.45396,0.0579 5.64885,-8.65977 2.13225,-15.556375 13.10289,-36.287186 24.52235,-46.339007 22.20026,-19.541446 44.85838,-15.475334 56.59271,10.155842 4.79796,10.480102 5.29623,13.985188 4.49989,31.654018 -1.08487,24.071287 -7.20709,39.215427 -22.43436,55.494617 -11.19655,11.97003 -21.27291,16.41506 -33.49487,14.77575 -7.79045,-1.04492 -9.80855,0.31525 -54.52672,36.74987 -25.54025,20.80922 -48.19395,39.56507 -50.34153,41.67966 -3.74352,3.68603 -1.52787,4.50272 53.67669,19.78498 31.66978,8.76714 57.34554,16.14393 57.05726,16.39288 -1.96016,1.69255 -218.05005,131.90053 -220.38729,132.79739 -2.50774,0.96233 28.21811,-46.13779 44.71375,-68.54237 l 5.30899,-7.21072 4.78882,4.49886 c 2.63388,2.47439 5.86492,4.49887 7.18015,4.49887 1.31521,0 10.77799,-8.98775 21.02839,-19.97277 12.64217,-13.54822 17.75974,-20.4575 15.90955,-21.47966 -1.50016,-0.82879 -13.50062,-3.74042 -26.66769,-6.47029 L 269.51632,287.29012 151.35478,383.5259 C 17.033562,492.92279 27.769492,484.32525 27.769492,482.49546 Z"
     id="path822"
     inkscape:connector-curvature="0" />
  <path
     style="opacity:0.97000002;fill:#000080;fill-opacity:0;stroke:none;stroke-width:2.16949153"
     d="m 27.769492,482.49546 c 0,-1.82481 14.495359,-30.76647 30.840007,-61.57566 l 12.985246,-24.47681 5.748392,7.58417 c 3.161613,4.17133 6.72466,7.58316 7.91788,7.5819 3.331224,-0.004 198.951463,-245.44878 196.983123,-247.15527 -0.95088,-0.8244 -49.01965,-15.56096 -106.81948,-32.7479 C 117.62483,114.51895 72.22817,100.09214 74.543189,99.646303 c 5.139202,-0.989719 96.991201,3.029977 190.785621,8.349317 38.18305,2.16546 70.15594,3.49199 71.05085,2.94784 0.89492,-0.54415 1.62712,-5.22348 1.62712,-10.3985 v -9.409136 l -32,-1.407941 c -48.63215,-2.139728 -42.47177,0.355113 -87.00124,-35.233927 -21.75217,-17.384867 -39.2446,-31.913653 -38.87206,-32.286192 0.37254,-0.372539 49.11867,17.223173 108.32474,39.101583 59.20605,21.878411 109.57156,40.389633 111.92331,41.136053 3.72133,1.1811 4.45396,0.0579 5.64885,-8.65977 2.13225,-15.556375 13.10289,-36.287186 24.52235,-46.339007 22.20026,-19.541446 44.85838,-15.475334 56.59271,10.155842 4.79796,10.480102 5.29623,13.985188 4.49989,31.654018 -1.08487,24.071287 -7.20709,39.215427 -22.43436,55.494617 -11.19655,11.97003 -21.27291,16.41506 -33.49487,14.77575 -7.79045,-1.04492 -9.80855,0.31525 -54.52672,36.74987 -25.54025,20.80922 -48.19395,39.56507 -50.34153,41.67966 -3.74352,3.68603 -1.52787,4.50272 53.67669,19.78498 31.66978,8.76714 57.34554,16.14393 57.05726,16.39288 -1.96016,1.69255 -218.05005,131.90053 -220.38729,132.79739 -2.50774,0.96233 28.21811,-46.13779 44.71375,-68.54237 l 5.30899,-7.21072 4.78882,4.49886 c 2.63388,2.47439 5.86492,4.49887 7.18015,4.49887 1.31521,0 10.77799,-8.98775 21.02839,-19.97277 12.64217,-13.54822 17.75974,-20.4575 15.90955,-21.47966 -1.50016,-0.82879 -13.50062,-3.74042 -26.66769,-6.47029 L 269.51632,287.29012 151.35478,383.5259 C 17.033562,492.92279 27.769492,484.32525 27.769492,482.49546 Z"
     id="path844"
     inkscape:connector-curvature="0" />
  <path
     style="opacity:0.97000002;fill:#000080;fill-opacity:0;stroke:none;stroke-width:2.16949153"
     d="m 27.769492,482.49546 c 0,-1.82481 14.495359,-30.76647 30.840007,-61.57566 l 12.985246,-24.47681 5.748392,7.58417 c 3.161613,4.17133 6.72466,7.58316 7.91788,7.5819 3.331224,-0.004 198.951463,-245.44878 196.983123,-247.15527 -0.95088,-0.8244 -49.01965,-15.56096 -106.81948,-32.7479 C 117.62483,114.51895 72.22817,100.09214 74.543189,99.646303 c 5.139202,-0.989719 96.991201,3.029977 190.785621,8.349317 38.18305,2.16546 70.15594,3.49199 71.05085,2.94784 0.89492,-0.54415 1.62712,-5.22348 1.62712,-10.3985 v -9.409136 l -32,-1.407941 c -48.63215,-2.139728 -42.47177,0.355113 -87.00124,-35.233927 -21.75217,-17.384867 -39.2446,-31.913653 -38.87206,-32.286192 0.37254,-0.372539 49.11867,17.223173 108.32474,39.101583 59.20605,21.878411 109.57156,40.389633 111.92331,41.136053 3.72133,1.1811 4.45396,0.0579 5.64885,-8.65977 2.13225,-15.556375 13.10289,-36.287186 24.52235,-46.339007 22.20026,-19.541446 44.85838,-15.475334 56.59271,10.155842 4.79796,10.480102 5.29623,13.985188 4.49989,31.654018 -1.08487,24.071287 -7.20709,39.215427 -22.43436,55.494617 -11.19655,11.97003 -21.27291,16.41506 -33.49487,14.77575 -7.79045,-1.04492 -9.80855,0.31525 -54.52672,36.74987 -25.54025,20.80922 -48.19395,39.56507 -50.34153,41.67966 -3.74352,3.68603 -1.52787,4.50272 53.67669,19.78498 31.66978,8.76714 57.34554,16.14393 57.05726,16.39288 -1.96016,1.69255 -218.05005,131.90053 -220.38729,132.79739 -2.50774,0.96233 28.21811,-46.13779 44.71375,-68.54237 l 5.30899,-7.21072 4.78882,4.49886 c 2.63388,2.47439 5.86492,4.49887 7.18015,4.49887 1.31521,0 10.77799,-8.98775 21.02839,-19.97277 12.64217,-13.54822 17.75974,-20.4575 15.90955,-21.47966 -1.50016,-0.82879 -13.50062,-3.74042 -26.66769,-6.47029 L 269.51632,287.29012 151.35478,383.5259 C 17.033562,492.92279 27.769492,484.32525 27.769492,482.49546 Z"
     id="path846"
     inkscape:connector-curvature="0" />
  <path
     style="opacity:0.97000002;fill:#000080;fill-opacity:0;stroke:none;stroke-width:2.16949153"
     d="m 27.769492,482.49546 c 0,-1.82481 14.495359,-30.76647 30.840007,-61.57566 l 12.985246,-24.47681 5.748392,7.58417 c 3.161613,4.17133 6.72466,7.58316 7.91788,7.5819 3.331224,-0.004 198.951463,-245.44878 196.983123,-247.15527 -0.95088,-0.8244 -49.01965,-15.56096 -106.81948,-32.7479 C 117.62483,114.51895 72.22817,100.09214 74.543189,99.646303 c 5.139202,-0.989719 96.991201,3.029977 190.785621,8.349317 38.18305,2.16546 70.15594,3.49199 71.05085,2.94784 0.89492,-0.54415 1.62712,-5.22348 1.62712,-10.3985 v -9.409136 l -32,-1.407941 c -48.63215,-2.139728 -42.47177,0.355113 -87.00124,-35.233927 -21.75217,-17.384867 -39.2446,-31.913653 -38.87206,-32.286192 0.37254,-0.372539 49.11867,17.223173 108.32474,39.101583 59.20605,21.878411 109.57156,40.389633 111.92331,41.136053 3.72133,1.1811 4.45396,0.0579 5.64885,-8.65977 2.13225,-15.556375 13.10289,-36.287186 24.52235,-46.339007 22.20026,-19.541446 44.85838,-15.475334 56.59271,10.155842 4.79796,10.480102 5.29623,13.985188 4.49989,31.654018 -1.08487,24.071287 -7.20709,39.215427 -22.43436,55.494617 -11.19655,11.97003 -21.27291,16.41506 -33.49487,14.77575 -7.79045,-1.04492 -9.80855,0.31525 -54.52672,36.74987 -25.54025,20.80922 -48.19395,39.56507 -50.34153,41.67966 -3.74352,3.68603 -1.52787,4.50272 53.67669,19.78498 31.66978,8.76714 57.34554,16.14393 57.05726,16.39288 -1.96016,1.69255 -218.05005,131.90053 -220.38729,132.79739 -2.50774,0.96233 28.21811,-46.13779 44.71375,-68.54237 l 5.30899,-7.21072 4.78882,4.49886 c 2.63388,2.47439 5.86492,4.49887 7.18015,4.49887 1.31521,0 10.77799,-8.98775 21.02839,-19.97277 12.64217,-13.54822 17.75974,-20.4575 15.90955,-21.47966 -1.50016,-0.82879 -13.50062,-3.74042 -26.66769,-6.47029 L 269.51632,287.29012 151.35478,383.5259 C 17.033562,492.92279 27.769492,484.32525 27.769492,482.49546 Z"
     id="path848"
     inkscape:connector-curvature="0" />
  <path
     style="opacity:0.97000002;fill:#000080;fill-opacity:0;stroke:none;stroke-width:2.16949153"
     d="m 27.769492,482.49546 c 0,-1.82481 14.495359,-30.76647 30.840007,-61.57566 l 12.985246,-24.47681 5.748392,7.58417 c 3.161613,4.17133 6.72466,7.58316 7.91788,7.5819 3.331224,-0.004 198.951463,-245.44878 196.983123,-247.15527 -0.95088,-0.8244 -49.01965,-15.56096 -106.81948,-32.7479 C 117.62483,114.51895 72.22817,100.09214 74.543189,99.646303 c 5.139202,-0.989719 96.991201,3.029977 190.785621,8.349317 38.18305,2.16546 70.15594,3.49199 71.05085,2.94784 0.89492,-0.54415 1.62712,-5.22348 1.62712,-10.3985 v -9.409136 l -32,-1.407941 c -48.63215,-2.139728 -42.47177,0.355113 -87.00124,-35.233927 -21.75217,-17.384867 -39.2446,-31.913653 -38.87206,-32.286192 0.37254,-0.372539 49.11867,17.223173 108.32474,39.101583 59.20605,21.878411 109.57156,40.389633 111.92331,41.136053 3.72133,1.1811 4.45396,0.0579 5.64885,-8.65977 2.13225,-15.556375 13.10289,-36.287186 24.52235,-46.339007 22.20026,-19.541446 44.85838,-15.475334 56.59271,10.155842 4.79796,10.480102 5.29623,13.985188 4.49989,31.654018 -1.08487,24.071287 -7.20709,39.215427 -22.43436,55.494617 -11.19655,11.97003 -21.27291,16.41506 -33.49487,14.77575 -7.79045,-1.04492 -9.80855,0.31525 -54.52672,36.74987 -25.54025,20.80922 -48.19395,39.56507 -50.34153,41.67966 -3.74352,3.68603 -1.52787,4.50272 53.67669,19.78498 31.66978,8.76714 57.34554,16.14393 57.05726,16.39288 -1.96016,1.69255 -218.05005,131.90053 -220.38729,132.79739 -2.50774,0.96233 28.21811,-46.13779 44.71375,-68.54237 l 5.30899,-7.21072 4.78882,4.49886 c 2.63388,2.47439 5.86492,4.49887 7.18015,4.49887 1.31521,0 10.77799,-8.98775 21.02839,-19.97277 12.64217,-13.54822 17.75974,-20.4575 15.90955,-21.47966 -1.50016,-0.82879 -13.50062,-3.74042 -26.66769,-6.47029 L 269.51632,287.29012 151.35478,383.5259 C 17.033562,492.92279 27.769492,484.32525 27.769492,482.49546 Z"
     id="path850"
     inkscape:connector-curvature="0" />
  <path
     style="opacity:0.97000002;fill:#000080;fill-opacity:0;stroke:none;stroke-width:1.08474576"
     d="m 36.415061,463.08196 c 6.856624,-13.57288 17.451156,-34.35439 23.543404,-46.18112 l 11.076814,-21.50316 6.795229,8.21502 c 3.737376,4.51826 7.14579,8.21502 7.574252,8.21502 0.617082,0 192.1405,-238.22196 197.11975,-245.18282 1.19007,-1.66369 -8.72202,-4.83135 -108.88939,-34.79832 C 86.742044,105.85087 64.384407,98.80803 67.918684,98.545031 c 7.490853,-0.557422 106.714126,3.917309 189.339146,8.538729 63.25969,3.53828 78.17694,4.09799 78.89864,2.96037 0.48948,-0.77157 0.89745,-5.14208 0.90658,-9.71225 l 0.0166,-8.309406 -8.94915,-0.669345 c -4.92204,-0.368138 -22.33459,-1.39796 -38.69458,-2.288492 -16.35997,-0.890532 -30.27184,-2.025265 -30.91525,-2.521629 -12.99259,-10.023257 -84.19161,-67.393253 -83.63838,-67.393253 0.42479,0 21.83873,7.768456 47.58654,17.263236 25.74782,9.494781 76.70854,28.288001 113.24606,41.762712 36.53752,13.474712 66.81391,24.499477 67.28087,24.499477 0.46698,0 1.42477,-3.618572 2.12846,-8.041271 3.78817,-23.808989 19.37293,-47.542368 36.8781,-56.160137 6.33184,-3.117153 8.38771,-3.59186 15.4613,-3.570061 13.42107,0.04136 22.17971,6.055046 29.17527,20.031745 5.34693,10.682842 7.1385,20.682088 6.317,35.256923 -1.26318,22.410921 -9.18126,41.180641 -23.65051,56.063251 -9.84147,10.12264 -19.02627,14.52813 -29.71726,14.25388 -4.17627,-0.10718 -8.69149,-0.35013 -10.03382,-0.53998 -1.84965,-0.26162 -14.52175,9.49413 -52.33593,40.29135 -30.3653,24.7306 -49.36579,40.90878 -48.54245,41.33203 0.74409,0.38251 26.82272,7.71775 57.95252,16.30054 31.1298,8.58278 56.4192,15.7855 56.19866,16.00604 -1.27848,1.27847 -225.66747,136.60709 -225.984,136.29056 -0.28644,-0.28644 51.63169,-77.35459 53.60779,-79.5763 0.19587,-0.22023 2.94205,1.86481 6.10261,4.6334 3.16057,2.7686 6.30434,4.90133 6.98617,4.7394 1.38586,-0.32914 38.34134,-38.93524 38.3488,-40.06165 0.002,-0.39401 -4.26645,-1.69427 -9.48679,-2.88947 -30.98846,-7.09481 -41.28654,-9.17632 -42.66097,-8.62288 -0.84833,0.34159 -56.35436,45.3345 -123.34673,99.98423 -66.992374,54.64973 -121.948585,99.36314 -122.124916,99.36314 -0.17633,0 5.289364,-11.10508 12.145987,-24.67796 z"
     id="path852"
     inkscape:connector-curvature="0" />
  <path
     style="opacity:0.97000002;fill:#000080;fill-opacity:0;stroke:none;stroke-width:1.08474576"
     d="m 36.415061,463.08196 c 6.856624,-13.57288 17.451156,-34.35439 23.543404,-46.18112 l 11.076814,-21.50316 6.795229,8.21502 c 3.737376,4.51826 7.14579,8.21502 7.574252,8.21502 0.617082,0 192.1405,-238.22196 197.11975,-245.18282 1.19007,-1.66369 -8.72202,-4.83135 -108.88939,-34.79832 C 86.742044,105.85087 64.384407,98.80803 67.918684,98.545031 c 7.490853,-0.557422 106.714126,3.917309 189.339146,8.538729 63.25969,3.53828 78.17694,4.09799 78.89864,2.96037 0.48948,-0.77157 0.89745,-5.14208 0.90658,-9.71225 l 0.0166,-8.309406 -8.94915,-0.669345 c -4.92204,-0.368138 -22.33459,-1.39796 -38.69458,-2.288492 -16.35997,-0.890532 -30.27184,-2.025265 -30.91525,-2.521629 -12.99259,-10.023257 -84.19161,-67.393253 -83.63838,-67.393253 0.42479,0 21.83873,7.768456 47.58654,17.263236 25.74782,9.494781 76.70854,28.288001 113.24606,41.762712 36.53752,13.474712 66.81391,24.499477 67.28087,24.499477 0.46698,0 1.42477,-3.618572 2.12846,-8.041271 3.78817,-23.808989 19.37293,-47.542368 36.8781,-56.160137 6.33184,-3.117153 8.38771,-3.59186 15.4613,-3.570061 13.42107,0.04136 22.17971,6.055046 29.17527,20.031745 5.34693,10.682842 7.1385,20.682088 6.317,35.256923 -1.26318,22.410921 -9.18126,41.180641 -23.65051,56.063251 -9.84147,10.12264 -19.02627,14.52813 -29.71726,14.25388 -4.17627,-0.10718 -8.69149,-0.35013 -10.03382,-0.53998 -1.84965,-0.26162 -14.52175,9.49413 -52.33593,40.29135 -30.3653,24.7306 -49.36579,40.90878 -48.54245,41.33203 0.74409,0.38251 26.82272,7.71775 57.95252,16.30054 31.1298,8.58278 56.4192,15.7855 56.19866,16.00604 -1.27848,1.27847 -225.66747,136.60709 -225.984,136.29056 -0.28644,-0.28644 51.63169,-77.35459 53.60779,-79.5763 0.19587,-0.22023 2.94205,1.86481 6.10261,4.6334 3.16057,2.7686 6.30434,4.90133 6.98617,4.7394 1.38586,-0.32914 38.34134,-38.93524 38.3488,-40.06165 0.002,-0.39401 -4.26645,-1.69427 -9.48679,-2.88947 -30.98846,-7.09481 -41.28654,-9.17632 -42.66097,-8.62288 -0.84833,0.34159 -56.35436,45.3345 -123.34673,99.98423 -66.992374,54.64973 -121.948585,99.36314 -122.124916,99.36314 -0.17633,0 5.289364,-11.10508 12.145987,-24.67796 z"
     id="path854"
     inkscape:connector-curvature="0" />
  <path
     style="opacity:0.97000002;fill:#000080;fill-opacity:0;stroke:none;stroke-width:1.08474576"
     d="m 36.415061,463.08196 c 6.856624,-13.57288 17.451156,-34.35439 23.543404,-46.18112 l 11.076814,-21.50316 6.795229,8.21502 c 3.737376,4.51826 7.14579,8.21502 7.574252,8.21502 0.617082,0 192.1405,-238.22196 197.11975,-245.18282 1.19007,-1.66369 -8.72202,-4.83135 -108.88939,-34.79832 C 86.742044,105.85087 64.384407,98.80803 67.918684,98.545031 c 7.490853,-0.557422 106.714126,3.917309 189.339146,8.538729 63.25969,3.53828 78.17694,4.09799 78.89864,2.96037 0.48948,-0.77157 0.89745,-5.14208 0.90658,-9.71225 l 0.0166,-8.309406 -8.94915,-0.669345 c -4.92204,-0.368138 -22.33459,-1.39796 -38.69458,-2.288492 -16.35997,-0.890532 -30.27184,-2.025265 -30.91525,-2.521629 -12.99259,-10.023257 -84.19161,-67.393253 -83.63838,-67.393253 0.42479,0 21.83873,7.768456 47.58654,17.263236 25.74782,9.494781 76.70854,28.288001 113.24606,41.762712 36.53752,13.474712 66.81391,24.499477 67.28087,24.499477 0.46698,0 1.42477,-3.618572 2.12846,-8.041271 3.78817,-23.808989 19.37293,-47.542368 36.8781,-56.160137 6.33184,-3.117153 8.38771,-3.59186 15.4613,-3.570061 13.42107,0.04136 22.17971,6.055046 29.17527,20.031745 5.34693,10.682842 7.1385,20.682088 6.317,35.256923 -1.26318,22.410921 -9.18126,41.180641 -23.65051,56.063251 -9.84147,10.12264 -19.02627,14.52813 -29.71726,14.25388 -4.17627,-0.10718 -8.69149,-0.35013 -10.03382,-0.53998 -1.84965,-0.26162 -14.52175,9.49413 -52.33593,40.29135 -30.3653,24.7306 -49.36579,40.90878 -48.54245,41.33203 0.74409,0.38251 26.82272,7.71775 57.95252,16.30054 31.1298,8.58278 56.4192,15.7855 56.19866,16.00604 -1.27848,1.27847 -225.66747,136.60709 -225.984,136.29056 -0.28644,-0.28644 51.63169,-77.35459 53.60779,-79.5763 0.19587,-0.22023 2.94205,1.86481 6.10261,4.6334 3.16057,2.7686 6.30434,4.90133 6.98617,4.7394 1.38586,-0.32914 38.34134,-38.93524 38.3488,-40.06165 0.002,-0.39401 -4.26645,-1.69427 -9.48679,-2.88947 -30.98846,-7.09481 -41.28654,-9.17632 -42.66097,-8.62288 -0.84833,0.34159 -56.35436,45.3345 -123.34673,99.98423 -66.992374,54.64973 -121.948585,99.36314 -122.124916,99.36314 -0.17633,0 5.289364,-11.10508 12.145987,-24.67796 z"
     id="path856"
     inkscape:connector-curvature="0" />
  <path
     style="opacity:0.97000002;fill:#000080;fill-opacity:0;stroke:none;stroke-width:1.08474576"
     d="m 36.415061,463.08196 c 6.856624,-13.57288 17.451156,-34.35439 23.543404,-46.18112 l 11.076814,-21.50316 6.795229,8.21502 c 3.737376,4.51826 7.14579,8.21502 7.574252,8.21502 0.617082,0 192.1405,-238.22196 197.11975,-245.18282 1.19007,-1.66369 -8.72202,-4.83135 -108.88939,-34.79832 C 86.742044,105.85087 64.384407,98.80803 67.918684,98.545031 c 7.490853,-0.557422 106.714126,3.917309 189.339146,8.538729 63.25969,3.53828 78.17694,4.09799 78.89864,2.96037 0.48948,-0.77157 0.89745,-5.14208 0.90658,-9.71225 l 0.0166,-8.309406 -8.94915,-0.669345 c -4.92204,-0.368138 -22.33459,-1.39796 -38.69458,-2.288492 -16.35997,-0.890532 -30.27184,-2.025265 -30.91525,-2.521629 -12.99259,-10.023257 -84.19161,-67.393253 -83.63838,-67.393253 0.42479,0 21.83873,7.768456 47.58654,17.263236 25.74782,9.494781 76.70854,28.288001 113.24606,41.762712 36.53752,13.474712 66.81391,24.499477 67.28087,24.499477 0.46698,0 1.42477,-3.618572 2.12846,-8.041271 3.78817,-23.808989 19.37293,-47.542368 36.8781,-56.160137 6.33184,-3.117153 8.38771,-3.59186 15.4613,-3.570061 13.42107,0.04136 22.17971,6.055046 29.17527,20.031745 5.34693,10.682842 7.1385,20.682088 6.317,35.256923 -1.26318,22.410921 -9.18126,41.180641 -23.65051,56.063251 -9.84147,10.12264 -19.02627,14.52813 -29.71726,14.25388 -4.17627,-0.10718 -8.69149,-0.35013 -10.03382,-0.53998 -1.84965,-0.26162 -14.52175,9.49413 -52.33593,40.29135 -30.3653,24.7306 -49.36579,40.90878 -48.54245,41.33203 0.74409,0.38251 26.82272,7.71775 57.95252,16.30054 31.1298,8.58278 56.4192,15.7855 56.19866,16.00604 -1.27848,1.27847 -225.66747,136.60709 -225.984,136.29056 -0.28644,-0.28644 51.63169,-77.35459 53.60779,-79.5763 0.19587,-0.22023 2.94205,1.86481 6.10261,4.6334 3.16057,2.7686 6.30434,4.90133 6.98617,4.7394 1.38586,-0.32914 38.34134,-38.93524 38.3488,-40.06165 0.002,-0.39401 -4.26645,-1.69427 -9.48679,-2.88947 -30.98846,-7.09481 -41.28654,-9.17632 -42.66097,-8.62288 -0.84833,0.34159 -56.35436,45.3345 -123.34673,99.98423 -66.992374,54.64973 -121.948585,99.36314 -122.124916,99.36314 -0.17633,0 5.289364,-11.10508 12.145987,-24.67796 z"
     id="path858"
     inkscape:connector-curvature="0" />
  <path
     style="opacity:0.97000002;fill:#000080;fill-opacity:0;stroke:none;stroke-width:1.08474576"
     d="m 36.415061,463.08196 c 6.856624,-13.57288 17.451156,-34.35439 23.543404,-46.18112 l 11.076814,-21.50316 6.795229,8.21502 c 3.737376,4.51826 7.14579,8.21502 7.574252,8.21502 0.617082,0 192.1405,-238.22196 197.11975,-245.18282 1.19007,-1.66369 -8.72202,-4.83135 -108.88939,-34.79832 C 86.742044,105.85087 64.384407,98.80803 67.918684,98.545031 c 7.490853,-0.557422 106.714126,3.917309 189.339146,8.538729 63.25969,3.53828 78.17694,4.09799 78.89864,2.96037 0.48948,-0.77157 0.89745,-5.14208 0.90658,-9.71225 l 0.0166,-8.309406 -8.94915,-0.669345 c -4.92204,-0.368138 -22.33459,-1.39796 -38.69458,-2.288492 -16.35997,-0.890532 -30.27184,-2.025265 -30.91525,-2.521629 -12.99259,-10.023257 -84.19161,-67.393253 -83.63838,-67.393253 0.42479,0 21.83873,7.768456 47.58654,17.263236 25.74782,9.494781 76.70854,28.288001 113.24606,41.762712 36.53752,13.474712 66.81391,24.499477 67.28087,24.499477 0.46698,0 1.42477,-3.618572 2.12846,-8.041271 3.78817,-23.808989 19.37293,-47.542368 36.8781,-56.160137 6.33184,-3.117153 8.38771,-3.59186 15.4613,-3.570061 13.42107,0.04136 22.17971,6.055046 29.17527,20.031745 5.34693,10.682842 7.1385,20.682088 6.317,35.256923 -1.26318,22.410921 -9.18126,41.180641 -23.65051,56.063251 -9.84147,10.12264 -19.02627,14.52813 -29.71726,14.25388 -4.17627,-0.10718 -8.69149,-0.35013 -10.03382,-0.53998 -1.84965,-0.26162 -14.52175,9.49413 -52.33593,40.29135 -30.3653,24.7306 -49.36579,40.90878 -48.54245,41.33203 0.74409,0.38251 26.82272,7.71775 57.95252,16.30054 31.1298,8.58278 56.4192,15.7855 56.19866,16.00604 -1.27848,1.27847 -225.66747,136.60709 -225.984,136.29056 -0.28644,-0.28644 51.63169,-77.35459 53.60779,-79.5763 0.19587,-0.22023 2.94205,1.86481 6.10261,4.6334 3.16057,2.7686 6.30434,4.90133 6.98617,4.7394 1.38586,-0.32914 38.34134,-38.93524 38.3488,-40.06165 0.002,-0.39401 -4.26645,-1.69427 -9.48679,-2.88947 -30.98846,-7.09481 -41.28654,-9.17632 -42.66097,-8.62288 -0.84833,0.34159 -56.35436,45.3345 -123.34673,99.98423 -66.992374,54.64973 -121.948585,99.36314 -122.124916,99.36314 -0.17633,0 5.289364,-11.10508 12.145987,-24.67796 z"
     id="path860"
     inkscape:connector-curvature="0" />
  <path
     style="opacity:0.97000002;fill:#000080;fill-opacity:0;stroke:none;stroke-width:1.08474576"
     d="m 36.415061,463.08196 c 6.856624,-13.57288 17.451156,-34.35439 23.543404,-46.18112 l 11.076814,-21.50316 6.795229,8.21502 c 3.737376,4.51826 7.14579,8.21502 7.574252,8.21502 0.617082,0 192.1405,-238.22196 197.11975,-245.18282 1.19007,-1.66369 -8.72202,-4.83135 -108.88939,-34.79832 C 86.742044,105.85087 64.384407,98.80803 67.918684,98.545031 c 7.490853,-0.557422 106.714126,3.917309 189.339146,8.538729 63.25969,3.53828 78.17694,4.09799 78.89864,2.96037 0.48948,-0.77157 0.89745,-5.14208 0.90658,-9.71225 l 0.0166,-8.309406 -8.94915,-0.669345 c -4.92204,-0.368138 -22.33459,-1.39796 -38.69458,-2.288492 -16.35997,-0.890532 -30.27184,-2.025265 -30.91525,-2.521629 -12.99259,-10.023257 -84.19161,-67.393253 -83.63838,-67.393253 0.42479,0 21.83873,7.768456 47.58654,17.263236 25.74782,9.494781 76.70854,28.288001 113.24606,41.762712 36.53752,13.474712 66.81391,24.499477 67.28087,24.499477 0.46698,0 1.42477,-3.618572 2.12846,-8.041271 3.78817,-23.808989 19.37293,-47.542368 36.8781,-56.160137 6.33184,-3.117153 8.38771,-3.59186 15.4613,-3.570061 13.42107,0.04136 22.17971,6.055046 29.17527,20.031745 5.34693,10.682842 7.1385,20.682088 6.317,35.256923 -1.26318,22.410921 -9.18126,41.180641 -23.65051,56.063251 -9.84147,10.12264 -19.02627,14.52813 -29.71726,14.25388 -4.17627,-0.10718 -8.69149,-0.35013 -10.03382,-0.53998 -1.84965,-0.26162 -14.52175,9.49413 -52.33593,40.29135 -30.3653,24.7306 -49.36579,40.90878 -48.54245,41.33203 0.74409,0.38251 26.82272,7.71775 57.95252,16.30054 31.1298,8.58278 56.4192,15.7855 56.19866,16.00604 -1.27848,1.27847 -225.66747,136.60709 -225.984,136.29056 -0.28644,-0.28644 51.63169,-77.35459 53.60779,-79.5763 0.19587,-0.22023 2.94205,1.86481 6.10261,4.6334 3.16057,2.7686 6.30434,4.90133 6.98617,4.7394 1.38586,-0.32914 38.34134,-38.93524 38.3488,-40.06165 0.002,-0.39401 -4.26645,-1.69427 -9.48679,-2.88947 -30.98846,-7.09481 -41.28654,-9.17632 -42.66097,-8.62288 -0.84833,0.34159 -56.35436,45.3345 -123.34673,99.98423 -66.992374,54.64973 -121.948585,99.36314 -122.124916,99.36314 -0.17633,0 5.289364,-11.10508 12.145987,-24.67796 z"
     id="path862"
     inkscape:connector-curvature="0" />
</svg>
