<?xml version="1.0" encoding="UTF-8" standalone="no"?>
<svg
   xmlns:dc="http://purl.org/dc/elements/1.1/"
   xmlns:cc="http://creativecommons.org/ns#"
   xmlns:rdf="http://www.w3.org/1999/02/22-rdf-syntax-ns#"
   xmlns:svg="http://www.w3.org/2000/svg"
   xmlns="http://www.w3.org/2000/svg"
   xmlns:sodipodi="http://sodipodi.sourceforge.net/DTD/sodipodi-0.dtd"
   xmlns:inkscape="http://www.inkscape.org/namespaces/inkscape"
   id="svg2"
   height="215.16388"
   width="171.1106"
   version="1.0"
   inkscape:version="0.92.2 (unknown)"
   sodipodi:docname="ThinkingOfChristmas.svg">
  <metadata
     id="metadata13">
    <rdf:RDF>
      <cc:Work
         rdf:about="">
        <dc:format>image/svg+xml</dc:format>
        <dc:type
           rdf:resource="http://purl.org/dc/dcmitype/StillImage" />
        <dc:title>A bicycle for our minds.</dc:title>
      </cc:Work>
    </rdf:RDF>
  </metadata>
  <defs
     id="defs11">
    <inkscape:path-effect
       effect="spiro"
       id="path-effect4280"
       is_visible="true" />
    <inkscape:path-effect
       effect="spiro"
       id="path-effect4206"
       is_visible="true" />
    <inkscape:path-effect
       effect="spiro"
       id="path-effect4202"
       is_visible="true" />
    <inkscape:path-effect
       effect="spiro"
       id="path-effect4162"
       is_visible="true" />
    <inkscape:path-effect
       effect="spiro"
       id="path-effect4150"
       is_visible="true" />
    <inkscape:path-effect
       effect="spiro"
       id="path-effect4202-6"
       is_visible="true" />
    <inkscape:path-effect
       effect="spiro"
       id="path-effect4206-1"
       is_visible="true" />
    <inkscape:path-effect
       effect="spiro"
       id="path-effect4280-4"
       is_visible="true" />
  </defs>
  <sodipodi:namedview
     pagecolor="#ffffff"
     bordercolor="#666666"
     borderopacity="1"
     objecttolerance="10"
     gridtolerance="10000"
     guidetolerance="10"
     inkscape:pageopacity="0"
     inkscape:pageshadow="2"
     inkscape:window-width="1366"
     inkscape:window-height="715"
     id="namedview9"
     showgrid="true"
     showguides="true"
     inkscape:guide-bbox="true"
     inkscape:object-nodes="true"
     inkscape:snap-smooth-nodes="true"
     inkscape:snap-grids="false"
     fit-margin-top="0"
     fit-margin-left="0"
     fit-margin-right="0"
     fit-margin-bottom="0"
     inkscape:zoom="2.2018637"
     inkscape:cx="81.037296"
     inkscape:cy="115.89403"
     inkscape:window-x="0"
     inkscape:window-y="0"
     inkscape:window-maximized="1"
     inkscape:current-layer="g4344">
    <sodipodi:guide
       position="-30.849405,217.89792"
       orientation="0,1"
       id="guide4152"
       inkscape:locked="false" />
  </sodipodi:namedview>
  <title
     id="title3062">A bicycle for our minds.</title>
  <g
     id="g4348"
     transform="translate(-0.19102183,-1.2692251)">
    <g
       id="g4344">
      <path
         style="fill:#ff00ff;fill-opacity:1;fill-rule:evenodd;stroke:#291f02;stroke-width:2;stroke-linecap:butt;stroke-linejoin:miter;stroke-miterlimit:4;stroke-dasharray:none;stroke-opacity:1"
         d="m 107.30434,215.10078 -91.975149,0.32615 c 7.870746,-13.54794 14.125884,-28.03352 18.590722,-43.05219 1.830728,-6.15814 3.372231,-12.49333 3.26153,-18.91688 C 37.063384,146.60733 35.0357,139.83775 31.636842,133.88868 27.630336,126.87603 21.83978,121.08123 16.959957,114.64565 12.149254,108.30123 8.1991333,101.27839 5.5446012,93.771862 1.9749174,83.677451 0.79335086,72.829803 1.3046121,62.135019 1.7979528,51.815105 3.9231241,41.377463 9.1322844,32.455095 14.969927,22.456249 24.423656,14.883623 34.898372,9.9505373 44.281405,5.5315815 54.552955,3.093257 64.90445,2.449018 c 12.503962,-0.7782007 25.07076,1.0327942 37.18144,4.2399892 9.84895,2.6082361 19.61308,6.2266608 27.72301,12.3938148 6.13518,4.665469 11.19901,10.733927 14.67688,17.612262 4.12918,8.166462 5.98306,17.308453 6.84922,26.418394 0.74625,7.848766 0.79951,15.809363 2.60922,23.483017 0.72087,3.056674 1.72575,6.066735 3.26153,8.806132 2.65314,4.732463 6.76011,8.452803 10.11075,12.719963 0.99109,1.26219 1.92841,2.59476 2.48625,4.09949 0.55783,1.50474 0.70769,3.21216 0.12297,4.70665 -0.42684,1.09096 -1.22544,2.01565 -2.18343,2.68991 -0.958,0.67425 -2.07053,1.10791 -3.21197,1.37155 -2.28286,0.52729 -4.65828,0.38936 -6.99841,0.50468 -0.73594,0.0363 -1.47955,0.0996 -2.17726,0.33654 -0.69771,0.23689 -1.35342,0.66484 -1.73658,1.29422 -0.25383,0.41694 -0.37808,0.90782 -0.37761,1.39594 4.7e-4,0.48812 0.12322,0.97296 0.33297,1.41372 0.41951,0.88151 1.17133,1.56905 2.00156,2.08264 0.81445,0.50383 1.71063,0.85791 2.57092,1.27873 0.86028,0.42081 1.7044,0.92417 2.32137,1.65665 0.41942,0.49795 0.72558,1.10305 0.80782,1.74889 0.0822,0.64584 -0.0733,1.33173 -0.48166,1.83879 -0.3394,0.42144 -0.83323,0.70056 -1.35366,0.84875 -0.52042,0.14819 -1.06859,0.17321 -1.60929,0.15207 -1.08139,-0.0423 -2.17896,-0.26357 -3.23396,-0.0224 -0.48299,0.11043 -0.95016,0.32159 -1.31412,0.65776 -0.36397,0.33616 -0.61741,0.80436 -0.6428,1.29916 -0.0277,0.54066 0.21568,1.06918 0.56971,1.47874 0.35403,0.40957 0.81207,0.71474 1.27828,0.98993 0.46622,0.2752 0.94864,0.52705 1.38034,0.85373 0.4317,0.32669 0.81633,0.73883 1.01166,1.24374 0.17389,0.44948 0.18776,0.95085 0.0934,1.42347 -0.0943,0.47262 -0.29265,0.91924 -0.53137,1.3379 -0.47744,0.83733 -1.1208,1.57929 -1.51898,2.45708 -0.38999,0.85972 -0.52767,1.8197 -0.49404,2.76314 0.0336,0.94343 0.23346,1.8741 0.49404,2.78146 0.56164,1.95569 1.41224,3.84779 1.63077,5.87075 0.23192,2.14691 -0.28034,4.35165 -1.34522,6.23022 -1.06487,1.87858 -2.66731,3.43283 -4.52554,4.53283 -2.30814,1.36633 -4.96952,2.0325 -7.63007,2.37286 -2.66055,0.34036 -5.34985,0.37151 -8.02527,0.56252 -5.64485,0.40302 -11.32651,1.55391 -16.30765,4.23999 -3.64135,1.9636 -6.907,4.8046 -8.80613,8.47998 -1.72331,3.33511 -2.2399,7.16903 -2.28604,10.92278 -0.0461,3.75375 0.35001,7.50165 0.32912,11.25562 -0.0146,2.62086 -0.2329,5.24055 -0.65231,7.82767 z"
         id="path4148"
         inkscape:connector-curvature="0" />
      <path
         style="fill:#800080;fill-opacity:1;fill-rule:evenodd;stroke:#000000;stroke-width:1px;stroke-linecap:butt;stroke-linejoin:miter;stroke-opacity:1"
         d="m 6.1969026,73.550376 c -0.3516031,-3.144345 -0.7955967,-6.297745 -0.6523,-9.45844 0.1510753,-3.332269 0.9531987,-6.603491 1.95692,-9.784588 1.0772894,-3.414257 2.4464711,-6.843926 4.8922904,-9.458438 0.840507,-0.898479 1.795744,-1.686209 2.60923,-2.609224 1.801469,-2.044022 2.865937,-4.701737 4.892289,-6.52306 1.392662,-1.25175 3.156874,-2.028503 4.56614,-3.26153 1.20739,-1.056397 2.112452,-2.410926 2.941329,-3.784508 0.828877,-1.373583 1.6012,-2.790319 2.603271,-4.043164 1.373375,-1.717069 3.176046,-3.099547 5.21845,-3.913837 1.502873,-0.599183 3.125939,-0.893561 4.56614,-1.630765 1.939066,-0.992561 3.402384,-2.710898 5.21845,-3.913836 1.000611,-0.662791 2.113123,-1.167833 3.287491,-1.415569 1.174368,-0.247736 2.411797,-0.232803 3.561729,0.110957 0.99015,0.295995 1.912542,0.830698 2.93537,0.978459 1.137681,0.164353 2.290217,-0.167596 3.349977,-0.612837 1.05976,-0.445241 2.073754,-1.008215 3.173083,-1.344081 2.093218,-0.639518 4.336124,-0.414776 6.52306,-0.326153 2.327234,0.09431 4.739937,0.0094 6.84922,-0.978459 1.368836,-0.641069 2.54803,-1.6355585 3.91383,-2.2830712 2.019659,-0.957501 4.423431,-1.0925655 6.52306,-0.326153 0.914562,0.333836 1.761257,0.8262698 2.60923,1.3046122 6.53707,3.687566 13.454578,6.678724 20.547638,9.132284 3.51038,1.214277 7.14023,2.336044 10.11074,4.566142 2.83156,2.125781 4.87817,5.123557 7.50152,7.50152 2.11655,1.918574 4.60347,3.428966 6.52306,5.544601 3.19023,3.516045 4.47928,8.293924 6.19691,12.719968 1.86399,4.803186 4.37298,9.528324 4.56614,14.67689 0.16567,4.416011 -1.40476,8.709846 -3.26153,12.71996 -0.93583,2.021137 -1.96253,4.024388 -3.3826,5.740248 -1.42007,1.715859 -3.27237,3.140869 -5.42353,3.718192 -1.54614,0.414951 -3.18033,0.378893 -4.76889,0.180911 -1.58857,-0.197983 -3.15367,-0.553929 -4.73956,-0.772349 -1.58589,-0.21842 -3.21479,-0.296783 -4.7758,0.05815 -1.56102,0.354931 -3.05869,1.181267 -3.98032,2.490211 -0.707,1.004112 -1.03606,2.218953 -1.3398,3.408841 -0.30374,1.189888 -0.60528,2.40741 -1.26942,3.440369 -0.62486,0.971863 -1.54496,1.730223 -2.55851,2.284914 -1.01355,0.55469 -2.1217,0.915865 -3.23996,1.206468 -2.23654,0.581204 -4.587299,0.909712 -6.595348,2.053219 -0.96034,0.54688 -1.810431,1.26388 -2.688988,1.9343 -0.878557,0.67042 -1.806587,1.30572 -2.855612,1.65339 -1.375939,0.45602 -2.890477,0.3852 -4.283231,-0.0165 -1.392753,-0.40174 -2.67575,-1.1197 -3.870599,-1.94037 -1.899601,-1.30472 -3.6675,-2.912064 -5.87075,-3.587689 -1.726582,-0.529455 -3.615757,-0.432295 -5.330651,0.133874 -1.714894,0.566169 -3.260494,1.584985 -4.565621,2.833205 -2.610254,2.49644 -4.234387,5.8263 -5.759068,9.10059 -0.985471,2.11632 -1.955622,4.24795 -3.187015,6.23129 -1.231394,1.98335 -2.740838,3.82736 -4.640665,5.18406 -1.673667,1.1952 -3.633758,1.99029 -5.669918,2.27963 -2.03616,0.28933 -4.144887,0.0705 -6.071582,-0.64886 -3.542335,-1.32262 -6.250383,-4.19545 -9.45844,-6.19691 -3.187055,-1.98835 -6.902393,-3.13549 -9.78459,-5.5446 -1.944638,-1.62544 -3.42085,-3.76595 -4.462001,-6.07672 -1.041151,-2.31078 -1.661165,-4.79281 -2.061058,-7.295559 -0.708149,-4.431991 -0.732581,-9.010723 0.32615,-13.372272 0.118588,-0.488536 0.251118,-0.977157 0.287328,-1.478575 0.03621,-0.501418 -0.03075,-1.024487 -0.287328,-1.456805 -0.280749,-0.473044 -0.769976,-0.799388 -1.296203,-0.959626 -0.526227,-0.160238 -1.088628,-0.166642 -1.635386,-0.106254 -1.093516,0.120774 -2.16875,0.502441 -3.265321,0.41358 C 10.514055,81.957319 9.6537082,81.561304 8.9600446,80.981216 8.266381,80.401128 7.7336478,79.643663 7.3490126,78.825294 6.5797422,77.188557 6.3978784,75.347678 6.1969026,73.550376 Z"
         id="path4160"
         inkscape:connector-curvature="0" />
    </g>
  </g>
  <path
     style="opacity:0.97000002;fill:#ff00ff;fill-opacity:0;stroke:none;stroke-width:0.45416072"
     d="M 21.886987,203.97883 C 33.307391,181.12432 39.421487,159.84594 37.884694,148.30335 36.514449,138.01165 33.21309,131.57176 22.833007,118.94233 12.114138,105.90069 7.2291188,96.875699 4.443033,84.967137 2.6602895,77.34716 2.2277319,72.291493 2.5177515,62.464731 2.8002007,52.89448 3.5781541,47.798219 5.7394558,41.359815 12.101905,22.406407 28.961522,9.1098019 53.216155,3.9165626 58.547993,2.774945 59.674366,2.6945332 70.500767,2.6826157 83.375261,2.6684436 87.032794,3.0858639 98.501719,5.8782564 110.18527,8.722906 118.81582,12.148546 126.04094,16.809129 c 4.08683,2.636224 10.60324,8.971812 13.39882,13.027019 6.7525,9.795044 9.34377,18.855469 10.99949,38.459943 1.76873,20.94265 3.11185,24.647929 13.17018,36.332859 4.06828,4.72618 4.77316,5.83793 5.19312,8.19059 0.35831,2.0073 -0.86552,4.09023 -2.99771,5.10202 -0.88885,0.42178 -3.49615,0.86526 -6.16968,1.04939 -5.55564,0.38264 -7.18236,1.14453 -7.63882,3.57769 -0.42829,2.28299 0.91035,4.26749 3.88664,5.76178 2.059,1.03376 4.08745,2.69535 4.08745,3.34823 0,0.98682 -1.66172,1.65265 -3.33915,1.33796 -2.08432,-0.39102 -4.71997,0.76044 -5.08688,2.22234 -0.46328,1.84587 -0.0735,2.68141 1.9294,4.13615 2.22063,1.61286 2.36191,2.48961 0.80777,5.01291 -1.39486,2.26469 -1.46187,4.97098 -0.22109,8.92921 1.76674,5.63613 0.93061,9.70286 -2.59239,12.60872 -2.8791,2.37476 -5.7652,3.15627 -14.34743,3.88507 -4.29334,0.36458 -9.4292,1.07968 -11.41302,1.58911 -7.11609,1.82733 -13.0915,5.69137 -16.13453,10.43352 -2.65994,4.14517 -2.88241,5.45606 -3.16386,18.64322 l -0.25687,12.03526 -44.31759,0.11577 -44.31759,0.11576 z m 29.676191,-80.47675 c 4.680517,-1.6695 7.098023,-4.46841 11.397917,-13.19612 4.409524,-8.95023 7.702788,-12.035261 12.847639,-12.035261 1.998416,0 2.760271,0.303338 5.874237,2.338861 7.177824,4.69196 9.303419,4.77672 15.113379,0.60268 1.426051,-1.02451 3.42726,-1.849394 6.13332,-2.528091 5.77331,-1.447987 7.41169,-2.809725 8.97652,-7.460798 1.92633,-5.725577 3.89405,-6.645938 11.61904,-5.434587 6.79181,1.06502 9.63579,0.312185 13.03522,-3.450582 2.11884,-2.345304 5.41648,-9.168837 6.35459,-13.149061 1.4696,-6.235172 0.98714,-8.922101 -3.77296,-21.012667 -3.94634,-10.023626 -4.76355,-11.424409 -8.58402,-14.713843 -1.68307,-1.449128 -4.89947,-4.495558 -7.14757,-6.769844 -5.12756,-5.18729 -6.45149,-6.043765 -13.17711,-8.52448 C 101.1631,14.822754 98.097484,13.519252 90.908284,9.9512373 82.462597,5.7596255 81.677898,5.6762411 76.539974,8.4244166 c -3.52535,1.8856384 -3.568981,1.8954514 -9.672493,2.1753264 -4.942849,0.226654 -6.560469,0.475696 -8.346166,1.284942 -2.618559,1.186687 -3.469061,1.225303 -6.18224,0.280697 -3.557954,-1.238716 -5.927871,-0.441332 -11.502712,3.870206 -0.953436,0.73738 -3.032425,1.772939 -4.619975,2.301242 -3.702538,1.232125 -6.420094,3.620452 -9.393144,8.255174 -1.69748,2.646221 -2.985572,4.061706 -4.862385,5.343275 -2.840281,1.939467 -3.820271,2.936133 -5.839972,5.93935 -0.758639,1.128066 -2.435594,3.17179 -3.726568,4.541607 -5.8678436,6.226209 -8.7058656,17.734333 -7.169643,29.072755 1.0956054,8.08635 2.8175181,10.235352 7.82476,9.765564 3.925716,-0.368325 4.175827,-0.09509 3.503239,3.827144 -1.212576,7.071205 -0.358782,14.892584 2.241528,20.534031 1.857193,4.02923 4.724793,6.68319 10.413359,9.63755 2.353508,1.22229 5.403154,3.07967 6.77699,4.12749 3.472017,2.64812 4.742759,3.43123 6.702995,4.13085 2.191315,0.78209 6.669772,0.77727 8.875631,-0.01 z"
     id="path847"
     inkscape:connector-curvature="0" />
  <path
     style="opacity:0.97000002;fill:#ff00ff;fill-opacity:0;stroke:none;stroke-width:0.45416072"
     d="M 21.886987,203.97883 C 33.307391,181.12432 39.421487,159.84594 37.884694,148.30335 36.514449,138.01165 33.21309,131.57176 22.833007,118.94233 12.114138,105.90069 7.2291188,96.875699 4.443033,84.967137 2.6602895,77.34716 2.2277319,72.291493 2.5177515,62.464731 2.8002007,52.89448 3.5781541,47.798219 5.7394558,41.359815 12.101905,22.406407 28.961522,9.1098019 53.216155,3.9165626 58.547993,2.774945 59.674366,2.6945332 70.500767,2.6826157 83.375261,2.6684436 87.032794,3.0858639 98.501719,5.8782564 110.18527,8.722906 118.81582,12.148546 126.04094,16.809129 c 4.08683,2.636224 10.60324,8.971812 13.39882,13.027019 6.7525,9.795044 9.34377,18.855469 10.99949,38.459943 1.76873,20.94265 3.11185,24.647929 13.17018,36.332859 4.06828,4.72618 4.77316,5.83793 5.19312,8.19059 0.35831,2.0073 -0.86552,4.09023 -2.99771,5.10202 -0.88885,0.42178 -3.49615,0.86526 -6.16968,1.04939 -5.55564,0.38264 -7.18236,1.14453 -7.63882,3.57769 -0.42829,2.28299 0.91035,4.26749 3.88664,5.76178 2.059,1.03376 4.08745,2.69535 4.08745,3.34823 0,0.98682 -1.66172,1.65265 -3.33915,1.33796 -2.08432,-0.39102 -4.71997,0.76044 -5.08688,2.22234 -0.46328,1.84587 -0.0735,2.68141 1.9294,4.13615 2.22063,1.61286 2.36191,2.48961 0.80777,5.01291 -1.39486,2.26469 -1.46187,4.97098 -0.22109,8.92921 1.76674,5.63613 0.93061,9.70286 -2.59239,12.60872 -2.8791,2.37476 -5.7652,3.15627 -14.34743,3.88507 -4.29334,0.36458 -9.4292,1.07968 -11.41302,1.58911 -7.11609,1.82733 -13.0915,5.69137 -16.13453,10.43352 -2.65994,4.14517 -2.88241,5.45606 -3.16386,18.64322 l -0.25687,12.03526 -44.31759,0.11577 -44.31759,0.11576 z m 29.676191,-80.47675 c 4.680517,-1.6695 7.098023,-4.46841 11.397917,-13.19612 4.409524,-8.95023 7.702788,-12.035261 12.847639,-12.035261 1.998416,0 2.760271,0.303338 5.874237,2.338861 7.177824,4.69196 9.303419,4.77672 15.113379,0.60268 1.426051,-1.02451 3.42726,-1.849394 6.13332,-2.528091 5.77331,-1.447987 7.41169,-2.809725 8.97652,-7.460798 1.92633,-5.725577 3.89405,-6.645938 11.61904,-5.434587 6.79181,1.06502 9.63579,0.312185 13.03522,-3.450582 2.11884,-2.345304 5.41648,-9.168837 6.35459,-13.149061 1.4696,-6.235172 0.98714,-8.922101 -3.77296,-21.012667 -3.94634,-10.023626 -4.76355,-11.424409 -8.58402,-14.713843 -1.68307,-1.449128 -4.89947,-4.495558 -7.14757,-6.769844 -5.12756,-5.18729 -6.45149,-6.043765 -13.17711,-8.52448 C 101.1631,14.822754 98.097484,13.519252 90.908284,9.9512373 82.462597,5.7596255 81.677898,5.6762411 76.539974,8.4244166 c -3.52535,1.8856384 -3.568981,1.8954514 -9.672493,2.1753264 -4.942849,0.226654 -6.560469,0.475696 -8.346166,1.284942 -2.618559,1.186687 -3.469061,1.225303 -6.18224,0.280697 -3.557954,-1.238716 -5.927871,-0.441332 -11.502712,3.870206 -0.953436,0.73738 -3.032425,1.772939 -4.619975,2.301242 -3.702538,1.232125 -6.420094,3.620452 -9.393144,8.255174 -1.69748,2.646221 -2.985572,4.061706 -4.862385,5.343275 -2.840281,1.939467 -3.820271,2.936133 -5.839972,5.93935 -0.758639,1.128066 -2.435594,3.17179 -3.726568,4.541607 -5.8678436,6.226209 -8.7058656,17.734333 -7.169643,29.072755 1.0956054,8.08635 2.8175181,10.235352 7.82476,9.765564 3.925716,-0.368325 4.175827,-0.09509 3.503239,3.827144 -1.212576,7.071205 -0.358782,14.892584 2.241528,20.534031 1.857193,4.02923 4.724793,6.68319 10.413359,9.63755 2.353508,1.22229 5.403154,3.07967 6.77699,4.12749 3.472017,2.64812 4.742759,3.43123 6.702995,4.13085 2.191315,0.78209 6.669772,0.77727 8.875631,-0.01 z"
     id="path849"
     inkscape:connector-curvature="0" />
  <path
     style="opacity:0.97000002;fill:#ff00ff;fill-opacity:0;stroke:none;stroke-width:0.45416072"
     d="M 21.886987,203.97883 C 33.307391,181.12432 39.421487,159.84594 37.884694,148.30335 36.514449,138.01165 33.21309,131.57176 22.833007,118.94233 12.114138,105.90069 7.2291188,96.875699 4.443033,84.967137 2.6602895,77.34716 2.2277319,72.291493 2.5177515,62.464731 2.8002007,52.89448 3.5781541,47.798219 5.7394558,41.359815 12.101905,22.406407 28.961522,9.1098019 53.216155,3.9165626 58.547993,2.774945 59.674366,2.6945332 70.500767,2.6826157 83.375261,2.6684436 87.032794,3.0858639 98.501719,5.8782564 110.18527,8.722906 118.81582,12.148546 126.04094,16.809129 c 4.08683,2.636224 10.60324,8.971812 13.39882,13.027019 6.7525,9.795044 9.34377,18.855469 10.99949,38.459943 1.76873,20.94265 3.11185,24.647929 13.17018,36.332859 4.06828,4.72618 4.77316,5.83793 5.19312,8.19059 0.35831,2.0073 -0.86552,4.09023 -2.99771,5.10202 -0.88885,0.42178 -3.49615,0.86526 -6.16968,1.04939 -5.55564,0.38264 -7.18236,1.14453 -7.63882,3.57769 -0.42829,2.28299 0.91035,4.26749 3.88664,5.76178 2.059,1.03376 4.08745,2.69535 4.08745,3.34823 0,0.98682 -1.66172,1.65265 -3.33915,1.33796 -2.08432,-0.39102 -4.71997,0.76044 -5.08688,2.22234 -0.46328,1.84587 -0.0735,2.68141 1.9294,4.13615 2.22063,1.61286 2.36191,2.48961 0.80777,5.01291 -1.39486,2.26469 -1.46187,4.97098 -0.22109,8.92921 1.76674,5.63613 0.93061,9.70286 -2.59239,12.60872 -2.8791,2.37476 -5.7652,3.15627 -14.34743,3.88507 -4.29334,0.36458 -9.4292,1.07968 -11.41302,1.58911 -7.11609,1.82733 -13.0915,5.69137 -16.13453,10.43352 -2.65994,4.14517 -2.88241,5.45606 -3.16386,18.64322 l -0.25687,12.03526 -44.31759,0.11577 -44.31759,0.11576 z m 29.676191,-80.47675 c 4.680517,-1.6695 7.098023,-4.46841 11.397917,-13.19612 4.409524,-8.95023 7.702788,-12.035261 12.847639,-12.035261 1.998416,0 2.760271,0.303338 5.874237,2.338861 7.177824,4.69196 9.303419,4.77672 15.113379,0.60268 1.426051,-1.02451 3.42726,-1.849394 6.13332,-2.528091 5.77331,-1.447987 7.41169,-2.809725 8.97652,-7.460798 1.92633,-5.725577 3.89405,-6.645938 11.61904,-5.434587 6.79181,1.06502 9.63579,0.312185 13.03522,-3.450582 2.11884,-2.345304 5.41648,-9.168837 6.35459,-13.149061 1.4696,-6.235172 0.98714,-8.922101 -3.77296,-21.012667 -3.94634,-10.023626 -4.76355,-11.424409 -8.58402,-14.713843 -1.68307,-1.449128 -4.89947,-4.495558 -7.14757,-6.769844 -5.12756,-5.18729 -6.45149,-6.043765 -13.17711,-8.52448 C 101.1631,14.822754 98.097484,13.519252 90.908284,9.9512373 82.462597,5.7596255 81.677898,5.6762411 76.539974,8.4244166 c -3.52535,1.8856384 -3.568981,1.8954514 -9.672493,2.1753264 -4.942849,0.226654 -6.560469,0.475696 -8.346166,1.284942 -2.618559,1.186687 -3.469061,1.225303 -6.18224,0.280697 -3.557954,-1.238716 -5.927871,-0.441332 -11.502712,3.870206 -0.953436,0.73738 -3.032425,1.772939 -4.619975,2.301242 -3.702538,1.232125 -6.420094,3.620452 -9.393144,8.255174 -1.69748,2.646221 -2.985572,4.061706 -4.862385,5.343275 -2.840281,1.939467 -3.820271,2.936133 -5.839972,5.93935 -0.758639,1.128066 -2.435594,3.17179 -3.726568,4.541607 -5.8678436,6.226209 -8.7058656,17.734333 -7.169643,29.072755 1.0956054,8.08635 2.8175181,10.235352 7.82476,9.765564 3.925716,-0.368325 4.175827,-0.09509 3.503239,3.827144 -1.212576,7.071205 -0.358782,14.892584 2.241528,20.534031 1.857193,4.02923 4.724793,6.68319 10.413359,9.63755 2.353508,1.22229 5.403154,3.07967 6.77699,4.12749 3.472017,2.64812 4.742759,3.43123 6.702995,4.13085 2.191315,0.78209 6.669772,0.77727 8.875631,-0.01 z"
     id="path851"
     inkscape:connector-curvature="0" />
  <path
     style="opacity:0.97000002;fill:#ff00ff;fill-opacity:0;stroke:none;stroke-width:0.45416072"
     d="M 21.886987,203.97883 C 33.307391,181.12432 39.421487,159.84594 37.884694,148.30335 36.514449,138.01165 33.21309,131.57176 22.833007,118.94233 12.114138,105.90069 7.2291188,96.875699 4.443033,84.967137 2.6602895,77.34716 2.2277319,72.291493 2.5177515,62.464731 2.8002007,52.89448 3.5781541,47.798219 5.7394558,41.359815 12.101905,22.406407 28.961522,9.1098019 53.216155,3.9165626 58.547993,2.774945 59.674366,2.6945332 70.500767,2.6826157 83.375261,2.6684436 87.032794,3.0858639 98.501719,5.8782564 110.18527,8.722906 118.81582,12.148546 126.04094,16.809129 c 4.08683,2.636224 10.60324,8.971812 13.39882,13.027019 6.7525,9.795044 9.34377,18.855469 10.99949,38.459943 1.76873,20.94265 3.11185,24.647929 13.17018,36.332859 4.06828,4.72618 4.77316,5.83793 5.19312,8.19059 0.35831,2.0073 -0.86552,4.09023 -2.99771,5.10202 -0.88885,0.42178 -3.49615,0.86526 -6.16968,1.04939 -5.55564,0.38264 -7.18236,1.14453 -7.63882,3.57769 -0.42829,2.28299 0.91035,4.26749 3.88664,5.76178 2.059,1.03376 4.08745,2.69535 4.08745,3.34823 0,0.98682 -1.66172,1.65265 -3.33915,1.33796 -2.08432,-0.39102 -4.71997,0.76044 -5.08688,2.22234 -0.46328,1.84587 -0.0735,2.68141 1.9294,4.13615 2.22063,1.61286 2.36191,2.48961 0.80777,5.01291 -1.39486,2.26469 -1.46187,4.97098 -0.22109,8.92921 1.76674,5.63613 0.93061,9.70286 -2.59239,12.60872 -2.8791,2.37476 -5.7652,3.15627 -14.34743,3.88507 -4.29334,0.36458 -9.4292,1.07968 -11.41302,1.58911 -7.11609,1.82733 -13.0915,5.69137 -16.13453,10.43352 -2.65994,4.14517 -2.88241,5.45606 -3.16386,18.64322 l -0.25687,12.03526 -44.31759,0.11577 -44.31759,0.11576 z m 29.676191,-80.47675 c 4.680517,-1.6695 7.098023,-4.46841 11.397917,-13.19612 4.409524,-8.95023 7.702788,-12.035261 12.847639,-12.035261 1.998416,0 2.760271,0.303338 5.874237,2.338861 7.177824,4.69196 9.303419,4.77672 15.113379,0.60268 1.426051,-1.02451 3.42726,-1.849394 6.13332,-2.528091 5.77331,-1.447987 7.41169,-2.809725 8.97652,-7.460798 1.92633,-5.725577 3.89405,-6.645938 11.61904,-5.434587 6.79181,1.06502 9.63579,0.312185 13.03522,-3.450582 2.11884,-2.345304 5.41648,-9.168837 6.35459,-13.149061 1.4696,-6.235172 0.98714,-8.922101 -3.77296,-21.012667 -3.94634,-10.023626 -4.76355,-11.424409 -8.58402,-14.713843 -1.68307,-1.449128 -4.89947,-4.495558 -7.14757,-6.769844 -5.12756,-5.18729 -6.45149,-6.043765 -13.17711,-8.52448 C 101.1631,14.822754 98.097484,13.519252 90.908284,9.9512373 82.462597,5.7596255 81.677898,5.6762411 76.539974,8.4244166 c -3.52535,1.8856384 -3.568981,1.8954514 -9.672493,2.1753264 -4.942849,0.226654 -6.560469,0.475696 -8.346166,1.284942 -2.618559,1.186687 -3.469061,1.225303 -6.18224,0.280697 -3.557954,-1.238716 -5.927871,-0.441332 -11.502712,3.870206 -0.953436,0.73738 -3.032425,1.772939 -4.619975,2.301242 -3.702538,1.232125 -6.420094,3.620452 -9.393144,8.255174 -1.69748,2.646221 -2.985572,4.061706 -4.862385,5.343275 -2.840281,1.939467 -3.820271,2.936133 -5.839972,5.93935 -0.758639,1.128066 -2.435594,3.17179 -3.726568,4.541607 -5.8678436,6.226209 -8.7058656,17.734333 -7.169643,29.072755 1.0956054,8.08635 2.8175181,10.235352 7.82476,9.765564 3.925716,-0.368325 4.175827,-0.09509 3.503239,3.827144 -1.212576,7.071205 -0.358782,14.892584 2.241528,20.534031 1.857193,4.02923 4.724793,6.68319 10.413359,9.63755 2.353508,1.22229 5.403154,3.07967 6.77699,4.12749 3.472017,2.64812 4.742759,3.43123 6.702995,4.13085 2.191315,0.78209 6.669772,0.77727 8.875631,-0.01 z"
     id="path853"
     inkscape:connector-curvature="0" />
  <path
     style="opacity:0.97000002;fill:#ff00ff;fill-opacity:0;stroke:none;stroke-width:0.45416072"
     d="M 21.886987,203.97883 C 33.307391,181.12432 39.421487,159.84594 37.884694,148.30335 36.514449,138.01165 33.21309,131.57176 22.833007,118.94233 12.114138,105.90069 7.2291188,96.875699 4.443033,84.967137 2.6602895,77.34716 2.2277319,72.291493 2.5177515,62.464731 2.8002007,52.89448 3.5781541,47.798219 5.7394558,41.359815 12.101905,22.406407 28.961522,9.1098019 53.216155,3.9165626 58.547993,2.774945 59.674366,2.6945332 70.500767,2.6826157 83.375261,2.6684436 87.032794,3.0858639 98.501719,5.8782564 110.18527,8.722906 118.81582,12.148546 126.04094,16.809129 c 4.08683,2.636224 10.60324,8.971812 13.39882,13.027019 6.7525,9.795044 9.34377,18.855469 10.99949,38.459943 1.76873,20.94265 3.11185,24.647929 13.17018,36.332859 4.06828,4.72618 4.77316,5.83793 5.19312,8.19059 0.35831,2.0073 -0.86552,4.09023 -2.99771,5.10202 -0.88885,0.42178 -3.49615,0.86526 -6.16968,1.04939 -5.55564,0.38264 -7.18236,1.14453 -7.63882,3.57769 -0.42829,2.28299 0.91035,4.26749 3.88664,5.76178 2.059,1.03376 4.08745,2.69535 4.08745,3.34823 0,0.98682 -1.66172,1.65265 -3.33915,1.33796 -2.08432,-0.39102 -4.71997,0.76044 -5.08688,2.22234 -0.46328,1.84587 -0.0735,2.68141 1.9294,4.13615 2.22063,1.61286 2.36191,2.48961 0.80777,5.01291 -1.39486,2.26469 -1.46187,4.97098 -0.22109,8.92921 1.76674,5.63613 0.93061,9.70286 -2.59239,12.60872 -2.8791,2.37476 -5.7652,3.15627 -14.34743,3.88507 -4.29334,0.36458 -9.4292,1.07968 -11.41302,1.58911 -7.11609,1.82733 -13.0915,5.69137 -16.13453,10.43352 -2.65994,4.14517 -2.88241,5.45606 -3.16386,18.64322 l -0.25687,12.03526 -44.31759,0.11577 -44.31759,0.11576 z m 29.676191,-80.47675 c 4.680517,-1.6695 7.098023,-4.46841 11.397917,-13.19612 4.409524,-8.95023 7.702788,-12.035261 12.847639,-12.035261 1.998416,0 2.760271,0.303338 5.874237,2.338861 7.177824,4.69196 9.303419,4.77672 15.113379,0.60268 1.426051,-1.02451 3.42726,-1.849394 6.13332,-2.528091 5.77331,-1.447987 7.41169,-2.809725 8.97652,-7.460798 1.92633,-5.725577 3.89405,-6.645938 11.61904,-5.434587 6.79181,1.06502 9.63579,0.312185 13.03522,-3.450582 2.11884,-2.345304 5.41648,-9.168837 6.35459,-13.149061 1.4696,-6.235172 0.98714,-8.922101 -3.77296,-21.012667 -3.94634,-10.023626 -4.76355,-11.424409 -8.58402,-14.713843 -1.68307,-1.449128 -4.89947,-4.495558 -7.14757,-6.769844 -5.12756,-5.18729 -6.45149,-6.043765 -13.17711,-8.52448 C 101.1631,14.822754 98.097484,13.519252 90.908284,9.9512373 82.462597,5.7596255 81.677898,5.6762411 76.539974,8.4244166 c -3.52535,1.8856384 -3.568981,1.8954514 -9.672493,2.1753264 -4.942849,0.226654 -6.560469,0.475696 -8.346166,1.284942 -2.618559,1.186687 -3.469061,1.225303 -6.18224,0.280697 -3.557954,-1.238716 -5.927871,-0.441332 -11.502712,3.870206 -0.953436,0.73738 -3.032425,1.772939 -4.619975,2.301242 -3.702538,1.232125 -6.420094,3.620452 -9.393144,8.255174 -1.69748,2.646221 -2.985572,4.061706 -4.862385,5.343275 -2.840281,1.939467 -3.820271,2.936133 -5.839972,5.93935 -0.758639,1.128066 -2.435594,3.17179 -3.726568,4.541607 -5.8678436,6.226209 -8.7058656,17.734333 -7.169643,29.072755 1.0956054,8.08635 2.8175181,10.235352 7.82476,9.765564 3.925716,-0.368325 4.175827,-0.09509 3.503239,3.827144 -1.212576,7.071205 -0.358782,14.892584 2.241528,20.534031 1.857193,4.02923 4.724793,6.68319 10.413359,9.63755 2.353508,1.22229 5.403154,3.07967 6.77699,4.12749 3.472017,2.64812 4.742759,3.43123 6.702995,4.13085 2.191315,0.78209 6.669772,0.77727 8.875631,-0.01 z"
     id="path855"
     inkscape:connector-curvature="0" />
  <path
     style="opacity:0.97000002;fill:#ff00ff;fill-opacity:0;stroke:none;stroke-width:0.45416072"
     d="M 21.886987,203.97883 C 33.307391,181.12432 39.421487,159.84594 37.884694,148.30335 36.514449,138.01165 33.21309,131.57176 22.833007,118.94233 12.114138,105.90069 7.2291188,96.875699 4.443033,84.967137 2.6602895,77.34716 2.2277319,72.291493 2.5177515,62.464731 2.8002007,52.89448 3.5781541,47.798219 5.7394558,41.359815 12.101905,22.406407 28.961522,9.1098019 53.216155,3.9165626 58.547993,2.774945 59.674366,2.6945332 70.500767,2.6826157 83.375261,2.6684436 87.032794,3.0858639 98.501719,5.8782564 110.18527,8.722906 118.81582,12.148546 126.04094,16.809129 c 4.08683,2.636224 10.60324,8.971812 13.39882,13.027019 6.7525,9.795044 9.34377,18.855469 10.99949,38.459943 1.76873,20.94265 3.11185,24.647929 13.17018,36.332859 4.06828,4.72618 4.77316,5.83793 5.19312,8.19059 0.35831,2.0073 -0.86552,4.09023 -2.99771,5.10202 -0.88885,0.42178 -3.49615,0.86526 -6.16968,1.04939 -5.55564,0.38264 -7.18236,1.14453 -7.63882,3.57769 -0.42829,2.28299 0.91035,4.26749 3.88664,5.76178 2.059,1.03376 4.08745,2.69535 4.08745,3.34823 0,0.98682 -1.66172,1.65265 -3.33915,1.33796 -2.08432,-0.39102 -4.71997,0.76044 -5.08688,2.22234 -0.46328,1.84587 -0.0735,2.68141 1.9294,4.13615 2.22063,1.61286 2.36191,2.48961 0.80777,5.01291 -1.39486,2.26469 -1.46187,4.97098 -0.22109,8.92921 1.76674,5.63613 0.93061,9.70286 -2.59239,12.60872 -2.8791,2.37476 -5.7652,3.15627 -14.34743,3.88507 -4.29334,0.36458 -9.4292,1.07968 -11.41302,1.58911 -7.11609,1.82733 -13.0915,5.69137 -16.13453,10.43352 -2.65994,4.14517 -2.88241,5.45606 -3.16386,18.64322 l -0.25687,12.03526 -44.31759,0.11577 -44.31759,0.11576 z m 29.676191,-80.47675 c 4.680517,-1.6695 7.098023,-4.46841 11.397917,-13.19612 4.409524,-8.95023 7.702788,-12.035261 12.847639,-12.035261 1.998416,0 2.760271,0.303338 5.874237,2.338861 7.177824,4.69196 9.303419,4.77672 15.113379,0.60268 1.426051,-1.02451 3.42726,-1.849394 6.13332,-2.528091 5.77331,-1.447987 7.41169,-2.809725 8.97652,-7.460798 1.92633,-5.725577 3.89405,-6.645938 11.61904,-5.434587 6.79181,1.06502 9.63579,0.312185 13.03522,-3.450582 2.11884,-2.345304 5.41648,-9.168837 6.35459,-13.149061 1.4696,-6.235172 0.98714,-8.922101 -3.77296,-21.012667 -3.94634,-10.023626 -4.76355,-11.424409 -8.58402,-14.713843 -1.68307,-1.449128 -4.89947,-4.495558 -7.14757,-6.769844 -5.12756,-5.18729 -6.45149,-6.043765 -13.17711,-8.52448 C 101.1631,14.822754 98.097484,13.519252 90.908284,9.9512373 82.462597,5.7596255 81.677898,5.6762411 76.539974,8.4244166 c -3.52535,1.8856384 -3.568981,1.8954514 -9.672493,2.1753264 -4.942849,0.226654 -6.560469,0.475696 -8.346166,1.284942 -2.618559,1.186687 -3.469061,1.225303 -6.18224,0.280697 -3.557954,-1.238716 -5.927871,-0.441332 -11.502712,3.870206 -0.953436,0.73738 -3.032425,1.772939 -4.619975,2.301242 -3.702538,1.232125 -6.420094,3.620452 -9.393144,8.255174 -1.69748,2.646221 -2.985572,4.061706 -4.862385,5.343275 -2.840281,1.939467 -3.820271,2.936133 -5.839972,5.93935 -0.758639,1.128066 -2.435594,3.17179 -3.726568,4.541607 -5.8678436,6.226209 -8.7058656,17.734333 -7.169643,29.072755 1.0956054,8.08635 2.8175181,10.235352 7.82476,9.765564 3.925716,-0.368325 4.175827,-0.09509 3.503239,3.827144 -1.212576,7.071205 -0.358782,14.892584 2.241528,20.534031 1.857193,4.02923 4.724793,6.68319 10.413359,9.63755 2.353508,1.22229 5.403154,3.07967 6.77699,4.12749 3.472017,2.64812 4.742759,3.43123 6.702995,4.13085 2.191315,0.78209 6.669772,0.77727 8.875631,-0.01 z"
     id="path857"
     inkscape:connector-curvature="0" />
  <path
     style="opacity:0.97000002;fill:#ff00ff;fill-opacity:0;stroke:none;stroke-width:0.45416072"
     d="M 21.886987,203.97883 C 33.307391,181.12432 39.421487,159.84594 37.884694,148.30335 36.514449,138.01165 33.21309,131.57176 22.833007,118.94233 12.114138,105.90069 7.2291188,96.875699 4.443033,84.967137 2.6602895,77.34716 2.2277319,72.291493 2.5177515,62.464731 2.8002007,52.89448 3.5781541,47.798219 5.7394558,41.359815 12.101905,22.406407 28.961522,9.1098019 53.216155,3.9165626 58.547993,2.774945 59.674366,2.6945332 70.500767,2.6826157 83.375261,2.6684436 87.032794,3.0858639 98.501719,5.8782564 110.18527,8.722906 118.81582,12.148546 126.04094,16.809129 c 4.08683,2.636224 10.60324,8.971812 13.39882,13.027019 6.7525,9.795044 9.34377,18.855469 10.99949,38.459943 1.76873,20.94265 3.11185,24.647929 13.17018,36.332859 4.06828,4.72618 4.77316,5.83793 5.19312,8.19059 0.35831,2.0073 -0.86552,4.09023 -2.99771,5.10202 -0.88885,0.42178 -3.49615,0.86526 -6.16968,1.04939 -5.55564,0.38264 -7.18236,1.14453 -7.63882,3.57769 -0.42829,2.28299 0.91035,4.26749 3.88664,5.76178 2.059,1.03376 4.08745,2.69535 4.08745,3.34823 0,0.98682 -1.66172,1.65265 -3.33915,1.33796 -2.08432,-0.39102 -4.71997,0.76044 -5.08688,2.22234 -0.46328,1.84587 -0.0735,2.68141 1.9294,4.13615 2.22063,1.61286 2.36191,2.48961 0.80777,5.01291 -1.39486,2.26469 -1.46187,4.97098 -0.22109,8.92921 1.76674,5.63613 0.93061,9.70286 -2.59239,12.60872 -2.8791,2.37476 -5.7652,3.15627 -14.34743,3.88507 -4.29334,0.36458 -9.4292,1.07968 -11.41302,1.58911 -7.11609,1.82733 -13.0915,5.69137 -16.13453,10.43352 -2.65994,4.14517 -2.88241,5.45606 -3.16386,18.64322 l -0.25687,12.03526 -44.31759,0.11577 -44.31759,0.11576 z m 29.676191,-80.47675 c 4.680517,-1.6695 7.098023,-4.46841 11.397917,-13.19612 4.409524,-8.95023 7.702788,-12.035261 12.847639,-12.035261 1.998416,0 2.760271,0.303338 5.874237,2.338861 7.177824,4.69196 9.303419,4.77672 15.113379,0.60268 1.426051,-1.02451 3.42726,-1.849394 6.13332,-2.528091 5.77331,-1.447987 7.41169,-2.809725 8.97652,-7.460798 1.92633,-5.725577 3.89405,-6.645938 11.61904,-5.434587 6.79181,1.06502 9.63579,0.312185 13.03522,-3.450582 2.11884,-2.345304 5.41648,-9.168837 6.35459,-13.149061 1.4696,-6.235172 0.98714,-8.922101 -3.77296,-21.012667 -3.94634,-10.023626 -4.76355,-11.424409 -8.58402,-14.713843 -1.68307,-1.449128 -4.89947,-4.495558 -7.14757,-6.769844 -5.12756,-5.18729 -6.45149,-6.043765 -13.17711,-8.52448 C 101.1631,14.822754 98.097484,13.519252 90.908284,9.9512373 82.462597,5.7596255 81.677898,5.6762411 76.539974,8.4244166 c -3.52535,1.8856384 -3.568981,1.8954514 -9.672493,2.1753264 -4.942849,0.226654 -6.560469,0.475696 -8.346166,1.284942 -2.618559,1.186687 -3.469061,1.225303 -6.18224,0.280697 -3.557954,-1.238716 -5.927871,-0.441332 -11.502712,3.870206 -0.953436,0.73738 -3.032425,1.772939 -4.619975,2.301242 -3.702538,1.232125 -6.420094,3.620452 -9.393144,8.255174 -1.69748,2.646221 -2.985572,4.061706 -4.862385,5.343275 -2.840281,1.939467 -3.820271,2.936133 -5.839972,5.93935 -0.758639,1.128066 -2.435594,3.17179 -3.726568,4.541607 -5.8678436,6.226209 -8.7058656,17.734333 -7.169643,29.072755 1.0956054,8.08635 2.8175181,10.235352 7.82476,9.765564 3.925716,-0.368325 4.175827,-0.09509 3.503239,3.827144 -1.212576,7.071205 -0.358782,14.892584 2.241528,20.534031 1.857193,4.02923 4.724793,6.68319 10.413359,9.63755 2.353508,1.22229 5.403154,3.07967 6.77699,4.12749 3.472017,2.64812 4.742759,3.43123 6.702995,4.13085 2.191315,0.78209 6.669772,0.77727 8.875631,-0.01 z"
     id="path859"
     inkscape:connector-curvature="0" />
  <path
     style="opacity:0.97000002;fill:#ff00ff;fill-opacity:0;stroke:none;stroke-width:0.45416072"
     d="M 21.886987,203.97883 C 33.307391,181.12432 39.421487,159.84594 37.884694,148.30335 36.514449,138.01165 33.21309,131.57176 22.833007,118.94233 12.114138,105.90069 7.2291188,96.875699 4.443033,84.967137 2.6602895,77.34716 2.2277319,72.291493 2.5177515,62.464731 2.8002007,52.89448 3.5781541,47.798219 5.7394558,41.359815 12.101905,22.406407 28.961522,9.1098019 53.216155,3.9165626 58.547993,2.774945 59.674366,2.6945332 70.500767,2.6826157 83.375261,2.6684436 87.032794,3.0858639 98.501719,5.8782564 110.18527,8.722906 118.81582,12.148546 126.04094,16.809129 c 4.08683,2.636224 10.60324,8.971812 13.39882,13.027019 6.7525,9.795044 9.34377,18.855469 10.99949,38.459943 1.76873,20.94265 3.11185,24.647929 13.17018,36.332859 4.06828,4.72618 4.77316,5.83793 5.19312,8.19059 0.35831,2.0073 -0.86552,4.09023 -2.99771,5.10202 -0.88885,0.42178 -3.49615,0.86526 -6.16968,1.04939 -5.55564,0.38264 -7.18236,1.14453 -7.63882,3.57769 -0.42829,2.28299 0.91035,4.26749 3.88664,5.76178 2.059,1.03376 4.08745,2.69535 4.08745,3.34823 0,0.98682 -1.66172,1.65265 -3.33915,1.33796 -2.08432,-0.39102 -4.71997,0.76044 -5.08688,2.22234 -0.46328,1.84587 -0.0735,2.68141 1.9294,4.13615 2.22063,1.61286 2.36191,2.48961 0.80777,5.01291 -1.39486,2.26469 -1.46187,4.97098 -0.22109,8.92921 1.76674,5.63613 0.93061,9.70286 -2.59239,12.60872 -2.8791,2.37476 -5.7652,3.15627 -14.34743,3.88507 -4.29334,0.36458 -9.4292,1.07968 -11.41302,1.58911 -7.11609,1.82733 -13.0915,5.69137 -16.13453,10.43352 -2.65994,4.14517 -2.88241,5.45606 -3.16386,18.64322 l -0.25687,12.03526 -44.31759,0.11577 -44.31759,0.11576 z m 29.676191,-80.47675 c 4.680517,-1.6695 7.098023,-4.46841 11.397917,-13.19612 4.409524,-8.95023 7.702788,-12.035261 12.847639,-12.035261 1.998416,0 2.760271,0.303338 5.874237,2.338861 7.177824,4.69196 9.303419,4.77672 15.113379,0.60268 1.426051,-1.02451 3.42726,-1.849394 6.13332,-2.528091 5.77331,-1.447987 7.41169,-2.809725 8.97652,-7.460798 1.92633,-5.725577 3.89405,-6.645938 11.61904,-5.434587 6.79181,1.06502 9.63579,0.312185 13.03522,-3.450582 2.11884,-2.345304 5.41648,-9.168837 6.35459,-13.149061 1.4696,-6.235172 0.98714,-8.922101 -3.77296,-21.012667 -3.94634,-10.023626 -4.76355,-11.424409 -8.58402,-14.713843 -1.68307,-1.449128 -4.89947,-4.495558 -7.14757,-6.769844 -5.12756,-5.18729 -6.45149,-6.043765 -13.17711,-8.52448 C 101.1631,14.822754 98.097484,13.519252 90.908284,9.9512373 82.462597,5.7596255 81.677898,5.6762411 76.539974,8.4244166 c -3.52535,1.8856384 -3.568981,1.8954514 -9.672493,2.1753264 -4.942849,0.226654 -6.560469,0.475696 -8.346166,1.284942 -2.618559,1.186687 -3.469061,1.225303 -6.18224,0.280697 -3.557954,-1.238716 -5.927871,-0.441332 -11.502712,3.870206 -0.953436,0.73738 -3.032425,1.772939 -4.619975,2.301242 -3.702538,1.232125 -6.420094,3.620452 -9.393144,8.255174 -1.69748,2.646221 -2.985572,4.061706 -4.862385,5.343275 -2.840281,1.939467 -3.820271,2.936133 -5.839972,5.93935 -0.758639,1.128066 -2.435594,3.17179 -3.726568,4.541607 -5.8678436,6.226209 -8.7058656,17.734333 -7.169643,29.072755 1.0956054,8.08635 2.8175181,10.235352 7.82476,9.765564 3.925716,-0.368325 4.175827,-0.09509 3.503239,3.827144 -1.212576,7.071205 -0.358782,14.892584 2.241528,20.534031 1.857193,4.02923 4.724793,6.68319 10.413359,9.63755 2.353508,1.22229 5.403154,3.07967 6.77699,4.12749 3.472017,2.64812 4.742759,3.43123 6.702995,4.13085 2.191315,0.78209 6.669772,0.77727 8.875631,-0.01 z"
     id="path861"
     inkscape:connector-curvature="0" />
</svg>
