<?xml version="1.0" encoding="UTF-8" standalone="no"?>
<!-- Created with Inkscape (http://www.inkscape.org/) -->

<svg
   xmlns:dc="http://purl.org/dc/elements/1.1/"
   xmlns:cc="http://creativecommons.org/ns#"
   xmlns:rdf="http://www.w3.org/1999/02/22-rdf-syntax-ns#"
   xmlns:svg="http://www.w3.org/2000/svg"
   xmlns="http://www.w3.org/2000/svg"
   xmlns:xlink="http://www.w3.org/1999/xlink"
   xmlns:sodipodi="http://sodipodi.sourceforge.net/DTD/sodipodi-0.dtd"
   xmlns:inkscape="http://www.inkscape.org/namespaces/inkscape"
   version="1.1"
   id="svg2"
   xml:space="preserve"
   width="666.66669"
   height="703.73334"
   viewBox="0 0 666.66669 703.73334"
   sodipodi:docname="logo.svg"
   inkscape:version="0.92.2 (unknown)"><metadata
     id="metadata8"><rdf:RDF><cc:Work
         rdf:about=""><dc:format>image/svg+xml</dc:format><dc:type
           rdf:resource="http://purl.org/dc/dcmitype/StillImage" /><dc:title /></cc:Work></rdf:RDF></metadata><defs
     id="defs6"><linearGradient
       inkscape:collect="always"
       id="linearGradient985"><stop
         style="stop-color:#000000;stop-opacity:1;"
         offset="0"
         id="stop981" /><stop
         style="stop-color:#000000;stop-opacity:0;"
         offset="1"
         id="stop983" /></linearGradient><clipPath
       clipPathUnits="userSpaceOnUse"
       id="clipPath22"><path
         d="M 4448.8,2500 C 4448.8,1423.71 3576.29,551.199 2500,551.199 1423.71,551.199 551.199,1423.71 551.199,2500 c 0,1076.29 872.511,1948.79 1948.801,1948.79 1076.29,0 1948.8,-872.5 1948.8,-1948.79 z"
         id="path20"
         inkscape:connector-curvature="0" /></clipPath><linearGradient
       inkscape:collect="always"
       xlink:href="#linearGradient985"
       id="linearGradient987"
       x1="4274.5898"
       y1="2488.4199"
       x2="383.7998"
       y2="2109.9944"
       gradientUnits="userSpaceOnUse" /><linearGradient
       inkscape:collect="always"
       xlink:href="#linearGradient985"
       id="linearGradient1037"
       x1="4274.5898"
       y1="2488.4199"
       x2="383.7998"
       y2="2109.9944"
       gradientUnits="userSpaceOnUse" /></defs><sodipodi:namedview
     pagecolor="#ffffff"
     bordercolor="#666666"
     borderopacity="1"
     objecttolerance="10"
     gridtolerance="10"
     guidetolerance="10"
     inkscape:pageopacity="0"
     inkscape:pageshadow="2"
     inkscape:window-width="1366"
     inkscape:window-height="715"
     id="namedview4"
     showgrid="false"
     inkscape:zoom="0.50000001"
     inkscape:cx="148.28235"
     inkscape:cy="348.80828"
     inkscape:window-x="0"
     inkscape:window-y="0"
     inkscape:window-maximized="1"
     inkscape:current-layer="g18" /><g
     id="g10"
     inkscape:groupmode="layer"
     inkscape:label="ink_ext_XXXXXX"
     transform="matrix(1.3333333,0,0,-1.3333333,0,703.73333)"><g
       id="g12"
       transform="scale(0.1)"><g
         id="g16"
         transform="translate(-33.546611,749.20765)"><g
           id="g18"
           clip-path="url(#clipPath22)"><path
             d="M 4448.8,2500 C 4448.8,1423.71 3576.29,551.199 2500,551.199 1423.71,551.199 551.199,1423.71 551.199,2500 c 0,1076.29 872.511,1948.79 1948.801,1948.79 1076.29,0 1948.8,-872.5 1948.8,-1948.79"
             style="fill:url(#linearGradient1037);fill-opacity:1;fill-rule:nonzero;stroke:url(#linearGradient987);opacity:1"
             id="path24"
             inkscape:connector-curvature="0" /><path
             d="m 3399.69,2676.94 c 0,-0.35 -0.09,-0.95 -0.35,-1.73 -0.43,-2.33 -1.29,-4.66 -2.5,-6.99 l -0.95,-1.81 -129.42,-253.13 c -5.17,-3.45 -9.4,-6.21 -12.76,-8.28 -1.3,-0.78 -2.42,-1.47 -3.46,-2.07 -0.6,-0.36 -1.21,-0.7 -1.71,-0.95 -1.3,-0.69 -2.68,-1.39 -4.07,-2.16 -9.92,-4.83 -23.11,-9.49 -39.26,-13.81 -2.58,-0.68 -5.25,-1.37 -8.01,-1.98 -2.59,-0.61 -5.27,-1.21 -7.94,-1.82 -8.11,-1.8 -16.65,-3.44 -25.72,-4.91 66.44,84.81 131.4,183.77 159.97,256.76 0,0 0,0.08 0.08,0.17 8.02,20.62 13.2,39.17 14.66,54.7 0.78,8.2 17.43,16.56 33.31,16.56 6.82,0 13.11,-1.89 18.03,-5.26 2.85,-1.98 5.26,-4.49 7.07,-7.42 2.94,-4.74 3.89,-10.26 3.03,-15.87"
             style="fill:#efb60d;fill-opacity:1;fill-rule:nonzero;stroke:none"
             id="path26"
             inkscape:connector-curvature="0" /><path
             d="m 3520.21,2630.95 -85.93,-97.66 c -38.05,-27.96 -84.98,-62.12 -122.77,-88.96 -0.08,0 -0.08,0 -0.08,0 l 2.41,4.75 c 0,0 0,0.09 0.09,0.09 l 36.67,71.87 0.16,0.26 c 5.7,6.89 11.31,13.71 16.74,20.44 43.14,52.8 80.5,99.99 105.35,131.66 8.71,11.22 32,23.9 54.95,16.48 0.43,-0.09 0.78,-0.18 1.21,-0.35 1.73,-0.51 3.2,-1.98 4.14,-3.71 0.61,-1.2 1.04,-2.59 1.13,-4.05 0.34,-12.6 -1.04,-35.98 -14.07,-50.82"
             style="fill:#efb60d;fill-opacity:1;fill-rule:nonzero;stroke:none"
             id="path28"
             inkscape:connector-curvature="0" /><path
             d="m 3124.3,2582.2 c 0,-1.03 0,-2.07 -0.27,-3.45 l -34.08,-210.08 c -1.46,-0.08 -2.93,-0.26 -4.39,-0.26 -3.11,-0.26 -6.3,-0.51 -9.5,-0.6 -4.31,-0.25 -8.62,-0.52 -12.93,-0.69 -7.17,-0.35 -14.33,-0.6 -21.4,-0.78 -3.28,-0.08 -6.56,-0.17 -9.76,-0.17 -2.15,-0.09 -4.22,-0.09 -6.29,-0.09 v 0.09 l 48.92,187.39 8.8,33.74 c 2.41,9.14 10.69,15.52 20.18,15.52 6.64,0 12.51,-3.1 16.31,-7.93 2.77,-3.45 4.41,-7.94 4.41,-12.69"
             style="fill:#efb60d;fill-opacity:1;fill-rule:nonzero;stroke:none"
             id="path30"
             inkscape:connector-curvature="0" /><path
             d="m 3583.02,2559.86 c 0,-1.21 -0.08,-2.33 -0.26,-3.45 -0.86,-6.64 -4.22,-12.51 -9.58,-16.74 l -349.16,-274.35 c -23.02,-13.38 -342.42,-202.49 -381.59,-367.88 -2.5,-10.79 -3.89,-21.57 -3.89,-32.1 0,-160.47 103.28,-1338.141 116.14,-1484.199 L 2733.9,364.828 2601.81,355.07 v 1837.51 c 0,4.66 0.69,9.23 1.98,13.64 1.98,6.73 5.52,12.94 10.26,18.11 26.5,28.56 58.07,70.06 58.07,105.34 0,14.07 -3.88,52.72 -8.71,101.56 -8.28,82.73 -24.86,248.12 -17.35,289.53 v 0.09 c 0.52,2.42 1.04,4.31 1.65,5.87 3.62,1.64 7.07,3.88 10.43,5.95 9.07,5.95 13.73,8.37 19.24,6.04 20.28,-8.11 55.74,-66.43 110.95,-292.65 2.76,-11.21 5.53,-22.77 8.37,-34.85 l 1.39,-5.78 5.26,-2.77 c 4.23,-2.23 100.08,-51.68 189.2,-60.91 1.73,-0.17 3.45,-0.34 5.09,-0.43 3.54,-0.35 7.08,-0.6 10.52,-0.78 4.06,-0.25 8.2,-0.34 12.17,-0.34 20.79,0 41.93,0.7 62.89,2.07 6.3,0.43 12.69,0.95 18.99,1.47 l 1.12,0.08 8.89,0.79 c 1.98,0.07 4.05,0.34 6.12,0.51 5.44,0.6 10.96,1.2 16.31,1.9 29.32,3.53 55.21,8.28 77.13,13.97 12.85,3.37 24.07,7.08 33.64,10.96 5.87,2.33 11.04,4.83 15.62,7.33 0.6,0.35 1.29,0.7 1.99,1.13 1.37,0.77 2.84,1.64 4.57,2.76 2.5,1.55 5.43,3.36 8.8,5.61 2.15,1.46 4.57,3.1 7.24,4.83 0.95,0.61 1.91,1.29 2.85,1.89 39.6,26.75 110.78,78.52 164.18,117.69 32.09,23.55 61.61,45.38 82.22,60.64 l 9.24,6.82 c 8.28,6.13 19.49,6.65 28.47,1.29 7.76,-4.65 12.42,-12.85 12.42,-22.08"
             style="fill:#efb60d;fill-opacity:1;fill-rule:nonzero;stroke:none"
             id="path32"
             inkscape:connector-curvature="0" /><path
             d="m 2733.9,364.828 -132.09,-9.758 v 1837.51 c 0,4.66 0.69,9.23 1.98,13.64 l 10.26,-11.65 119.85,-1829.742"
             style="fill:#c8841b;fill-opacity:1;fill-rule:nonzero;stroke:none"
             id="path34"
             inkscape:connector-curvature="0" /><path
             d="m 2788.33,2446.06 c -0.43,-27.34 -0.77,-42.01 -0.77,-32.87 0,29.34 -96.37,222.25 -141.5,307.57 v 0.09 c 0.52,2.42 1.04,4.31 1.65,5.87 3.62,1.64 7.07,3.88 10.43,5.95 9.07,5.95 13.73,8.37 19.24,6.04 20.28,-8.11 55.74,-66.43 110.95,-292.65"
             style="fill:#f3d75e;fill-opacity:1;fill-rule:nonzero;stroke:none"
             id="path36"
             inkscape:connector-curvature="0" /><path
             d="m 3582.76,2556.41 c -0.86,-6.64 -4.22,-12.51 -9.58,-16.74 l -349.16,-274.35 c -23.02,-13.38 -342.42,-202.49 -381.59,-367.88 -2.5,-0.78 -3.8,-1.21 -3.8,-1.21 0,0 36.67,122.94 53.93,157.45 17.25,34.51 685.89,502.56 685.89,502.56 l 4.31,0.17"
             style="fill:#c8841b;fill-opacity:1;fill-rule:nonzero;stroke:none"
             id="path38"
             inkscape:connector-curvature="0" /><path
             d="m 3527.8,2689.88 c -0.86,-0.52 -1.89,-0.69 -3.28,-0.35 -16.13,3.88 -165.64,-163.92 -173.92,-172.12 l 16.9,24.33 c 43.14,52.8 80.5,99.99 105.35,131.66 8.71,11.22 32,23.9 54.95,16.48"
             style="fill:#f3d75e;fill-opacity:1;fill-rule:nonzero;stroke:none"
             id="path40"
             inkscape:connector-curvature="0" /><path
             d="m 3389.59,2700.23 c -26.14,0 -63.67,-62.12 -66,-66 8.02,20.62 13.2,39.17 14.66,54.7 0.78,8.2 17.43,16.56 33.31,16.56 6.82,0 13.11,-1.89 18.03,-5.26"
             style="fill:#f3d75e;fill-opacity:1;fill-rule:nonzero;stroke:none"
             id="path42"
             inkscape:connector-curvature="0" /><path
             d="m 3119.89,2594.89 c -13.54,13.46 -44.95,-41.85 -44.95,-41.85 0,0 -0.17,0.17 -0.34,0.52 l 8.8,33.74 c 2.41,9.14 10.69,15.52 20.18,15.52 6.64,0 12.51,-3.1 16.31,-7.93"
             style="fill:#f3d75e;fill-opacity:1;fill-rule:nonzero;stroke:none"
             id="path44"
             inkscape:connector-curvature="0" /><path
             d="m 3520.21,2630.95 -85.93,-97.66 c -38.05,-27.96 -84.98,-62.12 -122.77,-88.96 -0.08,0 -0.08,0 -0.08,0 l 2.41,4.75 c 0,0 0,0.09 0.09,0.09 24.07,18.46 217.24,168.75 219.22,236.48 0,0.09 0,0.09 0,0.17 0.61,-1.2 1.04,-2.59 1.13,-4.05 0.34,-12.6 -1.04,-35.98 -14.07,-50.82"
             style="fill:#c8841b;fill-opacity:1;fill-rule:nonzero;stroke:none"
             id="path46"
             inkscape:connector-curvature="0" /><path
             d="m 3399.69,2676.94 c 0,-0.35 -0.09,-0.95 -0.35,-1.73 -0.6,-1.81 -1.72,-4.83 -3.45,-8.8 l -129.42,-253.13 c -5.17,-3.45 -9.4,-6.21 -12.76,-8.28 -1.3,-0.78 -2.42,-1.47 -3.46,-2.07 -0.6,-0.36 -1.21,-0.7 -1.71,-0.95 -1.3,-0.69 -2.68,-1.39 -4.07,-2.16 l 155.22,277.12"
             style="fill:#c8841b;fill-opacity:1;fill-rule:nonzero;stroke:none"
             id="path48"
             inkscape:connector-curvature="0" /><path
             d="m 3124.03,2578.75 -34.08,-210.08 c -1.46,-0.08 -2.93,-0.26 -4.39,-0.26 -3.11,-0.26 -6.3,-0.51 -9.5,-0.6 -4.31,-0.25 -8.62,-0.52 -12.93,-0.69 l 60.9,211.63"
             style="fill:#c8841b;fill-opacity:1;fill-rule:nonzero;stroke:none"
             id="path50"
             inkscape:connector-curvature="0" /><path
             d="m 1583.06,2676.94 c 0,-0.35 0.08,-0.95 0.34,-1.73 0.44,-2.33 1.3,-4.66 2.51,-6.99 l 0.95,-1.81 129.41,-253.13 c 5.18,-3.45 9.4,-6.21 12.77,-8.28 1.29,-0.78 2.42,-1.47 3.45,-2.07 0.6,-0.36 1.21,-0.7 1.72,-0.95 1.3,-0.69 2.68,-1.39 4.06,-2.16 9.92,-4.83 23.12,-9.49 39.25,-13.81 2.59,-0.68 5.27,-1.37 8.03,-1.98 2.59,-0.61 5.26,-1.21 7.94,-1.82 8.11,-1.8 16.65,-3.44 25.71,-4.91 -66.44,84.81 -131.4,183.77 -159.96,256.76 0,0 0,0.08 -0.08,0.17 -8.03,20.62 -13.2,39.17 -14.67,54.7 -0.78,8.2 -17.43,16.56 -33.3,16.56 -6.82,0 -13.12,-1.89 -18.04,-5.26 -2.84,-1.98 -5.26,-4.49 -7.07,-7.42 -2.94,-4.74 -3.88,-10.26 -3.02,-15.87"
             style="fill:#efb60d;fill-opacity:1;fill-rule:nonzero;stroke:none"
             id="path52"
             inkscape:connector-curvature="0" /><path
             d="m 1462.53,2630.95 85.93,-97.66 c 38.05,-27.96 84.99,-62.12 122.78,-88.96 0.08,0 0.08,0 0.08,0 l -2.41,4.75 c 0,0 0,0.09 -0.09,0.09 l -36.67,71.87 -0.17,0.26 c -5.7,6.89 -11.31,13.71 -16.74,20.44 -43.14,52.8 -80.49,99.99 -105.34,131.66 -8.72,11.22 -32.01,23.9 -54.96,16.48 -0.43,-0.09 -0.77,-0.18 -1.21,-0.35 -1.72,-0.51 -3.19,-1.98 -4.14,-3.71 -0.6,-1.2 -1.04,-2.59 -1.12,-4.05 -0.34,-12.6 1.04,-35.98 14.06,-50.82"
             style="fill:#efb60d;fill-opacity:1;fill-rule:nonzero;stroke:none"
             id="path54"
             inkscape:connector-curvature="0" /><path
             d="m 1858.45,2582.2 c 0,-1.03 0,-2.07 0.26,-3.45 l 34.08,-210.08 c 1.47,-0.08 2.93,-0.26 4.4,-0.26 3.11,-0.26 6.3,-0.51 9.49,-0.6 4.32,-0.25 8.63,-0.52 12.94,-0.69 7.16,-0.35 14.33,-0.6 21.4,-0.78 3.28,-0.08 6.55,-0.17 9.75,-0.17 2.15,-0.09 4.23,-0.09 6.3,-0.09 v 0.09 l -48.92,187.39 -8.8,33.74 c -2.42,9.14 -10.7,15.52 -20.19,15.52 -6.65,0 -12.51,-3.1 -16.31,-7.93 -2.76,-3.45 -4.4,-7.94 -4.4,-12.69"
             style="fill:#efb60d;fill-opacity:1;fill-rule:nonzero;stroke:none"
             id="path56"
             inkscape:connector-curvature="0" /><path
             d="m 1399.72,2559.86 c 0,-1.21 0.09,-2.33 0.26,-3.45 0.86,-6.64 4.23,-12.51 9.58,-16.74 l 349.16,-274.35 c 23.03,-13.38 342.43,-202.49 381.6,-367.88 2.5,-10.79 3.88,-21.57 3.88,-32.1 0,-160.47 -103.27,-1338.141 -116.13,-1484.199 l 220.78,-16.313 132.09,-9.758 v 1837.51 c 0,4.66 -0.69,9.23 -1.98,13.64 -1.99,6.73 -5.53,12.94 -10.27,18.11 -26.49,28.56 -58.06,70.06 -58.06,105.34 0,14.07 3.88,52.72 8.71,101.56 8.28,82.73 24.84,248.12 17.34,289.53 v 0.09 c -0.52,2.42 -1.04,4.31 -1.64,5.87 -3.62,1.64 -7.08,3.88 -10.44,5.95 -9.06,5.95 -13.72,8.37 -19.24,6.04 -20.27,-8.11 -55.73,-66.43 -110.95,-292.65 -2.76,-11.21 -5.52,-22.77 -8.37,-34.85 l -1.38,-5.78 -5.26,-2.77 c -4.23,-2.23 -100.08,-51.68 -189.2,-60.91 -1.73,-0.17 -3.46,-0.34 -5.09,-0.43 -3.54,-0.35 -7.08,-0.6 -10.53,-0.78 -4.05,-0.25 -8.2,-0.34 -12.16,-0.34 -20.8,0 -41.94,0.7 -62.9,2.07 -6.3,0.43 -12.68,0.95 -18.98,1.47 l -1.12,0.08 -8.89,0.79 c -1.99,0.07 -4.06,0.34 -6.13,0.51 -5.43,0.6 -10.95,1.2 -16.3,1.9 -29.34,3.53 -55.22,8.28 -77.13,13.97 -12.85,3.37 -24.07,7.08 -33.65,10.96 -5.86,2.33 -11.04,4.83 -15.62,7.33 -0.6,0.35 -1.29,0.7 -1.98,1.13 -1.38,0.77 -2.84,1.64 -4.57,2.76 -2.5,1.55 -5.44,3.36 -8.8,5.61 -2.16,1.46 -4.57,3.1 -7.25,4.83 -0.95,0.61 -1.9,1.29 -2.85,1.89 -39.59,26.75 -110.78,78.52 -164.18,117.69 -32.09,23.55 -61.6,45.38 -82.22,60.64 l -9.23,6.82 c -8.29,6.13 -19.5,6.65 -28.47,1.29 -7.77,-4.65 -12.43,-12.85 -12.43,-22.08"
             style="fill:#efb60d;fill-opacity:1;fill-rule:nonzero;stroke:none"
             id="path58"
             inkscape:connector-curvature="0" /><path
             d="m 2248.85,364.828 132.09,-9.758 v 1837.51 c 0,4.66 -0.69,9.23 -1.98,13.64 l -10.27,-11.65 -119.84,-1829.742"
             style="fill:#c8841b;fill-opacity:1;fill-rule:nonzero;stroke:none"
             id="path60"
             inkscape:connector-curvature="0" /><path
             d="m 2194.41,2446.06 c 0.43,-27.34 0.78,-42.01 0.78,-32.87 0,29.34 96.37,222.25 141.49,307.57 v 0.09 c -0.52,2.42 -1.04,4.31 -1.64,5.87 -3.62,1.64 -7.08,3.88 -10.44,5.95 -9.06,5.95 -13.72,8.37 -19.24,6.04 -20.27,-8.11 -55.73,-66.43 -110.95,-292.65"
             style="fill:#f3d75e;fill-opacity:1;fill-rule:nonzero;stroke:none"
             id="path62"
             inkscape:connector-curvature="0" /><path
             d="m 1399.98,2556.41 c 0.86,-6.64 4.23,-12.51 9.58,-16.74 l 349.16,-274.35 c 23.03,-13.38 342.43,-202.49 381.6,-367.88 2.5,-0.78 3.79,-1.21 3.79,-1.21 0,0 -36.66,122.94 -53.92,157.45 -17.26,34.51 -685.89,502.56 -685.89,502.56 l -4.32,0.17"
             style="fill:#c8841b;fill-opacity:1;fill-rule:nonzero;stroke:none"
             id="path64"
             inkscape:connector-curvature="0" /><path
             d="m 1454.94,2689.88 c 0.86,-0.52 1.9,-0.69 3.28,-0.35 16.13,3.88 165.65,-163.92 173.93,-172.12 l -16.91,24.33 c -43.14,52.8 -80.49,99.99 -105.34,131.66 -8.72,11.22 -32.01,23.9 -54.96,16.48"
             style="fill:#f3d75e;fill-opacity:1;fill-rule:nonzero;stroke:none"
             id="path66"
             inkscape:connector-curvature="0" /><path
             d="m 1593.15,2700.23 c 26.15,0 63.68,-62.12 66.01,-66 -8.03,20.62 -13.2,39.17 -14.67,54.7 -0.78,8.2 -17.43,16.56 -33.3,16.56 -6.82,0 -13.12,-1.89 -18.04,-5.26"
             style="fill:#f3d75e;fill-opacity:1;fill-rule:nonzero;stroke:none"
             id="path68"
             inkscape:connector-curvature="0" /><path
             d="m 1862.85,2594.89 c 13.55,13.46 44.95,-41.85 44.95,-41.85 0,0 0.17,0.17 0.35,0.52 l -8.8,33.74 c -2.42,9.14 -10.7,15.52 -20.19,15.52 -6.65,0 -12.51,-3.1 -16.31,-7.93"
             style="fill:#f3d75e;fill-opacity:1;fill-rule:nonzero;stroke:none"
             id="path70"
             inkscape:connector-curvature="0" /><path
             d="m 1462.53,2630.95 85.93,-97.66 c 38.05,-27.96 84.99,-62.12 122.78,-88.96 0.08,0 0.08,0 0.08,0 l -2.41,4.75 c 0,0 0,0.09 -0.09,0.09 -24.07,18.46 -217.24,168.75 -219.23,236.48 0,0.09 0,0.09 0,0.17 -0.6,-1.2 -1.04,-2.59 -1.12,-4.05 -0.34,-12.6 1.04,-35.98 14.06,-50.82"
             style="fill:#c8841b;fill-opacity:1;fill-rule:nonzero;stroke:none"
             id="path72"
             inkscape:connector-curvature="0" /><path
             d="m 1583.06,2676.94 c 0,-0.35 0.08,-0.95 0.34,-1.73 0.61,-1.81 1.73,-4.83 3.46,-8.8 l 129.41,-253.13 c 5.18,-3.45 9.4,-6.21 12.77,-8.28 1.29,-0.78 2.42,-1.47 3.45,-2.07 0.6,-0.36 1.21,-0.7 1.72,-0.95 1.3,-0.69 2.68,-1.39 4.06,-2.16 l -155.21,277.12"
             style="fill:#c8841b;fill-opacity:1;fill-rule:nonzero;stroke:none"
             id="path74"
             inkscape:connector-curvature="0" /><path
             d="m 1858.71,2578.75 34.08,-210.08 c 1.47,-0.08 2.93,-0.26 4.4,-0.26 3.11,-0.26 6.3,-0.51 9.49,-0.6 4.32,-0.25 8.63,-0.52 12.94,-0.69 l -60.91,211.63"
             style="fill:#c8841b;fill-opacity:1;fill-rule:nonzero;stroke:none"
             id="path76"
             inkscape:connector-curvature="0" /><path
             d="m 2828.19,3015.62 c 0,-82.86 -50.64,-155.9 -88.09,-198.65 -2.87,-3.3 -5.67,-6.39 -8.4,-9.33 0,-0.07 -0.07,-0.07 -0.07,-0.07 -2.66,-2.87 -5.23,-5.6 -7.67,-8.11 0.06,0.94 0.14,1.94 0.14,2.95 1.14,20.44 1.94,41.96 1.94,64.2 0,131.72 -25.54,366.16 -25.54,366.16 0,0 -25.54,-234.44 -25.54,-366.16 0,-23.31 0.78,-45.84 2.08,-67.15 -9.9,10.12 -21.88,23.46 -34.3,39.46 -33.85,43.62 -70.01,106.68 -70.01,176.7 0,129.05 122.67,356.9 127.62,366.01 0.08,0.21 0.15,0.29 0.15,0.29 0,0 0,-0.08 0.07,-0.22 4.45,-8.11 127.62,-236.74 127.62,-366.08"
             style="fill:#3e7f85;fill-opacity:1;fill-rule:nonzero;stroke:none"
             id="path78"
             inkscape:connector-curvature="0" /><path
             d="m 2724.1,2802.41 c 2.87,2.65 6.39,5.88 10.55,9.68 -0.87,-1.58 -1.87,-3.08 -2.95,-4.45 0,-0.07 -0.07,-0.07 -0.07,-0.07 -2.29,-3.23 -4.87,-5.95 -7.67,-8.11 -12.06,-9.32 -10.77,-7.24 0.14,2.95"
             style="fill:#3e7f85;fill-opacity:1;fill-rule:nonzero;stroke:none"
             id="path80"
             inkscape:connector-curvature="0" /><path
             d="m 3574,3163.99 c -25.9,-78.71 -96.84,-132.24 -145.78,-161.14 -3.76,-2.24 -7.38,-4.3 -10.89,-6.24 -0.03,-0.07 -0.09,-0.04 -0.09,-0.04 -3.42,-1.9 -6.72,-3.68 -9.83,-5.3 0.36,0.86 0.74,1.79 1.06,2.75 7.48,19.06 14.96,39.25 21.91,60.38 41.18,125.11 90.24,355.78 90.24,355.78 0,0 -97.57,-214.7 -138.75,-339.81 -7.29,-22.15 -13.59,-43.79 -19.02,-64.44 -6.24,12.71 -13.46,29.13 -20.23,48.21 -18.53,52.01 -33.16,123.21 -11.26,189.72 40.35,122.59 228.11,300.65 235.66,307.76 0.14,0.18 0.23,0.23 0.23,0.23 0,0 -0.02,-0.07 0,-0.23 1.69,-9.09 47.2,-264.77 6.75,-387.63"
             style="fill:#3e7f85;fill-opacity:1;fill-rule:nonzero;stroke:none"
             id="path82"
             inkscape:connector-curvature="0" /><path
             d="m 3408.47,2994.02 c 3.55,1.62 7.91,3.58 13.04,5.9 -1.3,-1.23 -2.73,-2.35 -4.18,-3.31 -0.03,-0.07 -0.09,-0.04 -0.09,-0.04 -3.19,-2.35 -6.5,-4.13 -9.83,-5.3 -14.36,-5.09 -12.49,-3.52 1.06,2.75"
             style="fill:#3e7f85;fill-opacity:1;fill-rule:nonzero;stroke:none"
             id="path84"
             inkscape:connector-curvature="0" /><path
             d="m 3879.79,2703.76 c -67.76,-47.71 -156.63,-48.33 -213.15,-42.33 -4.35,0.45 -8.49,0.96 -12.46,1.5 -0.06,-0.05 -0.1,0.01 -0.1,0.01 -3.87,0.52 -7.59,1.06 -11.04,1.61 0.8,0.48 1.67,1 2.49,1.58 17.37,10.83 35.43,22.57 53.61,35.38 107.7,75.82 284.69,231.67 284.69,231.67 0,0 -206.4,-114.08 -314.09,-189.91 -19.07,-13.42 -37.03,-27.03 -53.71,-40.35 2.56,13.91 6.58,31.39 12.51,50.75 16.18,52.8 46.93,118.66 104.17,158.97 105.53,74.3 362.46,105.15 372.76,106.35 0.21,0.07 0.31,0.05 0.31,0.05 0,0 -0.06,-0.04 -0.14,-0.18 -4.06,-8.31 -120.09,-240.65 -225.85,-315.1"
             style="fill:#3e7f85;fill-opacity:1;fill-rule:nonzero;stroke:none"
             id="path86"
             inkscape:connector-curvature="0" /><path
             d="m 3645.53,2666.13 c 3.82,-0.82 8.48,-1.84 13.98,-3.05 -1.79,-0.2 -3.59,-0.25 -5.33,-0.15 -0.06,-0.05 -0.1,0.01 -0.1,0.01 -3.95,0.02 -7.67,0.56 -11.04,1.61 -14.56,4.49 -12.12,4.63 2.49,1.58"
             style="fill:#3e7f85;fill-opacity:1;fill-rule:nonzero;stroke:none"
             id="path88"
             inkscape:connector-curvature="0" /><path
             d="m 3048.7,1874.72 c -35.27,16.73 -51.86,62.01 -59.35,93.24 -0.59,2.4 -1.1,4.7 -1.58,6.95 -0.03,0.01 -0.01,0.06 -0.01,0.06 -0.46,2.18 -0.88,4.28 -1.25,6.26 0.38,-0.24 0.78,-0.48 1.21,-0.68 8.37,-4.82 17.31,-9.64 26.78,-14.13 56.07,-26.58 163.16,-58.5 163.16,-58.5 0,0 -92.48,62.73 -148.55,89.31 -9.92,4.71 -19.73,8.78 -29.18,12.3 7.14,3.93 16.25,8.46 26.6,12.72 28.26,11.62 65.44,20.71 95.25,6.57 54.93,-26.05 116.82,-146.03 119.28,-150.85 0.07,-0.09 0.08,-0.15 0.08,-0.15 0,0 -0.03,0.01 -0.1,0 -4.73,-1.05 -137.28,-29.2 -192.34,-3.1"
             style="fill:#3e7f85;fill-opacity:1;fill-rule:nonzero;stroke:none"
             id="path90"
             inkscape:connector-curvature="0" /><path
             d="m 2987.72,1980.55 c 0.32,-2.27 0.68,-5.04 1.11,-8.32 -0.42,0.84 -0.78,1.75 -1.06,2.68 -0.03,0.01 -0.01,0.06 -0.01,0.06 -0.71,2.03 -1.13,4.14 -1.25,6.26 -0.52,9.15 -0.01,7.96 1.21,-0.68"
             style="fill:#3e7f85;fill-opacity:1;fill-rule:nonzero;stroke:none"
             id="path92"
             inkscape:connector-curvature="0" /><path
             d="m 3520.14,2088.32 c -44.93,21.16 -70.12,70.4 -82.65,103.94 -0.97,2.57 -1.85,5.05 -2.67,7.45 -0.03,0.01 -0.02,0.06 -0.02,0.06 -0.8,2.34 -1.54,4.59 -2.2,6.71 0.48,-0.28 1,-0.58 1.55,-0.84 10.75,-5.92 22.2,-11.89 34.26,-17.57 71.41,-33.64 205.8,-78.09 205.8,-78.09 0,0 -119.85,75.3 -191.27,108.94 -12.64,5.96 -25.08,11.23 -37,15.89 8.3,3.4 18.94,7.23 31.15,10.64 33.28,9.3 77.76,15.03 115.72,-2.85 69.98,-32.96 158.63,-165.24 162.15,-170.56 0.1,-0.1 0.12,-0.16 0.12,-0.16 0,0 -0.04,0.02 -0.14,0.01 -5.66,-0.61 -164.67,-16.61 -234.8,16.43"
             style="fill:#3e7f85;fill-opacity:1;fill-rule:nonzero;stroke:none"
             id="path94"
             inkscape:connector-curvature="0" /><path
             d="m 3434.15,2205.64 c 0.62,-2.41 1.37,-5.36 2.25,-8.85 -0.61,0.93 -1.15,1.92 -1.58,2.92 -0.03,0.01 -0.02,0.06 -0.02,0.06 -1.09,2.21 -1.83,4.46 -2.2,6.71 -1.63,9.66 -0.87,8.35 1.55,-0.84"
             style="fill:#3e7f85;fill-opacity:1;fill-rule:nonzero;stroke:none"
             id="path96"
             inkscape:connector-curvature="0" /><path
             d="m 3232.95,1972.91 c -44.08,43.82 -49.39,116.19 -47.32,163.75 0.14,3.66 0.36,7.15 0.59,10.52 -0.04,0.04 0.01,0.09 0.01,0.09 0.23,3.28 0.5,6.45 0.77,9.41 0.45,-0.55 0.94,-1.13 1.48,-1.66 10.11,-11.58 21.04,-23.49 32.87,-35.26 70.07,-69.67 211.7,-176.68 211.7,-176.68 0,0 -107.81,141.04 -177.87,210.71 -12.41,12.33 -24.91,23.73 -37.09,34.14 11.93,1.24 26.96,2.15 43.7,1.96 45.62,-0.52 103.11,-9.8 140.36,-46.83 68.66,-68.27 108.61,-270.5 110.17,-278.62 0.07,-0.17 0.06,-0.25 0.06,-0.25 0,0 -0.04,0.04 -0.15,0.06 -7.27,1.33 -210.47,40.23 -279.28,108.66"
             style="fill:#3e7f85;fill-opacity:1;fill-rule:nonzero;stroke:none"
             id="path98"
             inkscape:connector-curvature="0" /><path
             d="m 3188.48,2155.02 c -0.49,-3.31 -1.11,-7.37 -1.84,-12.14 -0.26,1.4 -0.4,2.87 -0.42,4.3 -0.04,0.04 0.01,0.09 0.01,0.09 -0.19,3.23 0.07,6.4 0.77,9.41 3.03,12.96 3.27,10.99 1.48,-1.66"
             style="fill:#3e7f85;fill-opacity:1;fill-rule:nonzero;stroke:none"
             id="path100"
             inkscape:connector-curvature="0" /><path
             d="m 3667.64,2316.83 c -56.19,-26.57 -120.05,-19.69 -159.64,-11 -3.05,0.66 -5.94,1.34 -8.7,2.03 -0.05,-0.02 -0.07,0.02 -0.07,0.02 -2.7,0.67 -5.27,1.34 -7.67,1.99 0.65,0.25 1.35,0.54 2.03,0.86 14.19,5.87 29.02,12.29 44.1,19.43 89.33,42.24 241.11,132.7 241.11,132.7 0,0 -166.23,-59.9 -255.56,-102.14 -15.81,-7.48 -30.87,-15.18 -44.95,-22.78 4.06,9.17 9.72,20.61 17.06,33.16 20,34.25 52.54,76.1 100.03,98.55 87.53,41.39 276.76,41.06 284.34,41.03 0.16,0.02 0.23,0 0.23,0 0,0 -0.05,-0.02 -0.13,-0.11 -4.23,-5.26 -124.46,-152.26 -212.18,-193.74"
             style="fill:#3e7f85;fill-opacity:1;fill-rule:nonzero;stroke:none"
             id="path102"
             inkscape:connector-curvature="0" /><path
             d="m 3493.59,2310.73 c 2.61,-0.87 5.8,-1.93 9.55,-3.2 -1.3,0.01 -2.61,0.12 -3.84,0.33 -0.05,-0.02 -0.07,0.02 -0.07,0.02 -2.84,0.34 -5.42,1 -7.67,1.99 -9.73,4.22 -7.96,4.11 2.03,0.86"
             style="fill:#3e7f85;fill-opacity:1;fill-rule:nonzero;stroke:none"
             id="path104"
             inkscape:connector-curvature="0" /><path
             d="m 3433.77,3649.28 c 14.52,-60.45 -5.27,-121.54 -21.88,-158.52 -1.26,-2.85 -2.52,-5.53 -3.76,-8.1 0.01,-0.06 -0.03,-0.07 -0.03,-0.07 -1.21,-2.5 -2.4,-4.88 -3.52,-7.1 -0.12,0.7 -0.25,1.44 -0.43,2.17 -2.84,15.1 -6.1,30.92 -10,47.14 -23.08,96.08 -80.59,263.15 -80.59,263.15 0,0 24.65,-174.97 47.73,-271.04 4.08,-17.01 8.53,-33.32 13.1,-48.67 -8.14,5.85 -18.19,13.73 -28.98,23.49 -29.42,26.58 -63.74,66.99 -76.01,118.07 -22.61,94.14 16.4,279.3 17.99,286.72 0.01,0.16 0.04,0.22 0.04,0.22 0,0 0.01,-0.04 0.09,-0.14 4.28,-5.23 123.59,-152.97 146.25,-247.32"
             style="fill:#3e7f85;fill-opacity:1;fill-rule:nonzero;stroke:none"
             id="path106"
             inkscape:connector-curvature="0" /><path
             d="m 3404.15,3477.66 c 1.39,2.39 3.09,5.28 5.09,8.7 -0.28,-1.29 -0.66,-2.54 -1.11,-3.7 0.01,-0.06 -0.03,-0.07 -0.03,-0.07 -0.91,-2.71 -2.1,-5.09 -3.52,-7.1 -6.12,-8.66 -5.65,-6.94 -0.43,2.17"
             style="fill:#3e7f85;fill-opacity:1;fill-rule:nonzero;stroke:none"
             id="path108"
             inkscape:connector-curvature="0" /><path
             d="m 3304.21,2791.28 c -15.41,-60.22 -61.46,-105 -93.41,-129.94 -2.45,-1.92 -4.82,-3.71 -7.12,-5.4 -0.01,-0.04 -0.06,-0.04 -0.06,-0.04 -2.23,-1.65 -4.39,-3.2 -6.42,-4.63 0.21,0.67 0.45,1.39 0.63,2.12 4.54,14.67 9.05,30.18 13.19,46.34 24.48,95.74 51.69,270.32 51.69,270.32 0,0 -59.96,-166.21 -84.44,-261.94 -4.33,-16.95 -8.02,-33.45 -11.15,-49.14 -4.46,8.97 -9.67,20.63 -14.65,34.3 -13.6,37.25 -25.06,89.01 -12.04,139.9 23.99,93.8 145,239.28 149.86,245.09 0.09,0.15 0.15,0.19 0.15,0.19 0,0 -0.01,-0.05 0.01,-0.17 1.34,-6.62 37.8,-192.99 13.76,-287"
             style="fill:#3e7f85;fill-opacity:1;fill-rule:nonzero;stroke:none"
             id="path110"
             inkscape:connector-curvature="0" /><path
             d="m 3197.83,2653.39 c 2.34,1.46 5.2,3.22 8.57,5.31 -0.85,-1.01 -1.77,-1.94 -2.72,-2.76 -0.01,-0.04 -0.06,-0.04 -0.06,-0.04 -2.07,-1.97 -4.23,-3.53 -6.42,-4.63 -9.47,-4.8 -8.24,-3.5 0.63,2.12"
             style="fill:#3e7f85;fill-opacity:1;fill-rule:nonzero;stroke:none"
             id="path112"
             inkscape:connector-curvature="0" /><path
             d="m 3079.87,3769.53 c -3.46,-62.07 -42.62,-114.75 -71.11,-145.29 -2.18,-2.36 -4.31,-4.56 -6.37,-6.65 -0.01,-0.05 -0.06,-0.05 -0.06,-0.05 -2.01,-2.05 -3.96,-3.98 -5.81,-5.77 0.09,0.7 0.19,1.44 0.23,2.2 1.67,15.27 3.13,31.36 4.07,48.01 5.51,98.66 -2.88,275.29 -2.88,275.29 0,0 -28.02,-174.59 -33.54,-273.25 -0.97,-17.47 -1.35,-34.37 -1.32,-50.38 -6.63,7.97 -14.61,18.44 -22.8,30.92 -22.31,34.02 -45.45,82.69 -42.52,135.14 5.4,96.67 102.4,262.45 106.3,269.08 0.06,0.15 0.12,0.21 0.12,0.21 0,0 -0.01,-0.06 0.04,-0.17 2.83,-6.25 81.06,-182.41 75.65,-279.29"
             style="fill:#3e7f85;fill-opacity:1;fill-rule:nonzero;stroke:none"
             id="path114"
             inkscape:connector-curvature="0" /><path
             d="m 2996.75,3613.97 c 2.16,1.87 4.79,4.15 7.92,6.83 -0.68,-1.15 -1.46,-2.23 -2.28,-3.21 -0.01,-0.05 -0.06,-0.05 -0.06,-0.05 -1.76,-2.33 -3.72,-4.27 -5.81,-5.77 -8.98,-6.5 -7.97,-5 0.23,2.2"
             style="fill:#3e7f85;fill-opacity:1;fill-rule:nonzero;stroke:none"
             id="path116"
             inkscape:connector-curvature="0" /><path
             d="m 2580.65,3261.38 c -15.41,-60.22 -61.45,-105 -93.4,-129.93 -2.46,-1.93 -4.82,-3.71 -7.12,-5.4 -0.01,-0.05 -0.06,-0.04 -0.06,-0.04 -2.23,-1.65 -4.4,-3.21 -6.43,-4.64 0.22,0.67 0.46,1.39 0.64,2.12 4.54,14.67 9.05,30.18 13.18,46.35 24.48,95.73 51.7,270.31 51.7,270.31 0,0 -59.96,-166.21 -84.44,-261.94 -4.34,-16.94 -8.02,-33.44 -11.16,-49.14 -4.46,8.97 -9.66,20.63 -14.64,34.3 -13.6,37.25 -25.06,89.01 -12.04,139.9 23.99,93.8 145,239.29 149.86,245.1 0.09,0.14 0.14,0.18 0.14,0.18 0,0 0,-0.05 0.01,-0.16 1.34,-6.63 37.81,-193 13.76,-287.01"
             style="fill:#3e7f85;fill-opacity:1;fill-rule:nonzero;stroke:none"
             id="path118"
             inkscape:connector-curvature="0" /><path
             d="m 2474.28,3123.49 c 2.34,1.46 5.19,3.23 8.56,5.31 -0.84,-1.01 -1.77,-1.94 -2.71,-2.75 -0.01,-0.05 -0.06,-0.04 -0.06,-0.04 -2.07,-1.97 -4.24,-3.53 -6.43,-4.64 -9.46,-4.8 -8.24,-3.5 0.64,2.12"
             style="fill:#3e7f85;fill-opacity:1;fill-rule:nonzero;stroke:none"
             id="path120"
             inkscape:connector-curvature="0" /><path
             d="m 3054.01,2660.41 c -10.95,-61.18 -64.96,-107.18 -103.41,-132.88 -2.95,-1.99 -5.81,-3.83 -8.59,-5.58 -0.01,-0.05 -0.07,-0.04 -0.07,-0.04 -2.7,-1.7 -5.32,-3.31 -7.79,-4.78 0.19,0.68 0.38,1.41 0.51,2.15 3.71,14.92 7.24,30.69 10.18,47.11 17.42,97.27 26.03,274.4 26.03,274.4 0,0 -53.35,-169.13 -70.76,-266.39 -3.08,-17.22 -5.37,-33.98 -7.05,-49.92 -7.34,9.03 -16.07,20.76 -24.83,34.52 -23.88,37.52 -47.21,89.75 -37.97,141.46 17.06,95.3 154.62,244.33 160.16,250.28 0.1,0.15 0.17,0.19 0.17,0.19 0,0 -0.01,-0.05 0.03,-0.17 2.83,-6.68 80.48,-194.83 63.39,-290.35"
             style="fill:#3e7f85;fill-opacity:1;fill-rule:nonzero;stroke:none"
             id="path122"
             inkscape:connector-curvature="0" /><path
             d="m 2934.66,2519.28 c 2.87,1.51 6.38,3.34 10.52,5.5 -0.96,-1.03 -2.05,-1.99 -3.17,-2.83 -0.01,-0.05 -0.07,-0.04 -0.07,-0.04 -2.44,-2.02 -5.06,-3.63 -7.79,-4.78 -11.79,-5 -10.38,-3.67 0.51,2.15"
             style="fill:#3e7f85;fill-opacity:1;fill-rule:nonzero;stroke:none"
             id="path124"
             inkscape:connector-curvature="0" /><path
             d="m 3253.76,3389.86 c 3.61,-62.06 -38.19,-119.37 -69.59,-153.33 -2.4,-2.62 -4.76,-5.07 -7.05,-7.42 0,-0.05 -0.06,-0.06 -0.06,-0.06 -2.24,-2.28 -4.4,-4.46 -6.46,-6.47 0.02,0.71 0.03,1.46 0,2.22 0.12,15.37 -0.11,31.53 -1.09,48.18 -5.74,98.65 -38.64,272.92 -38.64,272.92 0,0 -12.47,-176.91 -6.73,-275.56 1.02,-17.46 2.71,-34.29 4.78,-50.18 -9.23,7.06 -20.46,16.44 -32.18,27.78 -31.97,30.91 -66.85,76.27 -69.89,128.71 -5.63,96.66 93.4,273.64 97.4,280.72 0.06,0.17 0.12,0.22 0.12,0.22 0,0 0,-0.05 0.06,-0.15 4.31,-5.85 123.7,-170.71 129.33,-267.58"
             style="fill:#3e7f85;fill-opacity:1;fill-rule:nonzero;stroke:none"
             id="path126"
             inkscape:connector-curvature="0" /><path
             d="m 3170.6,3224.8 c 2.43,2.13 5.41,4.73 8.94,7.79 -0.69,-1.22 -1.52,-2.4 -2.42,-3.48 0,-0.05 -0.06,-0.06 -0.06,-0.06 -1.9,-2.53 -4.07,-4.71 -6.46,-6.47 -10.31,-7.6 -9.25,-5.98 0,2.22"
             style="fill:#3e7f85;fill-opacity:1;fill-rule:nonzero;stroke:none"
             id="path128"
             inkscape:connector-curvature="0" /><path
             d="m 3551.68,2813.5 c -11.53,-38.5 -51,-63.65 -78.6,-77.02 -2.12,-1.04 -4.16,-1.99 -6.15,-2.88 -0.02,-0.03 -0.05,-0.02 -0.05,-0.02 -1.94,-0.88 -3.81,-1.7 -5.57,-2.44 0.17,0.42 0.35,0.87 0.49,1.34 3.51,9.3 6.96,19.16 10.06,29.49 18.34,61.2 36.2,174.54 36.2,174.54 0,0 -47.41,-104.5 -65.74,-165.68 -3.25,-10.84 -5.92,-21.44 -8.14,-31.56 -4.32,6.42 -9.39,14.69 -14.34,24.27 -13.51,26.13 -25.64,61.69 -15.89,94.22 17.95,59.96 120.61,144.55 124.74,147.92 0.07,0.09 0.13,0.11 0.13,0.11 0,0 -0.01,-0.03 0.01,-0.11 1.44,-4.54 40.85,-132.09 22.85,-192.18"
             style="fill:#3e7f85;fill-opacity:1;fill-rule:nonzero;stroke:none"
             id="path130"
             inkscape:connector-curvature="0" /><path
             d="m 3461.8,2732.48 c 2.03,0.74 4.52,1.63 7.45,2.67 -0.71,-0.58 -1.51,-1.11 -2.32,-1.55 -0.02,-0.03 -0.05,-0.02 -0.05,-0.02 -1.78,-1.1 -3.65,-1.92 -5.57,-2.44 -8.26,-2.25 -7.23,-1.5 0.49,1.34"
             style="fill:#3e7f85;fill-opacity:1;fill-rule:nonzero;stroke:none"
             id="path132"
             inkscape:connector-curvature="0" /><path
             d="m 4016.11,3207.85 c 6.45,-39.66 -18.04,-79.53 -37.03,-103.62 -1.45,-1.86 -2.88,-3.61 -4.28,-5.28 0.01,-0.03 -0.03,-0.04 -0.03,-0.04 -1.36,-1.63 -2.68,-3.19 -3.94,-4.63 -0.03,0.46 -0.07,0.95 -0.15,1.42 -0.9,9.91 -2.11,20.28 -3.84,30.93 -10.25,63.05 -43.71,172.8 -43.71,172.8 0,0 3.02,-114.7 13.28,-177.75 1.81,-11.16 4.03,-21.87 6.46,-31.94 -6.69,3.88 -14.86,9.11 -23.5,15.56 -23.58,17.6 -50.02,44.28 -55.47,77.8 -10.05,61.77 45.31,182.73 47.55,187.57 0.02,0.11 0.06,0.15 0.06,0.15 0,0 0,-0.03 0.06,-0.1 3.28,-3.44 94.47,-100.95 104.54,-162.87"
             style="fill:#3e7f85;fill-opacity:1;fill-rule:nonzero;stroke:none"
             id="path134"
             inkscape:connector-curvature="0" /><path
             d="m 3970.68,3095.7 c 1.51,1.55 3.35,3.44 5.53,5.66 -0.39,-0.84 -0.87,-1.65 -1.41,-2.41 0.01,-0.03 -0.03,-0.04 -0.03,-0.04 -1.12,-1.77 -2.45,-3.32 -3.94,-4.63 -6.45,-5.63 -5.85,-4.51 -0.15,1.42"
             style="fill:#3e7f85;fill-opacity:1;fill-rule:nonzero;stroke:none"
             id="path136"
             inkscape:connector-curvature="0" /><path
             d="m 3008.81,3066.57 c -11.53,-38.49 -50.99,-63.64 -78.6,-77.02 -2.11,-1.03 -4.16,-1.98 -6.15,-2.88 -0.01,-0.03 -0.05,-0.02 -0.05,-0.02 -1.93,-0.87 -3.8,-1.69 -5.56,-2.43 0.16,0.42 0.35,0.87 0.49,1.34 3.51,9.3 6.96,19.16 10.05,29.49 18.33,61.19 36.21,174.53 36.21,174.53 0,0 -47.41,-104.49 -65.75,-165.68 -3.24,-10.83 -5.91,-21.43 -8.13,-31.55 -4.33,6.41 -9.4,14.68 -14.35,24.27 -13.5,26.13 -25.64,61.69 -15.9,94.21 17.97,59.96 120.63,144.55 124.76,147.93 0.07,0.08 0.12,0.11 0.12,0.11 0,0 -0.01,-0.04 0.01,-0.11 1.44,-4.54 40.86,-132.1 22.85,-192.19"
             style="fill:#3e7f85;fill-opacity:1;fill-rule:nonzero;stroke:none"
             id="path138"
             inkscape:connector-curvature="0" /><path
             d="m 2918.94,2985.56 c 2.03,0.74 4.51,1.62 7.45,2.67 -0.73,-0.58 -1.52,-1.11 -2.33,-1.56 -0.01,-0.03 -0.05,-0.02 -0.05,-0.02 -1.77,-1.1 -3.65,-1.92 -5.56,-2.43 -8.27,-2.25 -7.24,-1.5 0.49,1.34"
             style="fill:#3e7f85;fill-opacity:1;fill-rule:nonzero;stroke:none"
             id="path140"
             inkscape:connector-curvature="0" /><path
             d="m 3824.59,3523.42 c 6.67,-39.62 -25.19,-80.9 -49.64,-106.05 -1.87,-1.93 -3.71,-3.76 -5.5,-5.51 0,-0.03 -0.05,-0.04 -0.05,-0.04 -1.74,-1.71 -3.45,-3.33 -5.06,-4.84 -0.02,0.45 -0.05,0.94 -0.13,1.42 -0.79,9.93 -1.94,20.32 -3.73,30.95 -10.61,63 -48.51,171.91 -48.51,171.91 0,0 -0.14,-115.32 10.46,-178.31 1.88,-11.15 4.28,-21.83 6.95,-31.85 -8.19,3.59 -18.19,8.47 -28.72,14.57 -28.74,16.61 -60.75,42.23 -66.38,75.72 -10.39,61.72 62.65,186.07 65.6,191.04 0.04,0.12 0.09,0.16 0.09,0.16 0,0 0.01,-0.03 0.07,-0.09 3.96,-3.32 114.14,-97.22 124.55,-159.08"
             style="fill:#3e7f85;fill-opacity:1;fill-rule:nonzero;stroke:none"
             id="path142"
             inkscape:connector-curvature="0" /><path
             d="m 3764.21,3408.4 c 1.92,1.64 4.28,3.62 7.07,5.96 -0.51,-0.86 -1.14,-1.71 -1.83,-2.5 0,-0.03 -0.05,-0.04 -0.05,-0.04 -1.45,-1.83 -3.15,-3.46 -5.06,-4.84 -8.24,-5.97 -7.44,-4.82 -0.13,1.42"
             style="fill:#3e7f85;fill-opacity:1;fill-rule:nonzero;stroke:none"
             id="path144"
             inkscape:connector-curvature="0" /><path
             d="m 3762.03,3088.16 c -15.13,-50.49 -57.74,-86.22 -87.21,-105.79 -2.26,-1.51 -4.44,-2.9 -6.55,-4.22 -0.02,-0.04 -0.06,-0.03 -0.06,-0.03 -2.06,-1.29 -4.05,-2.51 -5.92,-3.61 0.22,0.55 0.44,1.15 0.62,1.77 4.4,12.25 8.79,25.23 12.84,38.78 24.05,80.26 52.08,227.54 52.08,227.54 0,0 -57.57,-138.43 -81.61,-218.69 -4.26,-14.21 -7.92,-28.07 -11.05,-41.28 -3.89,7.88 -8.37,18.09 -12.63,29.99 -11.62,32.44 -21.02,77.13 -8.23,119.8 23.55,78.64 136.09,196.22 140.62,200.92 0.08,0.11 0.14,0.15 0.14,0.15 0,0 -0.02,-0.05 0,-0.15 1.09,-5.71 30.57,-166.37 6.96,-245.18"
             style="fill:#3e7f85;fill-opacity:1;fill-rule:nonzero;stroke:none"
             id="path146"
             inkscape:connector-curvature="0" /><path
             d="m 3662.91,2976.28 c 2.15,1.11 4.78,2.47 7.87,4.07 -0.79,-0.81 -1.64,-1.56 -2.51,-2.2 -0.02,-0.04 -0.06,-0.03 -0.06,-0.03 -1.91,-1.57 -3.9,-2.79 -5.92,-3.61 -8.67,-3.6 -7.54,-2.56 0.62,1.77"
             style="fill:#3e7f85;fill-opacity:1;fill-rule:nonzero;stroke:none"
             id="path148"
             inkscape:connector-curvature="0" /><path
             d="m 3169.53,3014.08 c -10.04,-33.53 -40.09,-56.73 -60.93,-69.34 -1.6,-0.97 -3.15,-1.87 -4.64,-2.72 -0.01,-0.03 -0.04,-0.02 -0.04,-0.02 -1.46,-0.83 -2.88,-1.61 -4.19,-2.32 0.13,0.37 0.29,0.77 0.41,1.18 2.96,8.13 5.9,16.73 8.59,25.73 15.97,53.29 33.71,151.36 33.71,151.36 0,0 -39.11,-91.66 -55.08,-144.96 -2.82,-9.43 -5.22,-18.64 -7.26,-27.43 -2.92,5.34 -6.31,12.24 -9.56,20.27 -8.89,21.89 -16.37,51.94 -7.87,80.27 15.64,52.22 94.58,129.03 97.75,132.1 0.06,0.08 0.1,0.1 0.1,0.1 0,0 -0.01,-0.03 0.01,-0.1 0.87,-3.84 24.68,-111.79 9,-164.12"
             style="fill:#3e7f85;fill-opacity:1;fill-rule:nonzero;stroke:none"
             id="path150"
             inkscape:connector-curvature="0" /><path
             d="m 3100.14,2940.86 c 1.52,0.71 3.39,1.58 5.58,2.59 -0.54,-0.53 -1.15,-1.01 -1.76,-1.43 -0.01,-0.03 -0.04,-0.02 -0.04,-0.02 -1.35,-1.02 -2.77,-1.8 -4.19,-2.32 -6.18,-2.26 -5.38,-1.58 0.41,1.18"
             style="fill:#3e7f85;fill-opacity:1;fill-rule:nonzero;stroke:none"
             id="path152"
             inkscape:connector-curvature="0" /><path
             d="m 2670.5,3677.46 c 2.19,-34.92 -17.96,-67.1 -33.16,-86.14 -1.16,-1.47 -2.3,-2.85 -3.41,-4.17 0.01,-0.02 -0.03,-0.02 -0.03,-0.02 -1.08,-1.29 -2.13,-2.51 -3.13,-3.63 0,0.39 0.01,0.82 -0.02,1.24 -0.04,8.66 -0.26,17.75 -0.85,27.12 -3.47,55.53 -20.79,153.66 -20.79,153.66 0,0 -4.95,-99.53 -1.47,-155.05 0.61,-9.83 1.55,-19.31 2.68,-28.25 -4.59,3.99 -10.15,9.29 -15.98,15.7 -15.92,17.46 -33.34,43.06 -35.19,72.57 -3.41,54.41 44.05,153.81 45.97,157.79 0.03,0.09 0.06,0.12 0.06,0.12 0,0 0,-0.03 0.03,-0.09 2.15,-3.29 61.88,-96.32 65.29,-150.85"
             style="fill:#3e7f85;fill-opacity:1;fill-rule:nonzero;stroke:none"
             id="path154"
             inkscape:connector-curvature="0" /><path
             d="m 2630.75,3584.74 c 1.18,1.2 2.63,2.65 4.35,4.37 -0.33,-0.69 -0.73,-1.35 -1.17,-1.96 0.01,-0.02 -0.03,-0.02 -0.03,-0.02 -0.91,-1.43 -1.97,-2.65 -3.13,-3.63 -5.01,-4.26 -4.5,-3.35 -0.02,1.24"
             style="fill:#3e7f85;fill-opacity:1;fill-rule:nonzero;stroke:none"
             id="path156"
             inkscape:connector-curvature="0" /><path
             d="m 3953.59,2522.7 c -34.68,4.62 -62.34,30.62 -78.08,49.22 -1.22,1.42 -2.35,2.8 -3.42,4.15 -0.03,0.01 -0.03,0.03 -0.03,0.03 -1.04,1.31 -2.04,2.58 -2.95,3.78 0.38,-0.08 0.8,-0.17 1.22,-0.23 8.5,-1.64 17.46,-3.18 26.77,-4.42 55.15,-7.34 154.78,-9.37 154.78,-9.37 0,0 -96.68,24.14 -151.83,31.49 -9.77,1.29 -19.24,2.21 -28.23,2.84 4.8,3.72 11.08,8.17 18.49,12.64 20.22,12.23 48.7,24.36 78.02,20.46 54.04,-7.2 142.36,-73.02 145.89,-75.67 0.09,-0.05 0.11,-0.08 0.11,-0.08 0,0 -0.03,0.01 -0.09,-0.02 -3.65,-1.47 -106.49,-42.04 -160.65,-34.82"
             style="fill:#3e7f85;fill-opacity:1;fill-rule:nonzero;stroke:none"
             id="path158"
             inkscape:connector-curvature="0" /><path
             d="m 3870.33,2579.65 c 0.95,-1.39 2.09,-3.09 3.45,-5.1 -0.62,0.46 -1.18,0.98 -1.69,1.52 -0.03,0.01 -0.03,0.03 -0.03,0.03 -1.22,1.18 -2.21,2.45 -2.95,3.78 -3.21,5.74 -2.41,5.06 1.22,-0.23"
             style="fill:#3e7f85;fill-opacity:1;fill-rule:nonzero;stroke:none"
             id="path160"
             inkscape:connector-curvature="0" /><path
             d="m 3609,3698.53 c -10.04,-33.52 -40.07,-56.73 -60.92,-69.33 -1.61,-0.98 -3.16,-1.87 -4.65,-2.72 -0.01,-0.03 -0.04,-0.02 -0.04,-0.02 -1.46,-0.83 -2.87,-1.61 -4.19,-2.32 0.14,0.37 0.29,0.76 0.41,1.17 2.96,8.13 5.9,16.74 8.59,25.74 15.98,53.29 33.71,151.35 33.71,151.35 0,0 -39.11,-91.66 -55.07,-144.95 -2.83,-9.44 -5.23,-18.65 -7.27,-27.43 -2.92,5.33 -6.31,12.23 -9.56,20.26 -8.88,21.89 -16.37,51.94 -7.87,80.27 15.64,52.22 94.58,129.04 97.76,132.1 0.05,0.08 0.09,0.1 0.09,0.1 0,0 -0.01,-0.03 0.01,-0.09 0.88,-3.84 24.69,-111.79 9,-164.13"
             style="fill:#3e7f85;fill-opacity:1;fill-rule:nonzero;stroke:none"
             id="path162"
             inkscape:connector-curvature="0" /><path
             d="m 3539.61,3625.31 c 1.52,0.72 3.39,1.58 5.59,2.6 -0.55,-0.53 -1.16,-1.02 -1.77,-1.43 -0.01,-0.03 -0.04,-0.02 -0.04,-0.02 -1.35,-1.02 -2.76,-1.8 -4.19,-2.32 -6.17,-2.26 -5.38,-1.58 0.41,1.17"
             style="fill:#3e7f85;fill-opacity:1;fill-rule:nonzero;stroke:none"
             id="path164"
             inkscape:connector-curvature="0" /><path
             d="m 3211.71,3739.28 c -8.37,-27.97 -36.94,-46.27 -56.93,-56 -1.54,-0.75 -3.02,-1.45 -4.46,-2.1 -0.01,-0.02 -0.04,-0.01 -0.04,-0.01 -1.4,-0.64 -2.76,-1.23 -4.03,-1.77 0.13,0.3 0.25,0.63 0.36,0.97 2.54,6.76 5.05,13.92 7.3,21.42 13.32,44.46 26.33,126.78 26.33,126.78 0,0 -34.38,-75.92 -47.7,-120.37 -2.35,-7.87 -4.31,-15.57 -5.92,-22.93 -3.11,4.66 -6.78,10.66 -10.35,17.62 -9.76,18.97 -18.51,44.78 -11.43,68.41 13.05,43.55 87.41,105.07 90.4,107.52 0.05,0.07 0.09,0.08 0.09,0.08 0,0 -0.01,-0.02 0,-0.08 1.05,-3.29 29.46,-95.89 16.38,-139.54"
             style="fill:#3e7f85;fill-opacity:1;fill-rule:nonzero;stroke:none"
             id="path166"
             inkscape:connector-curvature="0" /><path
             d="m 3146.61,3680.37 c 1.47,0.53 3.26,1.18 5.39,1.95 -0.53,-0.43 -1.09,-0.81 -1.68,-1.14 -0.01,-0.02 -0.04,-0.01 -0.04,-0.01 -1.29,-0.8 -2.64,-1.4 -4.03,-1.77 -5.99,-1.64 -5.23,-1.1 0.36,0.97"
             style="fill:#3e7f85;fill-opacity:1;fill-rule:nonzero;stroke:none"
             id="path168"
             inkscape:connector-curvature="0" /><path
             d="m 2120.04,3015.62 c 0,-82.86 50.65,-155.9 88.09,-198.65 2.88,-3.3 5.67,-6.39 8.4,-9.33 0,-0.07 0.07,-0.07 0.07,-0.07 2.66,-2.87 5.24,-5.6 7.68,-8.11 -0.07,0.94 -0.14,1.94 -0.14,2.95 -1.15,20.44 -1.94,41.96 -1.94,64.2 0,131.72 25.53,366.16 25.53,366.16 0,0 25.55,-234.44 25.55,-366.16 0,-23.31 -0.79,-45.84 -2.08,-67.15 9.89,10.12 21.88,23.46 34.29,39.46 33.86,43.62 70.01,106.68 70.01,176.7 0,129.05 -122.67,356.9 -127.62,366.01 -0.07,0.21 -0.15,0.29 -0.15,0.29 0,0 0,-0.08 -0.06,-0.22 -4.45,-8.11 -127.63,-236.74 -127.63,-366.08"
             style="fill:#3e7f85;fill-opacity:1;fill-rule:nonzero;stroke:none"
             id="path170"
             inkscape:connector-curvature="0" /><path
             d="m 2224.14,2802.41 c -2.88,2.65 -6.39,5.88 -10.55,9.68 0.86,-1.58 1.86,-3.08 2.94,-4.45 0,-0.07 0.07,-0.07 0.07,-0.07 2.3,-3.23 4.88,-5.95 7.68,-8.11 12.05,-9.32 10.76,-7.24 -0.14,2.95"
             style="fill:#3e7f85;fill-opacity:1;fill-rule:nonzero;stroke:none"
             id="path172"
             inkscape:connector-curvature="0" /><path
             d="m 1374.23,3163.99 c 25.91,-78.71 96.85,-132.24 145.78,-161.14 3.76,-2.24 7.39,-4.3 10.89,-6.24 0.03,-0.07 0.1,-0.04 0.1,-0.04 3.41,-1.9 6.72,-3.68 9.82,-5.3 -0.36,0.86 -0.74,1.79 -1.05,2.75 -7.48,19.06 -14.97,39.25 -21.92,60.38 -41.18,125.11 -90.23,355.78 -90.23,355.78 0,0 97.57,-214.7 138.75,-339.81 7.29,-22.15 13.58,-43.79 19.02,-64.44 6.24,12.71 13.44,29.13 20.23,48.21 18.53,52.01 33.15,123.21 11.26,189.72 -40.35,122.59 -228.12,300.65 -235.66,307.76 -0.14,0.18 -0.23,0.23 -0.23,0.23 0,0 0.02,-0.07 0,-0.23 -1.69,-9.09 -47.21,-264.77 -6.76,-387.63"
             style="fill:#3e7f85;fill-opacity:1;fill-rule:nonzero;stroke:none"
             id="path174"
             inkscape:connector-curvature="0" /><path
             d="m 1539.77,2994.02 c -3.56,1.62 -7.91,3.58 -13.05,5.9 1.31,-1.23 2.74,-2.35 4.18,-3.31 0.03,-0.07 0.1,-0.04 0.1,-0.04 3.18,-2.35 6.49,-4.13 9.82,-5.3 14.37,-5.09 12.49,-3.52 -1.05,2.75"
             style="fill:#3e7f85;fill-opacity:1;fill-rule:nonzero;stroke:none"
             id="path176"
             inkscape:connector-curvature="0" /><path
             d="m 2232.84,3662.52 c -1.14,-82.85 48.5,-156.57 85.36,-199.84 2.83,-3.34 5.58,-6.46 8.26,-9.44 0,-0.07 0.08,-0.07 0.08,-0.07 2.61,-2.9 5.15,-5.67 7.56,-8.21 -0.06,0.94 -0.12,1.94 -0.1,2.94 -0.87,20.46 -1.36,41.99 -1.06,64.23 1.81,131.7 30.57,365.77 30.57,365.77 0,0 22.32,-234.77 20.5,-366.47 -0.31,-23.31 -1.41,-45.83 -3,-67.12 10.04,9.98 22.2,23.16 34.83,38.99 34.46,43.15 71.48,105.7 72.44,175.71 1.77,129.05 -117.75,358.55 -122.58,367.73 -0.07,0.22 -0.14,0.29 -0.14,0.29 0,0 0,-0.07 -0.07,-0.21 -4.56,-8.05 -130.87,-234.96 -132.65,-364.3"
             style="fill:#3e7f85;fill-opacity:1;fill-rule:nonzero;stroke:none"
             id="path178"
             inkscape:connector-curvature="0" /><path
             d="m 2334,3447.9 c -2.84,2.7 -6.3,5.97 -10.42,9.83 0.84,-1.59 1.83,-3.11 2.88,-4.49 0,-0.07 0.08,-0.07 0.08,-0.07 2.25,-3.26 4.79,-6.02 7.56,-8.21 11.93,-9.49 10.66,-7.4 -0.1,2.94"
             style="fill:#3e7f85;fill-opacity:1;fill-rule:nonzero;stroke:none"
             id="path180"
             inkscape:connector-curvature="0" /><path
             d="m 1068.45,2703.76 c 67.75,-47.71 156.62,-48.33 213.14,-42.33 4.35,0.45 8.49,0.96 12.46,1.5 0.06,-0.05 0.1,0.01 0.1,0.01 3.88,0.52 7.59,1.06 11.05,1.61 -0.81,0.48 -1.67,1 -2.49,1.58 -17.38,10.83 -35.43,22.57 -53.61,35.38 -107.7,75.82 -284.698,231.67 -284.698,231.67 0,0 206.398,-114.08 314.098,-189.91 19.06,-13.42 37.03,-27.03 53.71,-40.35 -2.58,13.91 -6.59,31.39 -12.52,50.75 -16.17,52.8 -46.92,118.66 -104.17,158.97 -105.53,74.3 -362.454,105.15 -372.75,106.35 -0.219,0.07 -0.321,0.05 -0.321,0.05 0,0 0.063,-0.04 0.133,-0.18 4.074,-8.31 120.109,-240.65 225.868,-315.1"
             style="fill:#3e7f85;fill-opacity:1;fill-rule:nonzero;stroke:none"
             id="path182"
             inkscape:connector-curvature="0" /><path
             d="m 1302.71,2666.13 c -3.82,-0.82 -8.49,-1.84 -13.99,-3.05 1.79,-0.2 3.59,-0.25 5.33,-0.15 0.06,-0.05 0.1,0.01 0.1,0.01 3.96,0.02 7.68,0.56 11.05,1.61 14.56,4.49 12.11,4.63 -2.49,1.58"
             style="fill:#3e7f85;fill-opacity:1;fill-rule:nonzero;stroke:none"
             id="path184"
             inkscape:connector-curvature="0" /><path
             d="m 1899.53,1874.72 c 35.27,16.73 51.87,62.01 59.36,93.24 0.58,2.4 1.1,4.7 1.56,6.95 0.04,0.01 0.01,0.06 0.01,0.06 0.47,2.18 0.89,4.28 1.26,6.26 -0.38,-0.24 -0.78,-0.48 -1.21,-0.68 -8.38,-4.82 -17.31,-9.64 -26.77,-14.13 -56.07,-26.58 -163.16,-58.5 -163.16,-58.5 0,0 92.48,62.73 148.55,89.31 9.92,4.71 19.73,8.78 29.17,12.3 -7.14,3.93 -16.24,8.46 -26.6,12.72 -28.25,11.62 -65.44,20.71 -95.24,6.57 -54.94,-26.05 -116.83,-146.03 -119.29,-150.85 -0.07,-0.09 -0.08,-0.15 -0.08,-0.15 0,0 0.03,0.01 0.11,0 4.72,-1.05 137.28,-29.2 192.33,-3.1"
             style="fill:#3e7f85;fill-opacity:1;fill-rule:nonzero;stroke:none"
             id="path186"
             inkscape:connector-curvature="0" /><path
             d="m 1960.51,1980.55 c -0.31,-2.27 -0.68,-5.04 -1.11,-8.32 0.43,0.84 0.79,1.75 1.05,2.68 0.04,0.01 0.01,0.06 0.01,0.06 0.72,2.03 1.15,4.14 1.26,6.26 0.53,9.15 0.01,7.96 -1.21,-0.68"
             style="fill:#3e7f85;fill-opacity:1;fill-rule:nonzero;stroke:none"
             id="path188"
             inkscape:connector-curvature="0" /><path
             d="m 1428.1,2088.32 c 44.92,21.16 70.11,70.4 82.64,103.94 0.97,2.57 1.85,5.05 2.67,7.45 0.04,0.01 0.02,0.06 0.02,0.06 0.8,2.34 1.55,4.59 2.21,6.71 -0.48,-0.28 -1.01,-0.58 -1.55,-0.84 -10.76,-5.92 -22.21,-11.89 -34.27,-17.57 -71.41,-33.64 -205.8,-78.09 -205.8,-78.09 0,0 119.86,75.3 191.27,108.94 12.64,5.96 25.09,11.23 37,15.89 -8.3,3.4 -18.94,7.23 -31.15,10.64 -33.28,9.3 -77.76,15.03 -115.72,-2.85 -69.98,-32.96 -158.62,-165.24 -162.15,-170.56 -0.1,-0.1 -0.12,-0.16 -0.12,-0.16 0,0 0.04,0.02 0.14,0.01 5.67,-0.61 164.67,-16.61 234.81,16.43"
             style="fill:#3e7f85;fill-opacity:1;fill-rule:nonzero;stroke:none"
             id="path190"
             inkscape:connector-curvature="0" /><path
             d="m 1514.09,2205.64 c -0.62,-2.41 -1.38,-5.36 -2.25,-8.85 0.61,0.93 1.14,1.92 1.57,2.92 0.04,0.01 0.02,0.06 0.02,0.06 1.1,2.21 1.84,4.46 2.21,6.71 1.63,9.66 0.87,8.35 -1.55,-0.84"
             style="fill:#3e7f85;fill-opacity:1;fill-rule:nonzero;stroke:none"
             id="path192"
             inkscape:connector-curvature="0" /><path
             d="m 1715.28,1972.91 c 44.09,43.82 49.39,116.19 47.33,163.75 -0.15,3.66 -0.36,7.15 -0.6,10.52 0.04,0.04 -0.01,0.09 -0.01,0.09 -0.23,3.28 -0.49,6.45 -0.77,9.41 -0.45,-0.55 -0.94,-1.13 -1.47,-1.66 -10.12,-11.58 -21.04,-23.49 -32.88,-35.26 -70.06,-69.67 -211.69,-176.68 -211.69,-176.68 0,0 107.8,141.04 177.87,210.71 12.4,12.33 24.9,23.73 37.1,34.14 -11.94,1.24 -26.98,2.15 -43.71,1.96 -45.63,-0.52 -103.12,-9.8 -140.37,-46.83 -68.65,-68.27 -108.6,-270.5 -110.17,-278.62 -0.07,-0.17 -0.06,-0.25 -0.06,-0.25 0,0 0.03,0.04 0.16,0.06 7.26,1.33 210.47,40.23 279.27,108.66"
             style="fill:#3e7f85;fill-opacity:1;fill-rule:nonzero;stroke:none"
             id="path194"
             inkscape:connector-curvature="0" /><path
             d="m 1759.76,2155.02 c 0.49,-3.31 1.1,-7.37 1.83,-12.14 0.27,1.4 0.41,2.87 0.42,4.3 0.04,0.04 -0.01,0.09 -0.01,0.09 0.2,3.23 -0.06,6.4 -0.77,9.41 -3.02,12.96 -3.28,10.99 -1.47,-1.66"
             style="fill:#3e7f85;fill-opacity:1;fill-rule:nonzero;stroke:none"
             id="path196"
             inkscape:connector-curvature="0" /><path
             d="m 1280.6,2316.83 c 56.19,-26.57 120.05,-19.69 159.64,-11 3.05,0.66 5.93,1.34 8.7,2.03 0.04,-0.02 0.06,0.02 0.06,0.02 2.7,0.67 5.28,1.34 7.67,1.99 -0.64,0.25 -1.35,0.54 -2.03,0.86 -14.19,5.87 -29.01,12.29 -44.09,19.43 -89.33,42.24 -241.12,132.7 -241.12,132.7 0,0 166.23,-59.9 255.57,-102.14 15.81,-7.48 30.86,-15.18 44.95,-22.78 -4.07,9.17 -9.73,20.61 -17.06,33.16 -20.01,34.25 -52.55,76.1 -100.04,98.55 -87.53,41.39 -276.76,41.06 -284.33,41.03 -0.17,0.02 -0.24,0 -0.24,0 0,0 0.05,-0.02 0.13,-0.11 4.24,-5.26 124.46,-152.26 212.19,-193.74"
             style="fill:#3e7f85;fill-opacity:1;fill-rule:nonzero;stroke:none"
             id="path198"
             inkscape:connector-curvature="0" /><path
             d="m 1454.64,2310.73 c -2.61,-0.87 -5.8,-1.93 -9.55,-3.2 1.31,0.01 2.62,0.12 3.85,0.33 0.04,-0.02 0.06,0.02 0.06,0.02 2.85,0.34 5.42,1 7.67,1.99 9.74,4.22 7.96,4.11 -2.03,0.86"
             style="fill:#3e7f85;fill-opacity:1;fill-rule:nonzero;stroke:none"
             id="path200"
             inkscape:connector-curvature="0" /><path
             d="m 1501.89,3633.72 c -14.52,-60.44 5.27,-121.54 21.87,-158.52 1.27,-2.85 2.53,-5.53 3.77,-8.1 -0.01,-0.05 0.04,-0.06 0.04,-0.06 1.2,-2.51 2.39,-4.89 3.51,-7.1 0.12,0.69 0.25,1.43 0.43,2.17 2.84,15.09 6.1,30.91 10,47.13 23.08,96.08 80.59,263.15 80.59,263.15 0,0 -24.65,-174.96 -47.72,-271.05 -4.09,-17 -8.55,-33.31 -13.11,-48.65 8.14,5.85 18.19,13.73 28.98,23.48 29.43,26.59 63.74,67 76.01,118.07 22.61,94.14 -16.4,279.31 -17.99,286.71 0,0.17 -0.04,0.24 -0.04,0.24 0,0 -0.01,-0.06 -0.09,-0.15 -4.27,-5.22 -123.59,-152.97 -146.25,-247.32"
             style="fill:#3e7f85;fill-opacity:1;fill-rule:nonzero;stroke:none"
             id="path202"
             inkscape:connector-curvature="0" /><path
             d="m 1531.51,3462.11 c -1.38,2.37 -3.08,5.27 -5.09,8.69 0.27,-1.28 0.66,-2.54 1.11,-3.7 -0.01,-0.05 0.04,-0.06 0.04,-0.06 0.91,-2.71 2.09,-5.1 3.51,-7.1 6.13,-8.67 5.66,-6.95 0.43,2.17"
             style="fill:#3e7f85;fill-opacity:1;fill-rule:nonzero;stroke:none"
             id="path204"
             inkscape:connector-curvature="0" /><path
             d="m 1873.13,3753.01 c 22.41,-57.98 78.53,-95.03 116.98,-114.56 2.96,-1.51 5.8,-2.9 8.55,-4.2 0.02,-0.05 0.08,-0.03 0.08,-0.03 2.68,-1.27 5.27,-2.46 7.7,-3.54 -0.3,0.63 -0.63,1.31 -0.9,2.02 -6.35,13.99 -12.74,28.83 -18.75,44.39 -35.61,92.17 -80.64,263.33 -80.64,263.33 0,0 81.72,-156.99 117.33,-249.15 6.31,-16.32 11.83,-32.3 16.66,-47.57 4.38,9.82 9.37,22.48 13.96,37.12 12.53,39.92 21.45,94.08 2.53,143.08 -34.9,90.32 -184.61,215.73 -190.62,220.73 -0.11,0.13 -0.18,0.16 -0.18,0.16 0,0 0.01,-0.05 0,-0.17 -1,-6.91 -27.67,-201.09 7.3,-291.61"
             style="fill:#3e7f85;fill-opacity:1;fill-rule:nonzero;stroke:none"
             id="path206"
             inkscape:connector-curvature="0" /><path
             d="m 2005.54,3632.7 c -2.78,1.06 -6.17,2.34 -10.19,3.85 1.04,-0.87 2.17,-1.64 3.31,-2.3 0.02,-0.05 0.08,-0.03 0.08,-0.03 2.51,-1.62 5.11,-2.81 7.7,-3.54 11.18,-3.18 9.69,-2.09 -0.9,2.02"
             style="fill:#3e7f85;fill-opacity:1;fill-rule:nonzero;stroke:none"
             id="path208"
             inkscape:connector-curvature="0" /><path
             d="m 2022.82,3446.46 c -6.53,-61.81 21.04,-119.82 42.31,-154.33 1.63,-2.66 3.22,-5.16 4.79,-7.54 -0.01,-0.05 0.04,-0.06 0.04,-0.06 1.52,-2.33 3,-4.54 4.41,-6.58 0.02,0.7 0.06,1.46 0.14,2.2 0.86,15.34 2.03,31.45 3.79,48.04 10.38,98.27 45.68,271.4 45.68,271.4 0,0 -1.69,-176.69 -12.07,-274.95 -1.84,-17.4 -4.14,-34.15 -6.67,-49.96 7.31,6.86 16.25,15.99 25.68,27.05 25.72,30.19 54.49,74.72 60.01,126.96 10.18,96.28 -52.58,274.8 -55.11,281.94 -0.03,0.17 -0.07,0.23 -0.07,0.23 0,0 -0.01,-0.06 -0.07,-0.16 -3.57,-5.74 -102.65,-167.74 -112.86,-264.24"
             style="fill:#3e7f85;fill-opacity:1;fill-rule:nonzero;stroke:none"
             id="path210"
             inkscape:connector-curvature="0" /><path
             d="m 2074.51,3280.15 c -1.68,2.19 -3.74,4.84 -6.18,7.96 0.44,-1.23 0.99,-2.43 1.59,-3.52 -0.01,-0.05 0.04,-0.06 0.04,-0.06 1.25,-2.57 2.74,-4.78 4.41,-6.58 7.19,-7.8 6.51,-6.16 0.14,2.2"
             style="fill:#3e7f85;fill-opacity:1;fill-rule:nonzero;stroke:none"
             id="path212"
             inkscape:connector-curvature="0" /><path
             d="m 2646.97,3903.51 c -5.5,-51.93 23,-101.22 44.81,-130.62 1.67,-2.26 3.31,-4.39 4.9,-6.43 0,-0.04 0.05,-0.05 0.05,-0.05 1.55,-1.98 3.07,-3.87 4.51,-5.61 0.02,0.59 0.04,1.22 0.1,1.85 0.6,12.89 1.51,26.44 2.98,40.37 8.73,82.55 41.07,227.7 41.07,227.7 0,0 1.27,-148.7 -7.46,-231.25 -1.54,-14.61 -3.55,-28.67 -5.81,-41.93 7.18,5.65 15.95,13.17 25.17,22.34 25.18,24.98 53.15,61.98 57.79,105.86 8.55,80.88 -57.08,232.21 -59.74,238.27 -0.03,0.14 -0.08,0.19 -0.08,0.19 0,0 0,-0.05 -0.05,-0.14 -3.47,-4.77 -99.67,-139.48 -108.24,-220.55"
             style="fill:#3e7f85;fill-opacity:1;fill-rule:nonzero;stroke:none"
             id="path214"
             inkscape:connector-curvature="0" /><path
             d="m 2701.34,3762.65 c -1.71,1.87 -3.81,4.13 -6.3,6.8 0.47,-1.05 1.02,-2.06 1.64,-2.99 0,-0.04 0.05,-0.05 0.05,-0.05 1.3,-2.18 2.81,-4.07 4.51,-5.61 7.31,-6.68 6.6,-5.29 0.1,1.85"
             style="fill:#3e7f85;fill-opacity:1;fill-rule:nonzero;stroke:none"
             id="path216"
             inkscape:connector-curvature="0" /><path
             d="m 1644.03,2791.28 c 15.4,-60.22 61.45,-105 93.41,-129.94 2.45,-1.92 4.82,-3.71 7.11,-5.4 0.01,-0.04 0.06,-0.04 0.06,-0.04 2.24,-1.65 4.4,-3.2 6.43,-4.63 -0.22,0.67 -0.45,1.39 -0.64,2.12 -4.54,14.67 -9.04,30.18 -13.18,46.34 -24.49,95.74 -51.7,270.32 -51.7,270.32 0,0 59.96,-166.21 84.45,-261.94 4.33,-16.95 8.01,-33.45 11.14,-49.14 4.47,8.97 9.67,20.63 14.65,34.3 13.6,37.25 25.06,89.01 12.04,139.9 -23.99,93.8 -144.99,239.28 -149.86,245.09 -0.09,0.15 -0.15,0.19 -0.15,0.19 0,0 0.02,-0.05 0,-0.17 -1.34,-6.62 -37.81,-192.99 -13.76,-287"
             style="fill:#3e7f85;fill-opacity:1;fill-rule:nonzero;stroke:none"
             id="path218"
             inkscape:connector-curvature="0" /><path
             d="m 1750.4,2653.39 c -2.33,1.46 -5.19,3.22 -8.56,5.31 0.84,-1.01 1.77,-1.94 2.71,-2.76 0.01,-0.04 0.06,-0.04 0.06,-0.04 2.07,-1.97 4.23,-3.53 6.43,-4.63 9.46,-4.8 8.24,-3.5 -0.64,2.12"
             style="fill:#3e7f85;fill-opacity:1;fill-rule:nonzero;stroke:none"
             id="path220"
             inkscape:connector-curvature="0" /><path
             d="m 1894.22,2660.41 c 10.95,-61.18 64.96,-107.18 103.42,-132.88 2.95,-1.99 5.8,-3.83 8.58,-5.58 0.01,-0.05 0.07,-0.04 0.07,-0.04 2.7,-1.7 5.33,-3.31 7.8,-4.78 -0.19,0.68 -0.38,1.41 -0.52,2.15 -3.71,14.92 -7.24,30.69 -10.18,47.11 -17.41,97.27 -26.03,274.4 -26.03,274.4 0,0 53.36,-169.13 70.77,-266.39 3.08,-17.22 5.36,-33.98 7.05,-49.92 7.33,9.03 16.06,20.76 24.82,34.52 23.89,37.52 47.22,89.75 37.97,141.46 -17.06,95.3 -154.62,244.33 -160.16,250.28 -0.09,0.15 -0.16,0.19 -0.16,0.19 0,0 0.01,-0.05 -0.03,-0.17 -2.83,-6.68 -80.5,-194.83 -63.4,-290.35"
             style="fill:#3e7f85;fill-opacity:1;fill-rule:nonzero;stroke:none"
             id="path222"
             inkscape:connector-curvature="0" /><path
             d="m 2013.57,2519.28 c -2.86,1.51 -6.37,3.34 -10.51,5.5 0.96,-1.03 2.04,-1.99 3.16,-2.83 0.01,-0.05 0.07,-0.04 0.07,-0.04 2.44,-2.02 5.06,-3.63 7.8,-4.78 11.78,-5 10.38,-3.67 -0.52,2.15"
             style="fill:#3e7f85;fill-opacity:1;fill-rule:nonzero;stroke:none"
             id="path224"
             inkscape:connector-curvature="0" /><path
             d="m 1694.47,3389.86 c -3.61,-62.06 38.2,-119.37 69.59,-153.33 2.41,-2.62 4.76,-5.07 7.05,-7.42 0,-0.05 0.07,-0.06 0.07,-0.06 2.23,-2.28 4.4,-4.46 6.46,-6.47 -0.02,0.71 -0.04,1.46 0,2.22 -0.13,15.37 0.11,31.53 1.08,48.18 5.74,98.65 38.65,272.92 38.65,272.92 0,0 12.46,-176.91 6.72,-275.56 -1.02,-17.46 -2.7,-34.29 -4.77,-50.18 9.23,7.06 20.45,16.44 32.17,27.78 31.98,30.91 66.85,76.27 69.9,128.71 5.63,96.66 -93.41,273.64 -97.41,280.72 -0.05,0.17 -0.11,0.22 -0.11,0.22 0,0 0,-0.05 -0.07,-0.15 -4.31,-5.85 -123.69,-170.71 -129.33,-267.58"
             style="fill:#3e7f85;fill-opacity:1;fill-rule:nonzero;stroke:none"
             id="path226"
             inkscape:connector-curvature="0" /><path
             d="m 1777.64,3224.8 c -2.43,2.13 -5.41,4.73 -8.94,7.79 0.69,-1.22 1.52,-2.4 2.41,-3.48 0,-0.05 0.07,-0.06 0.07,-0.06 1.89,-2.53 4.07,-4.71 6.46,-6.47 10.3,-7.6 9.24,-5.98 0,2.22"
             style="fill:#3e7f85;fill-opacity:1;fill-rule:nonzero;stroke:none"
             id="path228"
             inkscape:connector-curvature="0" /><path
             d="m 2718.67,3467.33 c 7.49,-61.71 58.83,-110.67 95.77,-138.5 2.84,-2.15 5.58,-4.15 8.26,-6.05 0.01,-0.05 0.06,-0.04 0.06,-0.04 2.61,-1.85 5.14,-3.61 7.52,-5.21 -0.14,0.68 -0.3,1.42 -0.4,2.17 -2.86,15.1 -5.5,31.05 -7.51,47.61 -11.9,98.09 -10.52,275.43 -10.52,275.43 0,0 43.74,-171.86 55.64,-269.96 2.11,-17.36 3.45,-34.22 4.23,-50.22 7.83,8.59 17.21,19.81 26.73,33.05 25.96,36.12 52.2,86.95 45.88,139.1 -11.67,96.12 -140.62,252.65 -145.81,258.91 -0.08,0.15 -0.15,0.2 -0.15,0.2 0,0 0.01,-0.05 -0.05,-0.17 -3.19,-6.51 -91.33,-189.99 -79.65,-286.32"
             style="fill:#3e7f85;fill-opacity:1;fill-rule:nonzero;stroke:none"
             id="path230"
             inkscape:connector-curvature="0" /><path
             d="m 2829.88,3319.7 c -2.77,1.67 -6.17,3.7 -10.18,6.08 0.9,-1.08 1.92,-2.09 3,-3 0.01,-0.05 0.06,-0.04 0.06,-0.04 2.33,-2.16 4.86,-3.91 7.52,-5.21 11.49,-5.66 10.16,-4.25 -0.4,2.17"
             style="fill:#3e7f85;fill-opacity:1;fill-rule:nonzero;stroke:none"
             id="path232"
             inkscape:connector-curvature="0" /><path
             d="m 1396.56,2813.5 c 11.53,-38.5 50.99,-63.65 78.6,-77.02 2.11,-1.04 4.16,-1.99 6.14,-2.88 0.02,-0.03 0.06,-0.02 0.06,-0.02 1.93,-0.88 3.81,-1.7 5.56,-2.44 -0.17,0.42 -0.35,0.87 -0.49,1.34 -3.51,9.3 -6.96,19.16 -10.05,29.49 -18.34,61.2 -36.2,174.54 -36.2,174.54 0,0 47.4,-104.5 65.73,-165.68 3.25,-10.84 5.93,-21.44 8.15,-31.56 4.31,6.42 9.38,14.69 14.33,24.27 13.51,26.13 25.65,61.69 15.9,94.22 -17.96,59.96 -120.62,144.55 -124.75,147.92 -0.07,0.09 -0.12,0.11 -0.12,0.11 0,0 0.01,-0.03 -0.01,-0.11 -1.45,-4.54 -40.86,-132.09 -22.85,-192.18"
             style="fill:#3e7f85;fill-opacity:1;fill-rule:nonzero;stroke:none"
             id="path234"
             inkscape:connector-curvature="0" /><path
             d="m 1486.43,2732.48 c -2.03,0.74 -4.51,1.63 -7.45,2.67 0.72,-0.58 1.51,-1.11 2.32,-1.55 0.02,-0.03 0.06,-0.02 0.06,-0.02 1.77,-1.1 3.64,-1.92 5.56,-2.44 8.27,-2.25 7.24,-1.5 -0.49,1.34"
             style="fill:#3e7f85;fill-opacity:1;fill-rule:nonzero;stroke:none"
             id="path236"
             inkscape:connector-curvature="0" /><path
             d="m 932.117,3207.85 c -6.441,-39.66 18.051,-79.53 37.031,-103.62 1.457,-1.86 2.883,-3.61 4.282,-5.28 -0.008,-0.03 0.031,-0.04 0.031,-0.04 1.363,-1.63 2.687,-3.19 3.945,-4.63 0.032,0.46 0.067,0.95 0.145,1.42 0.906,9.91 2.113,20.28 3.84,30.93 10.254,63.05 43.719,172.8 43.719,172.8 0,0 -3.03,-114.7 -13.28,-177.75 -1.82,-11.16 -4.04,-21.87 -6.46,-31.94 6.68,3.88 14.85,9.11 23.5,15.56 23.57,17.6 50.02,44.28 55.47,77.8 10.05,61.77 -45.31,182.73 -47.55,187.57 -0.03,0.11 -0.07,0.15 -0.07,0.15 0,0 0,-0.03 -0.05,-0.1 -3.29,-3.44 -94.482,-100.95 -104.553,-162.87"
             style="fill:#3e7f85;fill-opacity:1;fill-rule:nonzero;stroke:none"
             id="path238"
             inkscape:connector-curvature="0" /><path
             d="m 977.551,3095.7 c -1.504,1.55 -3.348,3.44 -5.531,5.66 0.39,-0.84 0.871,-1.65 1.41,-2.41 -0.008,-0.03 0.031,-0.04 0.031,-0.04 1.117,-1.77 2.445,-3.32 3.945,-4.63 6.457,-5.63 5.852,-4.51 0.145,1.42"
             style="fill:#3e7f85;fill-opacity:1;fill-rule:nonzero;stroke:none"
             id="path240"
             inkscape:connector-curvature="0" /><path
             d="m 1939.42,3066.57 c 11.54,-38.49 50.99,-63.64 78.6,-77.02 2.12,-1.03 4.16,-1.98 6.15,-2.88 0.01,-0.03 0.05,-0.02 0.05,-0.02 1.94,-0.87 3.81,-1.69 5.57,-2.43 -0.17,0.42 -0.36,0.87 -0.49,1.34 -3.51,9.3 -6.97,19.16 -10.06,29.49 -18.33,61.19 -36.2,174.53 -36.2,174.53 0,0 47.4,-104.49 65.74,-165.68 3.24,-10.83 5.92,-21.43 8.14,-31.55 4.32,6.41 9.39,14.68 14.34,24.27 13.51,26.13 25.64,61.69 15.9,94.21 -17.97,59.96 -120.62,144.55 -124.75,147.93 -0.08,0.08 -0.12,0.11 -0.12,0.11 0,0 0,-0.04 -0.01,-0.11 -1.45,-4.54 -40.86,-132.1 -22.86,-192.19"
             style="fill:#3e7f85;fill-opacity:1;fill-rule:nonzero;stroke:none"
             id="path242"
             inkscape:connector-curvature="0" /><path
             d="m 2029.3,2985.56 c -2.03,0.74 -4.51,1.62 -7.45,2.67 0.72,-0.58 1.51,-1.11 2.32,-1.56 0.01,-0.03 0.05,-0.02 0.05,-0.02 1.78,-1.1 3.65,-1.92 5.57,-2.43 8.27,-2.25 7.23,-1.5 -0.49,1.34"
             style="fill:#3e7f85;fill-opacity:1;fill-rule:nonzero;stroke:none"
             id="path244"
             inkscape:connector-curvature="0" /><path
             d="m 2400.84,2765.34 c 11.53,-38.49 50.99,-63.65 78.59,-77.02 2.12,-1.04 4.17,-1.99 6.16,-2.88 0.01,-0.03 0.04,-0.02 0.04,-0.02 1.94,-0.87 3.81,-1.69 5.57,-2.44 -0.17,0.42 -0.35,0.88 -0.49,1.34 -3.51,9.3 -6.96,19.17 -10.06,29.49 -18.33,61.2 -36.19,174.54 -36.19,174.54 0,0 47.4,-104.5 65.74,-165.68 3.24,-10.83 5.91,-21.44 8.14,-31.56 4.32,6.42 9.38,14.69 14.34,24.27 13.5,26.14 25.63,61.69 15.89,94.22 -17.96,59.96 -120.62,144.55 -124.75,147.93 -0.07,0.08 -0.12,0.1 -0.12,0.1 0,0 0.01,-0.03 -0.01,-0.11 -1.45,-4.54 -40.86,-132.09 -22.85,-192.18"
             style="fill:#3e7f85;fill-opacity:1;fill-rule:nonzero;stroke:none"
             id="path246"
             inkscape:connector-curvature="0" /><path
             d="m 2490.71,2684.32 c -2.03,0.74 -4.51,1.63 -7.45,2.68 0.72,-0.59 1.51,-1.11 2.33,-1.56 0.01,-0.03 0.04,-0.02 0.04,-0.02 1.78,-1.1 3.66,-1.92 5.57,-2.44 8.27,-2.24 7.23,-1.5 -0.49,1.34"
             style="fill:#3e7f85;fill-opacity:1;fill-rule:nonzero;stroke:none"
             id="path248"
             inkscape:connector-curvature="0" /><path
             d="m 2466.22,4012.33 c -4.67,-49.89 21.66,-96.71 41.76,-124.56 1.54,-2.15 3.05,-4.17 4.52,-6.09 0,-0.05 0.04,-0.05 0.04,-0.05 1.43,-1.88 2.83,-3.66 4.16,-5.32 0.01,0.57 0.02,1.18 0.08,1.78 0.46,12.38 1.2,25.38 2.45,38.78 7.42,79.31 35.98,219.04 35.98,219.04 0,0 2.13,-142.6 -5.28,-221.91 -1.32,-14.04 -3.05,-27.56 -5.04,-40.32 6.53,5.53 14.49,12.89 22.84,21.83 22.81,24.36 48.09,60.3 52.04,102.46 7.26,77.72 -53.64,221.81 -56.1,227.57 -0.03,0.14 -0.07,0.18 -0.07,0.18 0,0 -0.01,-0.04 -0.06,-0.12 -3.12,-4.63 -90.04,-135.38 -97.32,-213.27"
             style="fill:#3e7f85;fill-opacity:1;fill-rule:nonzero;stroke:none"
             id="path250"
             inkscape:connector-curvature="0" /><path
             d="m 2516.78,3878.09 c -1.57,1.76 -3.51,3.91 -5.79,6.43 0.42,-1 0.94,-1.96 1.51,-2.84 0,-0.05 0.04,-0.05 0.04,-0.05 1.2,-2.07 2.6,-3.86 4.16,-5.32 6.72,-6.29 6.05,-4.96 0.08,1.78"
             style="fill:#3e7f85;fill-opacity:1;fill-rule:nonzero;stroke:none"
             id="path252"
             inkscape:connector-curvature="0" /><path
             d="m 1123.64,3523.42 c -6.67,-39.62 25.19,-80.9 49.64,-106.05 1.88,-1.93 3.71,-3.76 5.5,-5.51 0,-0.03 0.05,-0.04 0.05,-0.04 1.75,-1.71 3.46,-3.33 5.07,-4.84 0.02,0.45 0.05,0.94 0.13,1.42 0.79,9.93 1.93,20.32 3.72,30.95 10.61,63 48.51,171.91 48.51,171.91 0,0 0.15,-115.32 -10.45,-178.31 -1.88,-11.15 -4.28,-21.83 -6.96,-31.85 8.19,3.59 18.19,8.47 28.72,14.57 28.74,16.61 60.76,42.23 66.39,75.72 10.39,61.72 -62.66,186.07 -65.61,191.04 -0.04,0.12 -0.08,0.16 -0.08,0.16 0,0 -0.01,-0.03 -0.08,-0.09 -3.96,-3.32 -114.13,-97.22 -124.55,-159.08"
             style="fill:#3e7f85;fill-opacity:1;fill-rule:nonzero;stroke:none"
             id="path254"
             inkscape:connector-curvature="0" /><path
             d="m 1184.03,3408.4 c -1.93,1.64 -4.28,3.62 -7.08,5.96 0.52,-0.86 1.14,-1.71 1.83,-2.5 0,-0.03 0.05,-0.04 0.05,-0.04 1.45,-1.83 3.16,-3.46 5.07,-4.84 8.23,-5.97 7.43,-4.82 0.13,1.42"
             style="fill:#3e7f85;fill-opacity:1;fill-rule:nonzero;stroke:none"
             id="path256"
             inkscape:connector-curvature="0" /><path
             d="m 1186.2,3088.16 c 15.13,-50.49 57.75,-86.22 87.21,-105.79 2.26,-1.51 4.44,-2.9 6.56,-4.22 0.01,-0.04 0.05,-0.03 0.05,-0.03 2.06,-1.29 4.05,-2.51 5.92,-3.61 -0.21,0.55 -0.44,1.15 -0.62,1.77 -4.4,12.25 -8.78,25.23 -12.84,38.78 -24.05,80.26 -52.08,227.54 -52.08,227.54 0,0 57.57,-138.43 81.62,-218.69 4.25,-14.21 7.91,-28.07 11.05,-41.28 3.88,7.88 8.38,18.09 12.63,29.99 11.61,32.44 21.01,77.13 8.23,119.8 -23.56,78.64 -136.1,196.22 -140.62,200.92 -0.09,0.11 -0.14,0.15 -0.14,0.15 0,0 0.01,-0.05 0,-0.15 -1.09,-5.71 -30.59,-166.37 -6.97,-245.18"
             style="fill:#3e7f85;fill-opacity:1;fill-rule:nonzero;stroke:none"
             id="path258"
             inkscape:connector-curvature="0" /><path
             d="m 1285.32,2976.28 c -2.15,1.11 -4.77,2.47 -7.86,4.07 0.78,-0.81 1.64,-1.56 2.51,-2.2 0.01,-0.04 0.05,-0.03 0.05,-0.03 1.92,-1.57 3.91,-2.79 5.92,-3.61 8.67,-3.6 7.55,-2.56 -0.62,1.77"
             style="fill:#3e7f85;fill-opacity:1;fill-rule:nonzero;stroke:none"
             id="path260"
             inkscape:connector-curvature="0" /><path
             d="m 1778.7,3014.08 c 10.05,-33.53 40.08,-56.73 60.93,-69.34 1.61,-0.97 3.15,-1.87 4.65,-2.72 0.01,-0.03 0.04,-0.02 0.04,-0.02 1.46,-0.83 2.87,-1.61 4.19,-2.32 -0.14,0.37 -0.29,0.77 -0.41,1.18 -2.96,8.13 -5.9,16.73 -8.6,25.73 -15.96,53.29 -33.7,151.36 -33.7,151.36 0,0 39.1,-91.66 55.07,-144.96 2.83,-9.43 5.22,-18.64 7.27,-27.43 2.91,5.34 6.31,12.24 9.56,20.27 8.88,21.89 16.36,51.94 7.87,80.27 -15.64,52.22 -94.58,129.03 -97.76,132.1 -0.06,0.08 -0.1,0.1 -0.1,0.1 0,0 0.01,-0.03 0,-0.1 -0.88,-3.84 -24.69,-111.79 -9.01,-164.12"
             style="fill:#3e7f85;fill-opacity:1;fill-rule:nonzero;stroke:none"
             id="path262"
             inkscape:connector-curvature="0" /><path
             d="m 1848.1,2940.86 c -1.53,0.71 -3.39,1.58 -5.59,2.59 0.55,-0.53 1.15,-1.01 1.77,-1.43 0.01,-0.03 0.04,-0.02 0.04,-0.02 1.35,-1.02 2.76,-1.8 4.19,-2.32 6.17,-2.26 5.38,-1.58 -0.41,1.18"
             style="fill:#3e7f85;fill-opacity:1;fill-rule:nonzero;stroke:none"
             id="path264"
             inkscape:connector-curvature="0" /><path
             d="m 2070.94,3873.43 c 10.04,-33.53 49.54,-53.9 77.38,-64.41 2.13,-0.82 4.2,-1.56 6.2,-2.25 0.01,-0.03 0.06,-0.02 0.06,-0.02 1.95,-0.68 3.84,-1.31 5.63,-1.89 -0.16,0.37 -0.33,0.76 -0.45,1.17 -3.17,8.06 -6.26,16.63 -8.95,25.63 -15.97,53.29 -28.94,152.78 -28.94,152.78 0,0 43.87,-90.23 59.83,-143.53 2.83,-9.43 5.09,-18.69 6.89,-27.54 4.76,5.88 10.39,13.45 15.96,22.18 15.2,23.78 29.42,55.85 20.94,84.18 -15.65,52.22 -117.48,122.18 -121.58,124.97 -0.07,0.07 -0.13,0.09 -0.13,0.09 0,0 0.01,-0.03 -0.01,-0.1 -1.71,-4.09 -48.51,-118.93 -32.83,-171.26"
             style="fill:#3e7f85;fill-opacity:1;fill-rule:nonzero;stroke:none"
             id="path266"
             inkscape:connector-curvature="0" /><path
             d="m 2159.76,3806.03 c -2.06,0.55 -4.57,1.22 -7.55,2 0.71,-0.48 1.5,-0.9 2.31,-1.26 0.01,-0.03 0.06,-0.02 0.06,-0.02 1.78,-0.89 3.67,-1.52 5.63,-1.89 8.41,-1.59 7.38,-0.98 -0.45,1.17"
             style="fill:#3e7f85;fill-opacity:1;fill-rule:nonzero;stroke:none"
             id="path268"
             inkscape:connector-curvature="0" /><path
             d="m 994.641,2522.7 c 34.689,4.62 62.349,30.62 78.079,49.22 1.23,1.42 2.35,2.8 3.43,4.15 0.03,0.01 0.02,0.03 0.02,0.03 1.05,1.31 2.04,2.58 2.96,3.78 -0.39,-0.08 -0.81,-0.17 -1.23,-0.23 -8.49,-1.64 -17.46,-3.18 -26.77,-4.42 -55.15,-7.34 -154.782,-9.37 -154.782,-9.37 0,0 96.687,24.14 151.832,31.49 9.76,1.29 19.24,2.21 28.24,2.84 -4.81,3.72 -11.08,8.17 -18.5,12.64 -20.21,12.23 -48.7,24.36 -78.018,20.46 -54.039,-7.2 -142.359,-73.02 -145.886,-75.67 -0.086,-0.05 -0.11,-0.08 -0.11,-0.08 0,0 0.032,0.01 0.094,-0.02 3.645,-1.47 106.48,-42.04 160.641,-34.82"
             style="fill:#3e7f85;fill-opacity:1;fill-rule:nonzero;stroke:none"
             id="path270"
             inkscape:connector-curvature="0" /><path
             d="m 1077.9,2579.65 c -0.94,-1.39 -2.09,-3.09 -3.45,-5.1 0.62,0.46 1.19,0.98 1.7,1.52 0.03,0.01 0.02,0.03 0.02,0.03 1.22,1.18 2.21,2.45 2.96,3.78 3.2,5.74 2.41,5.06 -1.23,-0.23"
             style="fill:#3e7f85;fill-opacity:1;fill-rule:nonzero;stroke:none"
             id="path272"
             inkscape:connector-curvature="0" /><path
             d="m 1339.22,3698.53 c 10.05,-33.52 40.09,-56.73 60.94,-69.33 1.6,-0.98 3.15,-1.87 4.64,-2.72 0.01,-0.03 0.04,-0.02 0.04,-0.02 1.46,-0.83 2.87,-1.61 4.2,-2.32 -0.15,0.37 -0.3,0.76 -0.42,1.17 -2.96,8.13 -5.9,16.74 -8.6,25.74 -15.96,53.29 -33.7,151.35 -33.7,151.35 0,0 39.11,-91.66 55.08,-144.95 2.82,-9.44 5.22,-18.65 7.27,-27.43 2.91,5.33 6.31,12.23 9.56,20.26 8.87,21.89 16.35,51.94 7.87,80.27 -15.65,52.22 -94.59,129.04 -97.77,132.1 -0.05,0.08 -0.09,0.1 -0.09,0.1 0,0 0.01,-0.03 0,-0.09 -0.88,-3.84 -24.7,-111.79 -9.02,-164.13"
             style="fill:#3e7f85;fill-opacity:1;fill-rule:nonzero;stroke:none"
             id="path274"
             inkscape:connector-curvature="0" /><path
             d="m 1408.62,3625.31 c -1.52,0.72 -3.39,1.58 -5.59,2.6 0.55,-0.53 1.16,-1.02 1.77,-1.43 0.01,-0.03 0.04,-0.02 0.04,-0.02 1.36,-1.02 2.77,-1.8 4.2,-2.32 6.17,-2.26 5.38,-1.58 -0.42,1.17"
             style="fill:#3e7f85;fill-opacity:1;fill-rule:nonzero;stroke:none"
             id="path276"
             inkscape:connector-curvature="0" /><path
             d="m 1706.39,3751.67 c 10.05,-33.52 40.09,-56.72 60.94,-69.33 1.6,-0.98 3.14,-1.87 4.64,-2.72 0.01,-0.03 0.04,-0.02 0.04,-0.02 1.46,-0.83 2.87,-1.61 4.2,-2.32 -0.15,0.37 -0.3,0.76 -0.42,1.17 -2.96,8.13 -5.9,16.74 -8.6,25.74 -15.96,53.29 -33.7,151.35 -33.7,151.35 0,0 39.1,-91.66 55.07,-144.95 2.83,-9.43 5.23,-18.65 7.27,-27.43 2.92,5.33 6.31,12.24 9.57,20.26 8.87,21.9 16.35,51.94 7.87,80.27 -15.65,52.22 -94.59,129.04 -97.77,132.1 -0.05,0.09 -0.09,0.11 -0.09,0.11 0,0 0.01,-0.03 0,-0.1 -0.88,-3.84 -24.7,-111.79 -9.02,-164.13"
             style="fill:#3e7f85;fill-opacity:1;fill-rule:nonzero;stroke:none"
             id="path278"
             inkscape:connector-curvature="0" /><path
             d="m 1775.79,3678.45 c -1.53,0.72 -3.39,1.58 -5.59,2.6 0.55,-0.53 1.16,-1.01 1.77,-1.43 0.01,-0.03 0.04,-0.02 0.04,-0.02 1.35,-1.02 2.77,-1.8 4.2,-2.32 6.17,-2.26 5.37,-1.59 -0.42,1.17"
             style="fill:#3e7f85;fill-opacity:1;fill-rule:nonzero;stroke:none"
             id="path280"
             inkscape:connector-curvature="0" /><path
             style="fill:#008000;stroke-width:0.74548024"
             d="m 148.43111,247.64619 c -9.39355,-2.52607 -17.3451,-9.52717 -26.75319,-23.55537 -6.11376,-9.11609 -13.15222,-21.4162 -12.58152,-21.9869 0.54058,-0.54058 13.23091,1.6204 22.48341,3.8286 19.34282,4.61636 28.46323,9.82129 34.82914,19.87665 1.73706,2.74381 4.92452,10.75876 5.50127,13.83307 l 0.48314,2.57535 -8.10635,-5.5578 c -12.51519,-8.58054 -38.77382,-24.13538 -39.50664,-23.40256 -0.7726,0.7726 31.57273,27.06041 40.53242,32.94164 1.74256,1.14384 3.16829,2.20286 3.16829,2.35338 0,0.77834 -16.57097,0.0295 -20.04997,-0.90606 z"
             id="path5150"
             inkscape:connector-curvature="0"
             transform="matrix(7.5000002,0,0,-7.5000002,33.546611,4528.7925)" /><path
             style="fill:#008000;stroke-width:0.74548024"
             d="m 123.96281,188.2171 c -4.10684,-6.01035 -4.84499,-10.75093 -2.48384,-15.9518 1.62994,-3.59025 6.30606,-10.56771 9.64245,-14.38796 2.78792,-3.19225 2.97428,-2.9945 5.97144,6.33658 3.11728,9.70506 3.51124,13.67697 1.75008,17.64468 -1.33439,3.00624 -7.33995,9.36428 -8.114,8.59023 -0.19005,-0.19005 -0.0106,-3.15145 0.39867,-6.5809 1.15465,-9.67421 1.65728,-20.41837 0.91783,-19.61938 -0.83855,0.90607 -4.48654,14.81459 -5.60224,21.35937 l -0.85124,4.99344 z"
             id="path5152"
             inkscape:connector-curvature="0"
             transform="matrix(7.5000002,0,0,-7.5000002,33.546611,4528.7925)" /><path
             style="fill:#008000;stroke-width:0.74548024"
             d="m 159.14083,146.98695 c 0.6143,-3.20233 1.79236,-23.59059 1.39167,-24.08506 -0.13844,-0.17084 -0.39348,-0.16885 -0.56675,0.004 -0.73176,0.73176 -5.61983,17.99371 -6.08213,21.47873 -0.27733,2.09061 -0.78111,3.80107 -1.11952,3.80107 -1.19881,0 -5.9141,-6.96786 -6.70637,-9.91012 -1.01274,-3.76104 0.42212,-7.91173 4.53274,-13.11205 3.23117,-4.08774 10.36098,-11.26992 11.18774,-11.26992 0.90754,0 5.69384,10.42513 7.4538,16.23527 1.11789,3.69052 1.48558,6.26776 1.14966,8.05839 -0.59986,3.19752 -4.36386,7.52244 -8.63694,9.92405 l -3.16039,1.77624 z"
             id="path5154"
             inkscape:connector-curvature="0"
             transform="matrix(7.5000002,0,0,-7.5000002,33.546611,4528.7925)" /><path
             style="fill:#008000;stroke-width:0.74548024"
             d="m 227.57423,354.01273 c -1.73494,-0.29886 -3.32123,-0.71018 -3.52509,-0.91403 -0.20385,-0.20386 1.57501,-3.36906 3.95303,-7.03379 4.6205,-7.12058 9.31732,-11.91543 12.43938,-12.69902 2.58861,-0.6497 8.35516,-0.002 11.42443,1.28228 l 2.50029,1.04658 -5.35805,2.79881 c -6.71744,3.50888 -17.34368,10.29285 -16.86782,10.76871 0.47202,0.47202 11.26141,-3.12509 18.52987,-6.17772 3.8166,-1.60291 5.77748,-2.11077 5.77748,-1.49635 0,1.94389 -4.56792,9.80553 -6.52636,11.23222 -1.73596,1.26461 -3.34816,1.50953 -10.61969,1.61333 -4.71516,0.0673 -9.99252,-0.12216 -11.72747,-0.42102 z"
             id="path5156"
             inkscape:connector-curvature="0"
             transform="matrix(7.5000002,0,0,-7.5000002,33.546611,4528.7925)" /><path
             style="fill:#008000;stroke-width:0.74548024"
             d="m 187.86356,353.25278 c 0,-2.85892 5.22964,-19.50829 7.88574,-25.10548 5.27437,-11.11468 10.90946,-14.98393 22.94109,-15.75218 l 6.81993,-0.43546 -6.70933,7.03716 c -7.26693,7.62202 -21.66598,25.07927 -21.12885,25.6164 0.63326,0.63326 19.52587,-14.85318 28.11447,-23.0457 l 4.74917,-4.53015 -0.42076,6.33658 c -1.10062,16.57541 -7.89455,22.39922 -34.42391,29.50847 -8.07145,2.16295 -7.82755,2.15141 -7.82755,0.37036 z"
             id="path5158"
             inkscape:connector-curvature="0"
             transform="matrix(7.5000002,0,0,-7.5000002,33.546611,4528.7925)" /><path
             style="fill:#008000;stroke-width:0.74548024"
             d="m 156.63599,327.22344 c -0.82827,-0.56872 -0.31263,-1.65964 2.57534,-5.44859 5.17422,-6.78844 12.85832,-14.32084 16.50848,-16.18258 3.54745,-1.80934 11.1584,-2.17654 16.18524,-0.78087 l 2.92326,0.81163 -8.17573,4.25144 c -9.16346,4.76506 -21.34068,12.06975 -20.88328,12.52715 0.43825,0.43825 18.57259,-6.21356 25.00798,-9.17311 3.03759,-1.39694 5.66,-2.40278 5.82759,-2.2352 0.68569,0.68569 -3.77399,8.1588 -6.48924,10.87406 -4.14247,4.14247 -8.52335,5.30092 -21.63455,5.7209 -6.2594,0.20051 -11.24539,0.0469 -11.84509,-0.36483 z"
             id="path5160"
             inkscape:connector-curvature="0"
             transform="matrix(7.5000002,0,0,-7.5000002,33.546611,4528.7925)" /><path
             style="fill:#008000;stroke-width:0.74548024"
             d="m 172.58122,296.56008 c -7.67857,-1.66048 -13.31469,-5.64517 -24.97359,-17.65609 l -8.57302,-8.83188 4.47288,-0.24566 c 9.6033,-0.52744 27.28211,2.41728 33.34978,5.55499 3.36671,1.74099 8.40053,6.65776 11.0611,10.80391 1.30539,2.03427 2.22409,3.84803 2.04155,4.03057 -0.18254,0.18254 -3.68149,-1.14227 -7.77545,-2.94402 -12.02839,-5.29368 -30.10396,-12.11751 -30.10396,-11.36476 0,0.53829 18.09391,10.74964 27.4333,15.48208 4.63295,2.3476 8.13554,4.44636 7.78353,4.66391 -1.2575,0.77718 -11.78886,1.13997 -14.71612,0.50695 z"
             id="path5162"
             inkscape:connector-curvature="0"
             transform="matrix(7.5000002,0,0,-7.5000002,33.546611,4528.7925)" /><path
             style="fill:#008000;stroke-width:0.74548024"
             d="m 119.36361,266.31143 c -2.61877,-0.56814 -6.41912,-1.58358 -8.44523,-2.25654 l -3.68382,-1.22357 3.84507,-2.58942 c 10.25918,-6.90894 17.2451,-8.47141 23.76484,-5.31526 l 3.36265,1.62783 -10.75219,2.12058 c -12.05013,2.37656 -15.50015,3.98521 -7.05733,3.29065 2.8701,-0.23611 8.06983,-0.61825 11.55495,-0.84918 l 6.33658,-0.41988 -2.91849,2.63657 c -2.83557,2.56166 -6.71461,4.17866 -9.75467,4.0663 -0.82003,-0.0303 -3.63359,-0.51995 -6.25236,-1.08808 z"
             id="path5164"
             inkscape:connector-curvature="0"
             transform="matrix(7.5000002,0,0,-7.5000002,33.546611,4528.7925)" /><path
             style="fill:#008000;stroke-width:0.74548024"
             d="m 161.20638,202.28051 c -5.72819,-5.30329 -7.76032,-9.77522 -8.22359,-18.09697 -0.37204,-6.68287 1.14194,-23.32428 2.12195,-23.32428 0.83911,0 8.28899,8.86623 11.78562,14.02627 4.79949,7.08268 6.25984,10.56894 6.63887,15.84882 0.34592,4.81863 -1.36633,13.36276 -2.67792,13.36276 -0.31352,0 -0.99531,-1.59003 -1.51508,-3.5334 -1.8114,-6.77262 -10.39026,-28.92688 -10.97501,-28.34213 -0.43913,0.43913 5.33238,26.32354 6.79163,30.45949 0.60924,1.72676 0.97462,3.27266 0.81195,3.43533 -0.16266,0.16267 -2.30395,-1.56348 -4.75842,-3.83589 z"
             id="path5166"
             inkscape:connector-curvature="0"
             transform="matrix(7.5000002,0,0,-7.5000002,33.546611,4528.7925)" /><path
             style="fill:#008000;stroke-width:0.74548024"
             d="m 195.16573,201.02754 c -5.31749,-3.63803 -11.1384,-9.50447 -13.60215,-13.70854 -5.17959,-8.83831 -6.05306,-26.16373 -2.54919,-50.56361 l 0.83858,-5.8396 3.31983,3.23042 c 4.69136,4.56501 15.00256,16.51079 19.19697,22.24017 7.3916,10.09659 10.75944,19.76522 9.71331,27.88564 -0.66409,5.15495 -2.4074,11.91457 -3.85644,14.95324 l -1.19515,2.50627 -2.88618,-8.61284 c -4.13215,-12.33099 -17.11482,-43.44164 -18.12847,-43.44164 -0.50121,0 -0.66936,-0.77367 4.37462,20.12797 2.22626,9.22532 5.27831,20.57685 6.78233,25.22563 1.50403,4.64879 2.62437,8.55452 2.48966,8.6794 -0.13472,0.12489 -2.15869,-1.08224 -4.49772,-2.68251 z"
             id="path5168"
             inkscape:connector-curvature="0"
             transform="matrix(7.5000002,0,0,-7.5000002,33.546611,4528.7925)" /><path
             style="fill:#008000;stroke-width:0.74548024"
             d="m 188.83747,236.54072 c -5.55991,-3.74426 -7.28814,-6.96101 -7.21038,-13.42063 0.0669,-5.56029 2.18979,-17.42336 3.33206,-18.62044 0.86761,-0.90923 10.88659,9.20847 14.0355,14.17379 1.70361,2.6863 2.28756,4.48744 2.28756,7.05575 0,5.4188 -3.08149,13.20848 -4.06839,10.28445 -3.38088,-10.017 -9.19976,-24.11524 -9.73313,-23.58186 -0.40945,0.40945 3.80673,21.33458 4.85333,24.08735 0.43429,1.14227 0.67786,2.18861 0.54127,2.3252 -0.1366,0.1366 -1.95362,-0.90003 -4.03782,-2.30361 z"
             id="path5170"
             inkscape:connector-curvature="0"
             transform="matrix(7.5000002,0,0,-7.5000002,33.546611,4528.7925)" /><path
             style="fill:#008000;stroke-width:0.74548024"
             d="m 197.70474,136.8612 c -0.90618,-2.58661 -1.85774,-6.76257 -2.11458,-9.27991 -0.84592,-8.29091 3.37184,-18.07801 14.63781,-33.966244 l 4.84562,-6.833712 0.88398,4.796942 c 1.60135,8.689844 2.64099,22.367624 2.12151,27.911204 -0.33231,3.5463 -1.2316,6.97469 -2.57415,9.81351 -2.10199,4.44465 -9.20702,12.93764 -10.09515,12.06722 -0.26898,-0.26362 0.3431,-4.45695 1.36017,-9.31851 2.3312,-11.14298 5.17886,-29.023 4.80228,-30.15273 -0.34665,-1.03998 -7.22958,20.43939 -10.12843,31.60757 l -2.09146,8.0576 z"
             id="path5172"
             inkscape:connector-curvature="0"
             transform="matrix(7.5000002,0,0,-7.5000002,33.546611,4528.7925)" /><path
             style="fill:#008000;stroke-width:0.74548024"
             d="m 179.10527,117.23618 c -4.53149,-3.87879 -5.74545,-7.71654 -5.13279,-16.22664 0.27206,-3.778919 0.74644,-8.003037 1.05419,-9.386927 l 0.55954,-2.516163 4.46135,5.302273 c 6.47422,7.694557 8.79664,12.305327 8.31265,16.503357 -0.21271,1.84506 -0.78693,4.36106 -1.27604,5.5911 l -0.88928,2.23644 -1.11762,-3.35466 c -2.13186,-6.39907 -7.05763,-18.732813 -7.36045,-18.429993 -0.3828,0.382794 2.34066,13.714203 3.81781,18.688293 0.60803,2.04746 0.99689,3.83128 0.86413,3.96404 -0.13276,0.13276 -1.61483,-0.93424 -3.29349,-2.37112 z"
             id="path5174"
             inkscape:connector-curvature="0"
             transform="matrix(7.5000002,0,0,-7.5000002,33.546611,4528.7925)" /><path
             style="fill:#008000;stroke-width:0.74548024"
             d="m 228.31576,168.6868 c -8.23904,-11.01843 -8.39719,-18.19529 -0.73922,-33.54661 3.64456,-7.30597 10.11683,-17.51879 11.10235,-17.51879 0.94323,0 6.50633,11.9428 9.54947,20.50071 1.53277,4.31045 2.53368,8.77235 2.79942,12.47933 0.38509,5.37196 0.25463,6.09194 -1.89111,10.43672 -1.31168,2.65595 -4.07014,6.40512 -6.40201,8.70132 l -4.09728,4.0346 0.43023,-6.64378 c 0.54254,-8.37815 -0.47237,-36.43281 -1.28774,-35.59635 -0.94877,0.97332 -4.51925,25.04474 -5.06853,34.17093 l -0.49354,8.20028 z"
             id="path5176"
             inkscape:connector-curvature="0"
             transform="matrix(7.5000002,0,0,-7.5000002,33.546611,4528.7925)" /><path
             style="fill:#008000;stroke-width:0.74548024"
             d="m 228.66986,110.81991 c -1.13235,-0.84474 -2.9393,-3.03831 -4.01543,-4.8746 -1.87899,-3.20624 -1.94088,-3.66935 -1.55993,-11.672761 0.21817,-4.58373 0.70821,-9.136305 1.08897,-10.116833 0.66517,-1.712937 0.86534,-1.573035 5.10971,3.571229 7.75521,9.399479 9.35225,14.274635 7.00554,21.385245 l -0.90217,2.73361 -3.51191,-9.62529 c -3.47115,-9.51361 -5.18937,-13.3565 -5.23343,-11.704827 -0.0375,1.404684 2.80375,14.546947 3.96628,18.346327 1.21019,3.9551 1.00545,4.16092 -1.94763,1.9579 z"
             id="path5178"
             inkscape:connector-curvature="0"
             transform="matrix(7.5000002,0,0,-7.5000002,33.546611,4528.7925)" /><path
             style="fill:#008000;stroke-width:0.74548024"
             d="m 256.79999,115.85631 c -4.77533,-3.2159 -9.08119,-7.99195 -10.88835,-12.07734 -2.14075,-4.839511 -3.08449,-14.29514 -2.50752,-25.123522 0.81764,-15.345397 0.15781,-14.983192 9.78895,-5.373482 8.87537,8.855614 14.5363,16.229053 16.30199,21.233556 0.61425,1.740953 1.11681,5.365579 1.11681,8.054728 0,5.04121 -1.93506,13.56019 -3.08016,13.56019 -0.35598,0 -0.64724,-0.37858 -0.64724,-0.84129 0,-2.21181 -16.21592,-36.865858 -16.92098,-36.160795 -0.67877,0.678763 4.68433,18.486587 11.42437,37.933935 0.65696,1.89557 -0.39162,1.61993 -4.58787,-1.20598 z"
             id="path5180"
             inkscape:connector-curvature="0"
             transform="matrix(7.5000002,0,0,-7.5000002,33.546611,4528.7925)" /><path
             style="fill:#008000;stroke-width:0.74548024"
             d="m 278.01545,93.568764 c -5.38531,-3.207987 -6.89844,-6.111235 -6.27473,-12.039394 0.51635,-4.907744 3.8202,-16.091583 4.75366,-16.091583 1.43114,0 12.10716,9.965953 13.83569,12.915471 2.28074,3.891795 2.36771,6.483669 0.36561,10.896986 -2.6581,5.859387 -2.99894,5.87803 -4.79549,0.262296 -1.76218,-5.508325 -6.9175,-17.043565 -7.39728,-16.551741 -0.41916,0.429678 1.63482,12.862498 2.98894,18.092153 0.62219,2.402939 1.00555,4.494696 0.85189,4.64835 -0.15365,0.153654 -2.10138,-0.805988 -4.32829,-2.132538 z"
             id="path5182"
             inkscape:connector-curvature="0"
             transform="matrix(7.5000002,0,0,-7.5000002,33.546611,4528.7925)" /><path
             style="fill:#008000;stroke-width:0.74548024"
             d="m 313.39437,130.14052 c -0.10285,-16.97877 -1.94701,-43.911856 -2.93882,-42.920048 -0.68008,0.680078 -3.4304,31.429318 -3.83696,42.898038 -0.52195,14.72415 -0.41568,14.62611 -6.21161,5.73017 -10.0532,-15.43025 -8.84134,-28.41299 5.40687,-57.924099 2.52397,-5.22768 4.8131,-9.504873 5.08696,-9.504873 1.46053,0 11.62796,24.975898 14.25029,35.005312 3.64994,13.95962 0.80463,25.79689 -8.93024,37.15223 l -2.74388,3.20062 z"
             id="path5184"
             inkscape:connector-curvature="0"
             transform="matrix(7.5000002,0,0,-7.5000002,33.546611,4528.7925)" /><path
             style="fill:#008000;stroke-width:0.74548024"
             d="m 336.103,69.35332 c 0.1454,-9.328791 0.0901,-16.793687 -0.1229,-16.58866 -0.58304,0.561209 -4.98078,27.288459 -5.00804,30.436341 -0.0228,2.628932 -0.0705,2.678365 -1.20314,1.246532 -4.64044,-5.866116 -6.05849,-14.355821 -3.61105,-21.618927 1.48585,-4.409463 9.14225,-19.432798 10.46167,-20.527817 1.86987,-1.551857 7.79487,18.564238 7.79487,26.464537 0,5.139239 -1.98862,9.895099 -6.16848,14.752118 l -2.40731,2.797312 z"
             id="path5186"
             inkscape:connector-curvature="0"
             transform="matrix(7.5000002,0,0,-7.5000002,33.546611,4528.7925)" /><path
             style="fill:#008000;stroke-width:0.74548024"
             d="m 360.47611,100.8481 c 0.60347,-1.693883 1.46139,-34.492555 0.88723,-33.919352 -0.55226,0.551343 -4.14964,19.41317 -5.26065,27.582768 l -0.96312,7.082064 -2.38524,-4.100143 c -5.02577,-8.639116 -5.06531,-14.964274 -0.15762,-25.21712 4.04307,-8.446552 9.73279,-17.55852 10.47491,-16.775367 0.97887,1.032988 5.78645,15.966299 6.73361,20.915943 1.0972,5.733715 0.65771,11.589682 -1.15446,15.382513 -1.49623,3.131579 -9.04254,11.484744 -8.17466,9.048694 z"
             id="path5188"
             inkscape:connector-curvature="0"
             transform="matrix(7.5000002,0,0,-7.5000002,33.546611,4528.7925)" /><path
             style="fill:#008000;stroke-width:0.74548024"
             d="m 340.14158,121.79377 c -2.98715,-4.51483 -3.56517,-7.41812 -2.4899,-12.50631 0.96229,-4.55355 4.35678,-13.837708 5.26449,-14.3987 0.33636,-0.207882 2.16104,2.74418 4.05485,6.56014 4.12621,8.31415 4.95378,13.11437 3.0985,17.97237 -1.3881,3.63467 -3.41867,5.96343 -3.41867,3.9207 0,-2.31524 -2.29305,-18.79876 -2.81804,-20.25743 -0.29514,-0.82003 -0.70435,3.87335 -0.90936,10.42974 l -0.37274,11.9207 z"
             id="path5190"
             inkscape:connector-curvature="0"
             transform="matrix(7.5000002,0,0,-7.5000002,33.546611,4528.7925)" /><path
             style="fill:#008000;stroke-width:0.74548024"
             d="m 326.70209,184.71462 c 0.21087,-1.02503 1.10021,-4.98441 1.9763,-8.79862 1.94946,-8.48728 5.32055,-27.50758 5.24174,-29.57477 -0.0714,-1.87207 -8.32432,22.21046 -10.66076,31.10865 -0.94255,3.58965 -1.91222,6.72513 -2.15482,6.96773 -0.99525,0.99525 -3.52681,-9.73585 -3.50973,-14.87749 0.0206,-6.19725 1.70886,-10.92816 7.05622,-19.77309 4.06078,-6.71684 12.33583,-18.20274 12.78826,-17.75031 0.5975,0.5975 1.79749,9.51274 2.4662,18.32252 1.33527,17.59108 -1.1881,25.12933 -11.50689,34.37538 l -2.07993,1.8637 z"
             id="path5192"
             inkscape:connector-curvature="0"
             transform="matrix(7.5000002,0,0,-7.5000002,33.546611,4528.7925)" /><path
             style="fill:#008000;stroke-width:0.74548024"
             d="m 287.8323,224.97056 c -1.80416,-2.25508 -4.47148,-6.5959 -5.92738,-9.64626 -4.85679,-10.17577 -4.16035,-20.02077 2.69573,-38.10731 3.49778,-9.22725 9.86171,-23.06706 10.60687,-23.06706 0.71758,0 6.69768,12.83764 10.35774,22.23525 4.66481,11.9774 6.27372,19.35107 5.90501,27.06285 -0.27822,5.81914 -0.64411,7.18885 -3.41316,12.77701 -1.70584,3.44254 -4.44125,7.74112 -6.07868,9.55241 l -2.97716,3.29325 -0.0463,-8.20028 c -0.0406,-7.19318 -1.07836,-23.13518 -2.70537,-41.56053 -0.28059,-3.17761 -0.74344,-5.77747 -1.02856,-5.77747 -0.69898,0 -2.98608,27.18594 -3.60731,42.87898 l -0.50114,12.6593 z"
             id="path5194"
             inkscape:connector-curvature="0"
             transform="matrix(7.5000002,0,0,-7.5000002,33.546611,4528.7925)" /><path
             style="fill:#008000;stroke-width:0.74548024"
             d="m 276.89613,164.9594 c 1.11281,-4.26801 2.58754,-41.54869 1.60469,-40.56584 -0.50971,0.50972 -4.82265,25.0316 -5.88917,33.48378 l -0.98769,7.82754 -1.93126,-3.75924 c -4.89675,-9.53165 -5.3424,-16.85744 -1.65464,-27.19969 2.55635,-7.16926 11.58478,-24.82616 12.29893,-24.05303 0.74267,0.80401 4.04721,12.65386 5.5702,19.97439 0.6824,3.28011 1.28155,8.82746 1.33143,12.32744 0.0836,5.86382 -0.11914,6.80058 -2.58115,11.92768 -2.62036,5.45685 -8.5749,13.15726 -7.76134,10.03697 z"
             id="path5196"
             inkscape:connector-curvature="0"
             transform="matrix(7.5000002,0,0,-7.5000002,33.546611,4528.7925)" /><path
             style="fill:#008000;stroke-width:0.74548024"
             d="m 238.3611,209.2233 c -1.13235,-0.84474 -2.94163,-3.0423 -4.02063,-4.88347 -1.89883,-3.24011 -1.94876,-3.63069 -1.55546,-12.16717 0.56719,-12.31067 0.82396,-12.55886 6.21916,-6.01159 7.63901,9.2702 9.08317,13.69386 6.8758,21.06141 l -0.87654,2.92562 -2.76989,-7.68475 c -3.47171,-9.63184 -5.79269,-14.79765 -5.8611,-13.04509 -0.0655,1.67728 3.27525,16.55269 4.34296,19.3381 0.9325,2.43269 0.41762,2.53481 -2.3543,0.46694 z"
             id="path5198"
             inkscape:connector-curvature="0"
             transform="matrix(7.5000002,0,0,-7.5000002,33.546611,4528.7925)" /><path
             style="fill:#008000;stroke-width:0.74548024"
             d="m 387.65227,266.34504 c 0,-0.20482 0.50033,-3.30788 1.11185,-6.89569 1.20252,-7.05525 3.52537,-33.81746 2.98235,-34.36048 -0.45005,-0.45005 -0.62074,0.0704 -4.38601,13.37334 -1.81015,6.39537 -3.83909,14.44656 -4.50875,17.89152 -2.14392,11.02897 -1.71481,10.24978 -3.88547,7.05536 -3.87103,-5.69674 -5.76301,-10.95077 -5.80813,-16.12927 -0.0375,-4.30391 0.33939,-5.67199 3.09469,-11.23335 3.09209,-6.24116 12.38501,-19.44204 16.13885,-22.92575 l 1.92432,-1.78585 0.82852,2.15859 c 4.54045,11.82957 7.37838,23.82061 7.40125,31.27232 0.0128,4.16945 -0.37915,6.05159 -1.89269,9.08887 -2.40981,4.83585 -13.00078,15.01104 -13.00078,12.49039 z"
             id="path5252"
             inkscape:connector-curvature="0"
             transform="matrix(7.5000002,0,0,-7.5000002,33.546611,4528.7925)" /><path
             style="fill:#008000;stroke-width:0.74548024"
             d="m 385.41583,204.51838 c 0,-0.17831 0.35607,-1.26076 0.79128,-2.40544 0.89002,-2.34092 2.54804,-9.8046 4.02458,-18.11685 0.84406,-4.75172 0.83758,-5.35792 -0.0444,-4.15173 -1.31593,1.79962 -8.49887,19.9891 -8.49887,21.52179 0,2.42573 -1.29449,1.77836 -2.85123,-1.4259 -2.10723,-4.3373 -2.13504,-9.8058 -0.0705,-13.8527 0.85315,-1.67231 4.44407,-6.04148 7.97981,-9.70925 7.31754,-7.59078 6.76054,-7.7172 8.81057,1.99974 1.49412,7.08195 1.52954,15.16398 0.0786,17.93643 -2.01405,3.84847 -10.21988,10.43563 -10.21988,8.20391 z"
             id="path5254"
             inkscape:connector-curvature="0"
             transform="matrix(7.5000002,0,0,-7.5000002,33.546611,4528.7925)" /></g></g></g></g></svg>