<?xml version="1.0" encoding="UTF-8" standalone="no"?>
<!-- Created with Inkscape (http://www.inkscape.org/) -->

<svg
   xmlns:dc="http://purl.org/dc/elements/1.1/"
   xmlns:cc="http://creativecommons.org/ns#"
   xmlns:rdf="http://www.w3.org/1999/02/22-rdf-syntax-ns#"
   xmlns:svg="http://www.w3.org/2000/svg"
   xmlns="http://www.w3.org/2000/svg"
   xmlns:sodipodi="http://sodipodi.sourceforge.net/DTD/sodipodi-0.dtd"
   xmlns:inkscape="http://www.inkscape.org/namespaces/inkscape"
   id="svg2"
   sodipodi:docname="necklace_acorn.svg"
   viewBox="0 0 1439.2 1792.9"
   version="1.1"
   inkscape:version="0.92.2 (unknown)">
  <defs
     id="defs4">
    <filter
       id="filter2834"
       inkscape:menu="Bevels"
       inkscape:menu-tooltip="Bright metallic effect for any color"
       inkscape:label="Bright metal"
       color-interpolation-filters="sRGB">
      <feGaussianBlur
         id="feGaussianBlur2836"
         in="SourceGraphic"
         stdDeviation="8"
         result="result6" />
      <feComposite
         id="feComposite2838"
         operator="xor"
         result="result10"
         in2="SourceGraphic"
         in="result6" />
      <feGaussianBlur
         id="feGaussianBlur2840"
         stdDeviation="8"
         result="result2" />
      <feComposite
         id="feComposite2842"
         operator="atop"
         result="result91"
         in2="SourceGraphic"
         in="result10" />
      <feComposite
         id="feComposite2844"
         operator="xor"
         in="result2"
         in2="result91"
         result="result4" />
      <feGaussianBlur
         id="feGaussianBlur2846"
         result="result3"
         stdDeviation="4"
         in="result4" />
      <feSpecularLighting
         id="feSpecularLighting2848"
         surfaceScale="18"
         specularConstant="1.10000002"
         specularExponent="5"
         result="result5">
        <feDistantLight
           id="feDistantLight2850"
           elevation="55"
           azimuth="235" />
      </feSpecularLighting>
      <feComposite
         id="feComposite2852"
         k4="0"
         in2="result5"
         k3="1.1"
         k2="0.5"
         k1="0.5"
         result="result7"
         in="result3"
         operator="arithmetic" />
      <feComposite
         id="feComposite2854"
         operator="atop"
         result="result8"
         in2="SourceGraphic"
         in="result7" />
    </filter>
    <filter
       id="filter2880"
       inkscape:menu="Bevels"
       inkscape:menu-tooltip="Bright metallic effect for any color"
       inkscape:label="Bright metal"
       color-interpolation-filters="sRGB">
      <feGaussianBlur
         id="feGaussianBlur2882"
         in="SourceGraphic"
         stdDeviation="8"
         result="result6" />
      <feComposite
         id="feComposite2884"
         operator="xor"
         result="result10"
         in2="SourceGraphic"
         in="result6" />
      <feGaussianBlur
         id="feGaussianBlur2886"
         stdDeviation="8"
         result="result2" />
      <feComposite
         id="feComposite2888"
         operator="atop"
         result="result91"
         in2="SourceGraphic"
         in="result10" />
      <feComposite
         id="feComposite2890"
         operator="xor"
         in="result2"
         in2="result91"
         result="result4" />
      <feGaussianBlur
         id="feGaussianBlur2892"
         result="result3"
         stdDeviation="4"
         in="result4" />
      <feSpecularLighting
         id="feSpecularLighting2894"
         surfaceScale="18"
         specularConstant="1.10000002"
         specularExponent="5"
         result="result5">
        <feDistantLight
           id="feDistantLight2896"
           elevation="55"
           azimuth="235" />
      </feSpecularLighting>
      <feComposite
         id="feComposite2898"
         k4="0"
         in2="result5"
         k3="1.1"
         k2="0.5"
         k1="0.5"
         result="result7"
         in="result3"
         operator="arithmetic" />
      <feComposite
         id="feComposite2900"
         operator="atop"
         result="result8"
         in2="SourceGraphic"
         in="result7" />
    </filter>
  </defs>
  <sodipodi:namedview
     id="base"
     bordercolor="#666666"
     inkscape:pageshadow="2"
     inkscape:window-y="0"
     pagecolor="#ffffff"
     inkscape:window-height="715"
     inkscape:window-maximized="1"
     inkscape:zoom="0.175"
     inkscape:window-x="0"
     showgrid="false"
     borderopacity="1.0"
     inkscape:current-layer="layer1"
     inkscape:cx="544.814"
     inkscape:cy="906.40628"
     inkscape:window-width="1366"
     inkscape:pageopacity="0.0"
     inkscape:document-units="px" />
  <g
     id="layer1"
     inkscape:label="Layer 1"
     inkscape:groupmode="layer"
     transform="translate(838.22 737.42)">
    <path
       id="path3701"
       sodipodi:nodetypes="cscsscsccsscccssssccsccsccsccsssccscsccsscssscccsssscccc"
       style="opacity:.5;fill:#008000"
       d="m-236.59-737.41c-169.53 1.0678-343.09 80.984-464.09 231.09-45.162 56.027-80.734 115.92-106.06 177.44-0.0141 0.0296-0.0171 0.0641-0.0312 0.0937-0.0202 0.0423-0.0423 0.0827-0.0625 0.125-0.0264 0.0642-0.0674 0.12322-0.0937 0.1875-7.689 16.174-14.129 33.994-19.156 53.094-1.2548 4.767-2.4287 9.6113-3.5 14.531h0.0312c-5.5876 25.652-8.6562 53.296-8.6562 82.125 0 134.13 65.892 242.88 147.16 242.88 0.63962 0 1.2691-0.01711 1.9062-0.03125l0.125 0.25 0.53125 1.2812c4.3008-1.0563 8.6366-2.0153 13-2.875 0.0619-0.01219 0.1256-0.0191 0.1875-0.03125 0.28072-0.05512 0.56278-0.10195 0.84375-0.15625 17.701-3.4207 35.894-5.2188 54.469-5.2188 133.01 0 246.96 91.402 294.66 221.22h0.0937c51.607 272.54 195.67 468.06 360.97 468.06 63.003 0 122.4-28.445 174.66-78.688-4.691 9.8032-9.5623 19.381-14.656 28.688 105.39-97.663 175.72-273.54 175.72-474.28 0-150.31-109.98-268.08-103.5-386.69l6.0938-111.59c7.41-135.95-76.85-261.83-186.49-350.2-94.068-75.83-208.16-112.02-324.15-111.29zm-9.2188 91.438c92.115-0.58018 182.7 28.157 257.41 88.375 93.584 75.435 149.66 225.15 149.97 302.38 0.30758 77.225-5.0166 79.944 1.4688 123.66 8.936 60.231 28.494 114.03 54.125 155.53v7.4062c39.65 88.734 62.83 195.77 62.83 310.99 0 118.22-24.39 227.8-65.969 317.88-25.269 9.8052-51.463 14.969-78.312 14.969-158.55 0-294.32-179.84-350.69-435h-0.9375c-28.525-164.43-157.64-288.56-312.66-288.56-64.797 0-125.05 21.687-175.34 58.938-0.86812 0.64298-1.7316 1.2853-2.5938 1.9375-15.159-33.556-25.448-74.768-29.312-120.25-0.009-0.10381-0.0225-0.20864-0.0312-0.3125-0.0149-0.15559-0.0166-0.31314-0.0312-0.46875-1.0115-10.728-1.5486-21.528-1.6562-32.375 0.10506 10.847 0.64573 21.644 1.6562 32.375-1.2099-14.53-1.743-29.497-1.5938-44.781-0.0344 1.6072-0.0786 3.2074-0.0937 4.8125 0.0179-1.9373 0.0476-3.8724 0.0937-5.8125 0.00086-0.0733-0.0009-0.14543 0-0.21875 0.11156-9.1333 0.46849-18.381 1.0938-27.719 1.8782-28.049 5.9983-54.914 11.969-80.031 11.295-49.762 41.78-92.444 65.125-137.09 14.423-18.167 34.431-49.208 44.906-63.125 96.091-119.21 233.93-182.65 368.56-183.5z" />
    <g
       id="layer1-3"
       transform="matrix(1.5675691,0,0,1.5675691,-285.60569,-97.238277)">
      <path
         inkscape:connector-curvature="0"
         id="path2383"
         style="fill:#a05a2c;stroke:#000000;stroke-width:7.45020008;stroke-linecap:round;stroke-linejoin:round"
         d="m 408.56,465.76 c -30.57,-53.07 -104.32,-75.18 -159.03,-47.69 -38.43,18.95 -62.05,57.6 -76.74,96.26 -10.54,27.91 -17.04,59.1 -9.19,88.59 9.66,22.93 34.25,33.82 56.48,41.01 44.35,14.07 94.69,15.96 138.21,-2.87 53.18,-25.56 81.74,-92.09 62.67,-148.05 -3,-9.51 -7.27,-18.66 -12.4,-27.25 z" />
      <path
         inkscape:connector-curvature="0"
         id="path3250"
         style="fill:#000000;fill-opacity:0.31373004"
         d="m 323.03,408.16 c 8.32,4.5 16.06,10.1 22.91,16.81 6.69,6.35 12.72,13.4 17.75,21.09 30.8,44.93 21.97,111.07 -18.88,146.94 -33.94,27.5 -79.09,38.29 -121.93,36.81 -17.36,-0.69 -36.67,-3.14 -50.97,-13.5 12,14.11 30.79,22.02 48.15,27.63 44.36,14.07 94.71,15.95 138.22,-2.88 53.18,-25.56 81.76,-92.1 62.69,-148.06 -3.01,-9.51 -7.27,-18.66 -12.41,-27.25 -17.88,-31.04 -50.54,-51.47 -85.53,-57.59 z" />
      <path
         inkscape:connector-curvature="0"
         id="path3239"
         style="fill:#502d16;fill-rule:evenodd;stroke:#000000;stroke-width:7.45020008"
         d="m 412.48,455.53 c 15.07,-23.4 62.95,-35.93 72.87,-23.7 9.92,12.24 5.19,33.75 2.18,36.3 -3.02,2.56 -22.64,-13.05 -39.76,-5.21 -17.11,7.84 -26.76,15.86 -26.76,15.86 z" />
      <path
         inkscape:connector-curvature="0"
         id="path3263"
         style="fill:#000000;fill-opacity:0.31373004;fill-rule:evenodd"
         d="m 490.84,445.22 c -0.48,2.87 -1.49,5.09 -2.46,5.78 -2.83,1.99 -23.43,-6.24 -39.91,0.69 -16.49,6.92 -25.53,13.19 -25.53,13.19 l -8.44,-12.1 c -0.71,0.91 -1.42,1.81 -2.03,2.75 l 8.53,23.25 c 0,0 9.67,-8.04 26.78,-15.87 17.11,-7.84 36.74,7.77 39.75,5.21 2.07,-1.75 4.92,-12.42 3.31,-22.9 z" />
      <path
         inkscape:connector-curvature="0"
         id="path3201"
         style="fill:#502d16;stroke:#000000;stroke-width:7.45020008;stroke-linecap:round;stroke-linejoin:round"
         d="m 422.01,458.24 c -30.13,-51.67 -95.28,-80.45 -151.24,-62.77 -12.41,3.05 -13.12,18.92 -12.96,18.69 21.89,-9.44 36.39,11.33 56.28,35.63 24.32,29.72 48.54,71.78 64.21,110.57 10.96,27.15 17.21,52.6 3.33,65.48 0.46,0.29 13.55,8.09 23.53,-3.38 49.04,-52.81 46.41,-116.88 16.85,-164.22 z" />
      <path
         inkscape:connector-curvature="0"
         id="path3269"
         style="fill:#000000;fill-opacity:0.31373004"
         d="m 420,452.85 c 3.96,37.28 -6.29,68.8 -31.03,95.21 -5.61,6 -10.75,2.19 -15.56,0.78 1.69,3.86 3.33,7.72 4.87,11.54 10.97,27.14 17.23,52.58 3.34,65.46 0.46,0.29 13.55,8.1 23.54,-3.37 C 450.07,574.1 453.38,509.22 420,452.85 Z" />
    </g>
  </g>
  <metadata
     id="metadata35">
    <rdf:RDF>
      <cc:Work>
        <dc:format>image/svg+xml</dc:format>
        <dc:type
           rdf:resource="http://purl.org/dc/dcmitype/StillImage" />
        <cc:license
           rdf:resource="http://creativecommons.org/licenses/publicdomain/" />
        <dc:publisher>
          <cc:Agent
             rdf:about="http://openclipart.org/">
            <dc:title>Openclipart</dc:title>
          </cc:Agent>
        </dc:publisher>
        <dc:title></dc:title>
        <dc:date>2010-04-22T16:05:07</dc:date>
        <dc:description />
        <dc:source>https://openclipart.org/detail/50221/medal-by-sheikh_tuhin</dc:source>
        <dc:creator>
          <cc:Agent>
            <dc:title>sheikh_tuhin</dc:title>
          </cc:Agent>
        </dc:creator>
        <dc:subject>
          <rdf:Bag>
            <rdf:li>award</rdf:li>
            <rdf:li>celebration</rdf:li>
            <rdf:li>medal</rdf:li>
            <rdf:li>sports</rdf:li>
          </rdf:Bag>
        </dc:subject>
      </cc:Work>
      <cc:License
         rdf:about="http://creativecommons.org/licenses/publicdomain/">
        <cc:permits
           rdf:resource="http://creativecommons.org/ns#Reproduction" />
        <cc:permits
           rdf:resource="http://creativecommons.org/ns#Distribution" />
        <cc:permits
           rdf:resource="http://creativecommons.org/ns#DerivativeWorks" />
      </cc:License>
    </rdf:RDF>
  </metadata>
</svg>
