<?xml version="1.0" encoding="UTF-8" standalone="no"?>
<!-- Created with Inkscape (http://www.inkscape.org/) -->

<svg
   xmlns:dc="http://purl.org/dc/elements/1.1/"
   xmlns:cc="http://creativecommons.org/ns#"
   xmlns:rdf="http://www.w3.org/1999/02/22-rdf-syntax-ns#"
   xmlns:svg="http://www.w3.org/2000/svg"
   xmlns="http://www.w3.org/2000/svg"
   xmlns:sodipodi="http://sodipodi.sourceforge.net/DTD/sodipodi-0.dtd"
   xmlns:inkscape="http://www.inkscape.org/namespaces/inkscape"
   version="1.1"
   id="svg2"
   xml:space="preserve"
   width="714.01331"
   height="623.81335"
   viewBox="0 0 714.01331 623.81335"
   sodipodi:docname="nut.svg"
   inkscape:version="0.92.2 (unknown)"><metadata
     id="metadata8"><rdf:RDF><cc:Work
         rdf:about=""><dc:format>image/svg+xml</dc:format><dc:type
           rdf:resource="http://purl.org/dc/dcmitype/StillImage" /><dc:title></dc:title></cc:Work></rdf:RDF></metadata><defs
     id="defs6" /><sodipodi:namedview
     pagecolor="#ffffff"
     bordercolor="#666666"
     borderopacity="1"
     objecttolerance="10"
     gridtolerance="10"
     guidetolerance="10"
     inkscape:pageopacity="0"
     inkscape:pageshadow="2"
     inkscape:window-width="1366"
     inkscape:window-height="715"
     id="namedview4"
     showgrid="false"
     inkscape:zoom="0.53502285"
     inkscape:cx="354.73317"
     inkscape:cy="369.16786"
     inkscape:window-x="0"
     inkscape:window-y="0"
     inkscape:window-maximized="1"
     inkscape:current-layer="g12" /><g
     id="g10"
     inkscape:groupmode="layer"
     inkscape:label="ink_ext_XXXXXX"
     transform="matrix(1.3333333,0,0,-1.3333333,0,623.81333)"><g
       id="g12"
       transform="scale(0.1)"><path
         d="m 5213.93,3988.98 c -488.22,265.64 -1030.34,-20.77 -1597.15,-560.27 44.16,-90.94 88.3,-181.91 132.48,-272.85 356.24,195.26 719.73,359.65 1174.06,137.71 96.88,231.8 193.73,463.59 290.61,695.41"
         style="fill:#c57830;fill-opacity:1;fill-rule:evenodd;stroke:none"
         id="path66"
         inkscape:connector-curvature="0" /><path
         d="m 4197.49,3356.12 c 221.8,64.84 458.04,68.27 725.83,-62.55 l 50.96,121.93 -42.22,181.15 c -48.6,6.11 -97.21,12.22 -145.81,18.34 -114.79,85.18 -514.69,-44.29 -616.18,-157.5 l 27.42,-101.37"
         style="fill:#bc6e24;fill-opacity:1;fill-rule:evenodd;stroke:none"
         id="path68"
         inkscape:connector-curvature="0" /><path
         d="m 1845.2,4343.17 c 617.09,368.79 1001,458.29 1539.34,143.45 C 3912.25,4178 4517.29,3180.6 4514.08,2514.86 c -2.62,-540 -293,-856.03 -860.94,-1195.62 L 1845.2,4343.17"
         style="fill:#5f2e15;fill-opacity:1;fill-rule:evenodd;stroke:none"
         id="path70"
         inkscape:connector-curvature="0" /><path
         d="m 3934.58,3957.21 c 325.06,-433.2 581.59,-1008.26 579.5,-1442.35 -2.62,-540 -293,-856.03 -860.94,-1195.62 l -444.45,743.35 123.6,1594.32 c 465.96,-474.46 827.48,-1169.92 751.25,-1765.12 543.21,438.71 327.66,1312.8 -148.96,2065.42"
         style="fill:#492615;fill-opacity:1;fill-rule:evenodd;stroke:none"
         id="path72"
         inkscape:connector-curvature="0" /><path
         d="M 1845.08,4343.11 C 2929.65,4991.07 4737.31,1967.43 3652.83,1319.05 l -0.18,-0.11 C 2568.08,670.98 760.41,3694.63 1844.9,4343 l 0.18,0.11"
         style="fill:#281a13;fill-opacity:1;fill-rule:evenodd;stroke:none"
         id="path74"
         inkscape:connector-curvature="0" /><path
         d="M 1957.03,4155.44 C 2839.97,4683.3 4423.59,2034.5 3540.67,1506.63 L 2728.56,1021.1 C 2097.34,643.711 1362.47,640.512 730.93,1010.6 503.418,1143.92 253.945,990.02 145.855,1170.79 L 26.8047,1369.9 C -80.668,1549.68 169.926,1696.98 166.902,1952.72 158.5,2665.95 506.77,3288.35 1122.91,3656.71 l 834.12,498.73"
         style="fill:#ed9c11;fill-opacity:1;fill-rule:evenodd;stroke:none"
         id="path76"
         inkscape:connector-curvature="0" /><path
         d="m 3277.39,3433.11 c 485.14,-693.34 751.77,-1634.43 263.28,-1926.48 L 2728.58,1021.1 C 2097.34,643.711 1362.47,640.512 730.938,1010.6 503.418,1143.92 253.945,990.02 145.855,1170.79 l -34.777,58.18 C 225.875,1079.24 453.43,1233.99 668.563,1111.38 1290.41,756.93 2002.3,797.27 2603.69,1222.9 l 773.68,547.59 c 394.54,279.25 250.75,1018.13 -99.98,1662.62"
         style="fill:#d58e18;fill-opacity:1;fill-rule:evenodd;stroke:none"
         id="path78"
         inkscape:connector-curvature="0" /><path
         d="m 1962.12,3963.14 c 814.69,479.71 1721.91,-994.07 942.02,-1528.46 L 2186.82,1943.16 C 1629.24,1561.09 1049.06,1405.35 609.402,1518.63 c -158.379,40.81 -361.336,-100.17 -436.175,-16.12 -115.7231,129.98 128.785,243.59 140.211,522.61 17.363,423.8 296.894,1142.11 865.422,1476.85 l 783.26,461.17"
         style="fill:#f9a60d;fill-opacity:1;fill-rule:evenodd;stroke:none"
         id="path80"
         inkscape:connector-curvature="0" /><path
         d="m 692.883,2259.75 c 25.984,-2.34 51.972,-6.7 77.984,-13.42 385.133,-99.2 867.573,125.88 1177.153,338.02 l 638.88,437.79 c 399.71,273.87 -123.68,1134.46 -539.17,889.81 L 1350.15,3501.2 C 1009.3,3300.51 732.949,2808.67 716.836,2415.3 c -2.207,-53.83 -10.398,-105.45 -23.953,-155.55"
         style="fill:#fbc02f;fill-opacity:1;fill-rule:evenodd;stroke:none"
         id="path82"
         inkscape:connector-curvature="0" /><path
         d="m 2250.81,4530.76 c 678.61,288.24 1176.99,-13.5 1488.82,-439.58 -339.13,343.35 -889.66,540.96 -1488.82,439.58"
         style="fill:#86421b;fill-opacity:1;fill-rule:evenodd;stroke:none"
         id="path84"
         inkscape:connector-curvature="0" /><path
         d="m 4051.15,3791.38 c 287.53,188.33 649.03,376.38 1093.67,212.55 42.09,-15.5 -121.49,-117.67 -178.63,-121.36 -87.13,167.47 -596.22,71.77 -915.04,-91.19"
         style="fill:#d39553;fill-opacity:1;fill-rule:evenodd;stroke:none"
         id="path86"
         inkscape:connector-curvature="0" /><path
         d="m 5213.93,3988.98 c 136.34,-56.99 181.82,-258.85 101.59,-450.88 -80.26,-192.03 -255.84,-301.52 -392.2,-244.53 -136.36,56.97 -181.83,258.85 -101.59,450.88 80.25,192.03 255.84,301.5 392.2,244.53"
         style="fill:#ad601e;fill-opacity:1;fill-rule:evenodd;stroke:none"
         id="path88"
         inkscape:connector-curvature="0" /></g></g></svg>