<?xml version="1.0" encoding="UTF-8" standalone="no"?>
<!-- Created with Inkscape (http://www.inkscape.org/) -->

<svg
   xmlns:dc="http://purl.org/dc/elements/1.1/"
   xmlns:cc="http://creativecommons.org/ns#"
   xmlns:rdf="http://www.w3.org/1999/02/22-rdf-syntax-ns#"
   xmlns:svg="http://www.w3.org/2000/svg"
   xmlns="http://www.w3.org/2000/svg"
   xmlns:sodipodi="http://sodipodi.sourceforge.net/DTD/sodipodi-0.dtd"
   xmlns:inkscape="http://www.inkscape.org/namespaces/inkscape"
   width="1345.863"
   height="2432.4353"
   id="svg2"
   version="1.1"
   inkscape:version="0.92.2 (unknown)"
   sodipodi:docname="power_fist_2.svg">
  <defs
     id="defs4" />
  <sodipodi:namedview
     id="base"
     pagecolor="#ffffff"
     bordercolor="#666666"
     borderopacity="1.0"
     inkscape:pageopacity="0.0"
     inkscape:pageshadow="2"
     inkscape:zoom="0.16918042"
     inkscape:cx="250.92668"
     inkscape:cy="1531.7313"
     inkscape:document-units="px"
     inkscape:current-layer="g6844"
     showgrid="false"
     fit-margin-top="0"
     fit-margin-left="0"
     fit-margin-right="0"
     fit-margin-bottom="0"
     inkscape:window-width="1366"
     inkscape:window-height="715"
     inkscape:window-x="0"
     inkscape:window-y="0"
     inkscape:window-maximized="1" />
  <metadata
     id="metadata7">
    <rdf:RDF>
      <cc:Work
         rdf:about="">
        <dc:format>image/svg+xml</dc:format>
        <dc:type
           rdf:resource="http://purl.org/dc/dcmitype/StillImage" />
        <dc:title />
      </cc:Work>
    </rdf:RDF>
  </metadata>
  <g
     inkscape:label="Layer 1"
     inkscape:groupmode="layer"
     id="layer1"
     transform="translate(453.49381,318.04317)">
    <g
       id="g6844"
       style="fill:#d40000">
      <path
         id="path6792"
         d="m 637.26164,416.2866 c 3.62606,3.95756 5.59677,11.24415 7.5067,15.33821 6.76382,14.49044 14.17261,28.98786 21.11936,43.37603 6.45979,13.37858 11.4922,26.49703 16.8134,40.31044 1.67166,4.33956 6.28069,12.52294 4.83097,17.18074 -1.28519,4.14149 -8.7311,5.50418 -12.25919,6.62474 -12.03025,3.80263 -24.48812,6.33494 -36.4702,9.96374 -13.99532,4.23921 -28.97036,5.5791 -42.78084,10.59088 -4.88055,1.76995 -9.68886,2.93602 -14.74632,4.14156 -1.87273,0.44615 -4.7461,1.73033 -6.65116,1.05206 -2.57426,-0.91735 -4.27349,-6.45095 -5.38732,-8.72943 -3.93015,-8.03851 -8.39409,-15.76068 -11.77892,-24.05666 -4.85535,-11.90063 -12.28924,-22.88478 -18.2024,-34.45363 -7.94988,-15.55088 -15.07609,-31.65453 -23.12712,-46.96108 7.18378,-5.37718 19.51013,-7.17662 28.03586,-9.91054 20.82034,-6.67326 41.30722,-14.48009 62.3285,-19.70314 6.53451,-1.62043 13.16182,-3.28066 19.57731,-5.29432 2.65602,-0.83206 5.52373,-2.92333 8.40519,-1.58895 1.0326,0.47843 1.94935,1.20607 2.78618,2.11935 z m 58.70053,140.52057 c 1.0154,1.14997 1.92838,2.42183 2.76825,3.36088 5.56314,6.21994 9.7665,13.14099 12.94947,20.77422 9.36937,22.46825 17.61597,43.49816 19.98955,68.15123 0.6845,7.11242 1.8763,14.19366 1.91217,21.35539 0.0126,2.47316 0.75015,6.18635 -1.08656,8.1811 -2.78075,3.02051 -9.18645,4.40179 -13.01794,5.21345 -9.82029,2.08048 -19.71787,4.09189 -29.65688,5.52276 -37.44596,5.39033 -75.11295,10.31474 -112.71419,15.81252 l -0.3821,-0.42685 c 10.20555,-8.37585 21.86243,-14.96372 31.74598,-23.80407 3.61366,-3.23247 8.66438,-6.89015 10.33115,-11.65077 2.38323,-6.80597 -4.10502,-16.9012 -6.86877,-22.97357 -8.79526,-19.32297 -16.59087,-40.86329 -27.90986,-58.82675 l 0.13427,-2.4269 c 11.31971,-4.51219 24.03823,-6.55984 35.77922,-9.84982 14.61498,-4.09417 29.10315,-9.41656 43.72251,-13.86062 6.67697,-2.03246 13.35268,-4.07241 20.09255,-5.89975 2.55903,-0.69908 6.21934,-2.17159 8.84345,-1.26041 1.23082,0.42837 2.35238,1.45796 3.36773,2.60796 z m 44.16069,147.57699 c 4.59987,5.5003 6.54926,15.38192 8.73757,20.82014 8.07238,20.06156 10.55224,42.86738 9.87541,64.42197 -0.257,8.17282 -0.62566,17.97603 -3.93851,25.5834 -3.37753,7.75755 -8.04282,7.48079 -15.21621,9.65619 -10.18242,3.08896 -20.52623,4.68841 -31.03161,6.53708 -39.91802,7.02575 -80.18496,7.13192 -120.26067,10.81799 -11.8061,1.08614 -23.68707,2.29164 -35.5622,0.88529 -3.31572,-0.39283 -8.62819,0.54522 -11.48999,-1.32033 -8.37503,-5.46063 -13.3415,-16.7645 -18.6903,-24.71799 -10.45397,-15.54376 -20.88563,-31.01062 -30.74129,-47.06536 -4.45234,-7.25353 -7.69071,-15.56221 -12.79745,-22.37602 5.55714,-3.17527 11.50362,-2.39684 17.34318,-3.87112 13.83975,-3.49479 27.52608,-6.68577 41.56558,-9.47898 44.47694,-8.84839 88.82371,-17.82652 133.62064,-24.96373 14.8963,-2.37377 29.79535,-4.57951 44.73462,-6.7172 5.24329,-0.75059 14.25585,-3.48668 19.29725,-1.60761 1.76837,0.6591 3.26604,1.85619 4.55398,3.39628 z M 495.05799,445.13699 c 3.36687,3.96108 5.57392,8.93242 7.87497,13.4948 5.45273,10.81227 10.6969,21.71128 15.98507,32.59396 18.03114,37.09816 35.44805,74.65388 54.31971,111.30722 6.80469,13.21589 13.44372,26.55702 19.73381,40.00289 2.0179,4.3149 6.53889,10.79131 6.4001,15.632 -0.0963,3.33943 -3.21094,5.34918 -5.46647,7.36822 -5.58888,5.0029 -11.43653,9.67806 -17.8655,13.54147 -6.65563,4.00018 -12.82027,8.61499 -19.51033,12.56295 -2.44352,1.44226 -5.21113,4.09307 -8.06321,4.5747 -3.67116,0.6197 -9.82251,-3.6482 -13.28852,-5.0206 -16.77901,-6.6287 -34.88947,-15.31546 -49.91647,-24.51836 -8.50267,-6.32901 -17.2174,-12.7373 -25.09761,-19.82343 -4.08326,-3.6725 -8.89384,-6.94767 -11.53458,-11.97296 -8.55727,-16.28354 -8.67455,-36.63904 -8.58034,-54.60036 0.0349,-6.62064 2.2165,-14.64022 0.28798,-21.01813 -6.90892,11.01324 -11.16912,24.17373 -17.22909,35.72648 -2.30795,4.41111 -4.36776,10.65499 -8.34899,13.8651 -5.30333,4.27826 -17.22869,5.81872 -23.47291,3.51931 -3.70025,-1.36264 -6.92577,-4.77935 -10.05319,-7.12379 -8.82086,-6.61316 -17.31512,-14.44907 -25.40354,-21.85628 l -0.42686,0.3821 c 5.04323,9.48724 12.60778,17.56332 18.78334,26.24456 3.89023,5.46769 6.341,11.81637 9.7501,17.41486 7.09294,11.64304 15.12742,23.79654 20.25965,36.45657 8.04268,19.84286 10.87435,42.6511 13.84416,63.72867 7.23786,51.40396 8.14364,105.57617 -7.61691,155.55275 -5.65459,17.93166 -12.79371,38.14746 -25.00784,52.80555 l 1.14632,1.28057 c -4.5985,4.12248 -9.97379,15.54812 -16.28686,16.86188 -5.113,1.06535 -14.44486,-7.59225 -17.71037,-11.03411 -11.68052,-12.3013 -25.83637,-22.79821 -38.70278,-33.78736 l -5.44755,10.23467 -17.56946,33.62833 -53.37397,104.43628 -19.03808,35.4236 -5.93704,13.1237 18.65625,-25.5426 31.70964,-44.4598 62.42533,-84.01717 c 3.74119,4.17936 5.8437,8.93758 9.04485,13.43271 6.40262,8.99936 15.1596,17.63424 24.53175,23.40559 2.9669,1.82839 8.02671,5.95408 11.56763,6.10454 3.8626,0.16622 10.33339,-8.02453 13.10798,-10.50823 13.3778,-11.97513 24.05034,-26.85219 32.65596,-42.54366 24.93663,-45.47211 27.41337,-95.36939 28.64489,-146.04675 0.37631,-15.38196 -1.56211,-30.69084 -3.76113,-45.91503 -1.08359,-7.51101 -1.43312,-16.54029 -4.725,-23.45087 l 0.42685,-0.38211 c 7.83781,12.88316 17.96951,24.52797 26.71804,36.82656 9.69873,13.63323 18.30841,28.21058 27.82732,41.98479 5.24027,7.58315 10.34388,15.33938 15.76653,22.79386 3.32287,4.56846 7.90512,9.85341 9.48418,15.34619 7.10878,24.72554 8.9484,51.90955 12.51446,77.22136 l 2.82397,19.77029 c 0.3081,2.18239 -0.10006,6.09851 1.81066,7.60601 2.07082,1.6348 6.30531,1.63885 8.83578,2.08635 6.69195,1.18814 13.44606,2.17841 20.1032,3.53384 25.94475,5.28485 52.17445,8.96136 78.09257,13.90559 7.44151,1.41988 14.94157,2.28507 22.2914,3.85779 3.61316,0.77313 6.80456,0.4017 9.95877,2.64296 -3.99953,4.21522 -6.86534,9.38431 -10.93109,13.55741 -10.79336,11.08028 -24.54066,21.09848 -37.74172,29.05098 -15.40542,9.2806 -32.66408,17.4046 -48.70554,25.5537 -6.7227,3.4159 -14.24611,5.147 -20.1492,10.1313 l -1.14632,-1.2805 c -4.79722,3.1531 -10.79973,4.5991 -15.98506,7.0525 -7.14018,3.3789 -14.70841,8.2983 -22.64849,9.7014 -19.94882,3.5265 -42.78439,0.7819 -62.77504,-1.3303 -11.71045,-1.237 -23.39983,-2.7134 -35.11811,-3.9334 -3.69323,-0.3894 -10.1606,-2.731 -13.66472,-1.1997 -3.76864,1.6481 -6.98745,7.2495 -9.97691,10.0601 -10.87592,10.2262 -21.47287,21.6745 -31.1308,33.081 -158.65214,183.9848 -332.77061,339.3622 -406.23674,403.6422 -58.95681,-25.4961 -121.5694,-66.4703 -167.22403,-117.4724 -37.92845,-42.3709 -89.20776,-129.715 -108.59656,-179.7819 130.7188,-104.8909 220.59222,-175.4205 395.5161,-301.16343 7.7865,-5.43998 14.84105,-12.11528 22.55675,-17.66873 13.91382,-10.00224 28.30713,-19.30528 42.07432,-29.44529 5.65476,-4.16224 10.80023,-9.34013 16.71327,-13.11075 14.71137,-9.38592 28.65826,-19.97803 42.19963,-31.02316 4.38079,-3.57546 12.10465,-5.42627 14.94913,-10.7867 1.47278,-2.78696 0.97695,-6.76814 1.20275,-9.8229 0.46527,-6.28321 0.82585,-11.99406 0.70643,-18.26905 -0.26204,-13.74408 1.58762,-27.59651 1.6786,-41.34134 0.0806,-12.09006 2.08383,-24.17215 2.61093,-36.19289 1.59667,-36.5604 2.71687,-73.17099 4.74205,-109.77666 0.79889,-14.44002 1.96339,-28.81519 2.7989,-43.25725 0.33355,-5.75779 -0.21503,-14.91644 2.92786,-19.92118 3.27419,-5.21454 11.29571,-7.00597 16.60891,-8.93252 7.30461,-2.64041 14.59111,-6.84374 21.62384,-10.20189 34.34418,-16.41862 69.399,-30.82449 104.51036,-45.59239 20.31054,-8.54668 40.91175,-16.52987 61.1552,-25.30868 7.8675,-3.40569 19.33851,-10.97706 27.9212,-10.81708 10.83565,0.20391 21.21094,7.81787 29.05199,14.57767 0.9156,0.78932 1.75652,1.64771 2.53349,2.56181 z m 251.75754,404.80195 c 0.72798,0.82841 1.40698,1.78734 2.04553,2.90254 6.32063,11.03876 6.11564,25.79914 6.38634,38.11069 0.3018,13.75841 -1.26691,27.10847 -3.96945,40.58063 -1.59495,7.95113 -3.50511,15.93407 -10.17864,21.26969 -8.32395,6.65465 -24.1331,3.12632 -33.80628,2.60534 -28.82686,-1.55383 -56.6763,-5.20641 -85.20913,-9.02497 -18.20375,-2.43683 -36.25737,-5.07001 -54.29809,-8.34175 -7.0173,-1.27675 -16.07829,-1.40069 -19.92804,-8.30406 -7.71821,-13.82753 -8.81518,-33.9652 -9.22097,-49.43747 -0.12049,-4.59093 -0.99945,-13.86117 3.09986,-17.07159 2.77994,-2.17711 5.74408,-1.6095 8.95069,-2.05325 8.62679,-1.19433 17.22824,-1.33501 25.84183,-2.10769 33.19045,-2.97891 66.41866,-6.67338 99.75482,-9.59426 16.7498,-1.4679 33.41744,-2.84466 50.21537,-4.03035 8.02139,-0.56548 15.22027,-1.30229 20.31616,4.4965 z M 531.17743,713.99793 c -4.33143,2.87386 -11.21177,2.57385 -16.27173,3.29645 -13.02219,1.85873 -26.18938,3.70384 -39.28583,4.93933 -4.07115,0.38415 -13.64769,3.87513 -17.0994,1.29812 -4.60298,-3.43794 -5.75781,-11.51856 -8.29062,-16.29445 -7.91111,-14.92433 -15.15511,-31.62898 -24.4758,-45.72979 3.36251,-1.94887 11.29485,-6.01524 15.19685,-5.40987 2.49095,0.38448 5.40806,2.9662 7.52174,4.29583 5.69571,3.58238 11.40883,7.17992 16.99337,10.93102 21.73499,14.59855 44.3335,27.83206 65.71142,42.67336 z"
         style="fill:#d40000;stroke:none;stroke-width:0.57289934"
         inkscape:connector-curvature="0"
         sodipodi:nodetypes="sccsccccccccccccccsccccccccccccccccccccsscccccccccccscccsscccccscccccccscccsccccccccccccccccccccccccsccccccccccccccccccscccccccccccscccccccccccsccccccccscccscccccccccccccccccccccc" />
      <path
         style="opacity:0.97000002;fill:#aa0000;fill-opacity:1;stroke:none;stroke-width:3.38632178"
         d="m -81.76885,1486.7344 c -63.02771,-33.6798 -117.69188,-80.5808 -155.24145,-133.1949 -21.84095,-30.6033 -59.75409,-95.6971 -71.89156,-123.432 l -8.22363,-18.7915 29.28695,-23.4392 c 134.66898,-107.7797 209.37434,-164.1101 443.50752,-334.41969 32.71282,-23.79545 59.75686,-43.60543 60.09786,-44.02219 0.34104,-0.41675 2.33954,-32.75846 4.44116,-71.87047 2.10162,-39.11203 5.40552,-100.49742 7.34202,-136.41201 1.93647,-35.91458 4.23382,-67.15341 5.10519,-69.4196 2.71979,-7.07334 206.91043,-96.58703 227.41169,-99.6934 17.73553,-2.68732 32.86759,9.19212 45.48231,35.70594 5.91851,12.43965 28.80246,59.01614 50.85324,103.50329 22.05073,44.48716 40.09224,82.82878 40.09224,85.20362 0,5.30452 -16.0005,19.03584 -35.49226,30.45878 l -14.58017,8.54456 -25.72078,-12.20861 c -33.00702,-15.66713 -64.53092,-38.90949 -71.99797,-53.08363 -3.94339,-7.48544 -6.09761,-20.32892 -6.59052,-39.29336 -0.40276,-15.49523 -1.55233,-28.99318 -2.55462,-29.99544 -1.00223,-1.00226 -6.53403,8.56929 -12.29282,21.27009 -5.75884,12.70082 -12.32489,24.27062 -14.59117,25.71069 -9.38226,5.96171 -22.43411,2.26538 -39.23456,-11.11135 -9.5557,-7.60835 -17.37397,-12.80855 -17.37397,-11.55602 0,1.25253 7.68055,13.95388 17.06787,28.22522 35.60748,54.13323 42.86147,79.51555 46.15146,161.48749 2.25545,56.19784 -2.42337,90.43772 -17.39202,127.27594 -8.54102,21.01952 -27.35308,50.41925 -32.26194,50.41925 -1.67248,0 -14.62146,-10.14024 -28.77554,-22.5339 -14.79627,-12.95593 -26.94645,-21.23215 -28.58564,-19.47135 -5.5062,5.91478 -98.57945,188.86105 -97.59099,191.82635 0.54991,1.6497 9.17565,-8.7102 19.16827,-23.0223 9.99267,-14.312 34.51689,-47.9615 54.49832,-74.7767 l 36.32985,-48.75494 11.93255,14.56212 c 6.56293,8.00917 17.59174,17.56001 24.50851,21.22413 l 12.57592,6.66191 16.38916,-18.20545 c 19.83327,-22.0312 38.01079,-55.71878 45.29016,-83.9342 8.24586,-31.96142 12.77262,-99.69803 8.77161,-131.25486 -1.86943,-14.74462 -3.02262,-27.17963 -2.56264,-27.63335 0.45992,-0.45372 16.74104,22.28159 36.18014,50.52289 38.8278,56.40936 41.61535,63.34369 48.18599,119.86956 2.27556,19.5764 5.85899,37.31493 7.96307,39.41902 2.10409,2.10409 33.85498,9.03491 70.55749,15.4017 l 66.73183,11.57603 -11.10829,11.71449 c -17.45395,18.40635 -54.66652,41.01535 -102.52824,62.29235 -49.47857,21.9958 -58.33738,23.1103 -119.62637,15.0481 -26.04309,-3.4258 -32.71026,-3.3553 -38.07592,0.403 -3.57759,2.5058 -30.38105,31.5243 -59.56329,64.4854 -93.32334,105.408 -371.01325,376.7143 -385.35534,376.4967 -1.94779,-0.031 -18.46761,-8.0298 -36.71068,-17.7782 z"
         id="path814"
         inkscape:connector-curvature="0" />
      <path
         style="opacity:0.97000002;fill:#aa0000;fill-opacity:1;stroke:none;stroke-width:3.38632178"
         d="m 546.58514,507.44109 c -15.29184,-30.65028 -26.60075,-56.47099 -25.13098,-57.37936 3.64272,-2.25133 65.04734,-21.86061 91.19486,-29.12267 14.74763,-4.09591 21.924,-4.78066 23.49317,-2.24166 5.28529,8.55179 32.73897,66.50833 40.23936,84.94808 7.48236,18.39527 10.36707,32.43281 6.66494,32.43281 -0.8209,0 -25.10697,6.09538 -53.96912,13.54528 -28.8621,7.44992 -52.97435,13.54529 -53.58276,13.54529 -0.60842,0 -13.6177,-25.07749 -28.90947,-55.72777 z"
         id="path816"
         inkscape:connector-curvature="0" />
      <path
         style="opacity:0.97000002;fill:#aa0000;fill-opacity:1;stroke:none;stroke-width:3.38632178"
         d="m 586.33575,700.52531 c 0,-0.81551 6.90098,-6.43866 15.33549,-12.49588 8.43451,-6.05721 16.20629,-14.48264 17.27062,-18.72317 1.28788,-5.1315 -3.76675,-20.26927 -15.11377,-45.26299 -11.30995,-24.91219 -15.69859,-38.04135 -13.0377,-39.00394 4.04444,-1.46306 44.68431,-13.5422 81.50289,-24.22459 l 19.9243,-5.78075 7.90464,9.91333 c 15.77277,19.78098 36.86137,95.34853 30.92556,110.81692 -2.17175,5.65955 -17.61871,8.8581 -94.27082,19.52037 -54.98035,7.64773 -50.44121,7.17613 -50.44121,5.2407 z"
         id="path818"
         inkscape:connector-curvature="0" />
      <path
         style="opacity:0.97000002;fill:#aa0000;fill-opacity:1;stroke:none;stroke-width:3.38632178"
         d="m 443.69115,691.86185 c -21.05766,-42.32964 -16.16109,-43.06747 41.21128,-6.20984 l 43.90873,28.20818 -27.95863,3.97764 c -44.36103,6.31121 -40.14684,8.22627 -57.16138,-25.97598 z"
         id="path820"
         inkscape:connector-curvature="0" />
      <path
         style="opacity:0.97000002;fill:#aa0000;fill-opacity:1;stroke:none;stroke-width:3.38632178"
         d="m 516.353,804.94515 c -13.17966,-20.29709 -26.4004,-41.69477 -29.37947,-47.55039 l -5.41643,-10.64658 10.90686,-1.61534 c 5.99877,-0.88843 41.38379,-7.79408 78.6333,-15.34588 37.24958,-7.55179 89.59528,-17.11309 116.32383,-21.24733 55.48966,-8.58286 50.85926,-10.34961 61.47342,23.45545 4.62719,14.73697 6.75729,30.99154 6.75729,51.56334 0,27.48202 -0.64926,30.44917 -7.61922,34.81857 -16.47761,10.3297 -70.23901,17.7008 -155.0764,21.26214 l -52.64022,2.20984 z"
         id="path822"
         inkscape:connector-curvature="0" />
      <path
         style="opacity:0.97000002;fill:#aa0000;fill-opacity:1;stroke:none;stroke-width:3.38632178"
         d="m 683.61555,952.20375 c -35.67066,-3.43796 -122.08817,-15.87627 -129.16176,-18.59064 -6.40862,-2.45923 -11.2349,-17.6415 -14.1112,-44.39024 -2.14723,-19.96832 -1.85172,-21.21036 5.7801,-24.29746 7.86499,-3.18145 158.34955,-17.44272 183.09313,-17.35158 18.61419,0.0688 23.06791,8.59535 22.96891,43.97516 -0.096,34.32164 -4.13972,54.19209 -12.23243,60.10963 -6.47783,4.73665 -12.26532,4.79269 -56.33675,0.54513 z"
         id="path824"
         inkscape:connector-curvature="0" />
    </g>
  </g>
</svg>
