<?xml version="1.0" encoding="UTF-8" standalone="no"?>
<!-- Created with Inkscape (http://www.inkscape.org/) -->

<svg
   xmlns:dc="http://purl.org/dc/elements/1.1/"
   xmlns:cc="http://creativecommons.org/ns#"
   xmlns:rdf="http://www.w3.org/1999/02/22-rdf-syntax-ns#"
   xmlns:svg="http://www.w3.org/2000/svg"
   xmlns="http://www.w3.org/2000/svg"
   xmlns:sodipodi="http://sodipodi.sourceforge.net/DTD/sodipodi-0.dtd"
   xmlns:inkscape="http://www.inkscape.org/namespaces/inkscape"
   version="1.1"
   id="svg2"
   xml:space="preserve"
   width="666.66669"
   height="666.66669"
   viewBox="0 0 666.66669 666.66669"
   sodipodi:docname="winner-medal-vectorportal.svg"
   inkscape:version="0.92.2 (unknown)"><metadata
     id="metadata8"><rdf:RDF><cc:Work
         rdf:about=""><dc:format>image/svg+xml</dc:format><dc:type
           rdf:resource="http://purl.org/dc/dcmitype/StillImage" /><dc:title /></cc:Work></rdf:RDF></metadata><defs
     id="defs6"><clipPath
       clipPathUnits="userSpaceOnUse"
       id="clipPath18"><path
         d="M 0,500 H 500 V 0 H 0 Z"
         id="path16"
         inkscape:connector-curvature="0" /></clipPath><clipPath
       clipPathUnits="userSpaceOnUse"
       id="clipPath26"><path
         d="M 131.333,500 H 375.667 V 162.333 H 131.333 Z"
         id="path24"
         inkscape:connector-curvature="0" /></clipPath><clipPath
       clipPathUnits="userSpaceOnUse"
       id="clipPath30"><path
         d="M 141.333,490 H 375.667 V 162.333 H 141.333 Z"
         id="path28"
         inkscape:connector-curvature="0" /></clipPath><clipPath
       clipPathUnits="userSpaceOnUse"
       id="clipPath34"><path
         d="M 140.857,490.476 H 375.19 V 162.81 H 140.857 Z"
         id="path32"
         inkscape:connector-curvature="0" /></clipPath><clipPath
       clipPathUnits="userSpaceOnUse"
       id="clipPath38"><path
         d="M 140.381,490.953 H 374.714 V 163.286 H 140.381 Z"
         id="path36"
         inkscape:connector-curvature="0" /></clipPath><clipPath
       clipPathUnits="userSpaceOnUse"
       id="clipPath42"><path
         d="M 139.905,491.429 H 374.238 V 163.762 H 139.905 Z"
         id="path40"
         inkscape:connector-curvature="0" /></clipPath><clipPath
       clipPathUnits="userSpaceOnUse"
       id="clipPath46"><path
         d="M 139.429,491.905 H 373.762 V 164.238 H 139.429 Z"
         id="path44"
         inkscape:connector-curvature="0" /></clipPath><clipPath
       clipPathUnits="userSpaceOnUse"
       id="clipPath50"><path
         d="M 138.952,492.381 H 373.286 V 164.714 H 138.952 Z"
         id="path48"
         inkscape:connector-curvature="0" /></clipPath><clipPath
       clipPathUnits="userSpaceOnUse"
       id="clipPath54"><path
         d="M 138.476,492.857 H 372.81 V 165.19 H 138.476 Z"
         id="path52"
         inkscape:connector-curvature="0" /></clipPath><clipPath
       clipPathUnits="userSpaceOnUse"
       id="clipPath58"><path
         d="M 138,493.333 H 372.333 V 165.667 H 138 Z"
         id="path56"
         inkscape:connector-curvature="0" /></clipPath><clipPath
       clipPathUnits="userSpaceOnUse"
       id="clipPath62"><path
         d="M 137.524,493.81 H 371.857 V 166.143 H 137.524 Z"
         id="path60"
         inkscape:connector-curvature="0" /></clipPath><clipPath
       clipPathUnits="userSpaceOnUse"
       id="clipPath66"><path
         d="M 137.047,494.286 H 371.381 V 166.619 H 137.047 Z"
         id="path64"
         inkscape:connector-curvature="0" /></clipPath><clipPath
       clipPathUnits="userSpaceOnUse"
       id="clipPath70"><path
         d="M 136.571,494.762 H 370.904 V 167.096 H 136.571 Z"
         id="path68"
         inkscape:connector-curvature="0" /></clipPath><clipPath
       clipPathUnits="userSpaceOnUse"
       id="clipPath74"><path
         d="M 136.095,495.238 H 370.429 V 167.571 H 136.095 Z"
         id="path72"
         inkscape:connector-curvature="0" /></clipPath><clipPath
       clipPathUnits="userSpaceOnUse"
       id="clipPath78"><path
         d="M 135.619,495.714 H 369.952 V 168.048 H 135.619 Z"
         id="path76"
         inkscape:connector-curvature="0" /></clipPath><clipPath
       clipPathUnits="userSpaceOnUse"
       id="clipPath82"><path
         d="M 135.143,496.19 H 369.477 V 168.523 H 135.143 Z"
         id="path80"
         inkscape:connector-curvature="0" /></clipPath><clipPath
       clipPathUnits="userSpaceOnUse"
       id="clipPath86"><path
         d="M 134.667,496.667 H 369 V 169 H 134.667 Z"
         id="path84"
         inkscape:connector-curvature="0" /></clipPath><clipPath
       clipPathUnits="userSpaceOnUse"
       id="clipPath90"><path
         d="M 134.19,497.143 H 368.523 V 169.477 H 134.19 Z"
         id="path88"
         inkscape:connector-curvature="0" /></clipPath><clipPath
       clipPathUnits="userSpaceOnUse"
       id="clipPath94"><path
         d="M 133.714,497.619 H 368.048 V 169.952 H 133.714 Z"
         id="path92"
         inkscape:connector-curvature="0" /></clipPath><clipPath
       clipPathUnits="userSpaceOnUse"
       id="clipPath98"><path
         d="M 133.238,498.095 H 367.571 V 170.429 H 133.238 Z"
         id="path96"
         inkscape:connector-curvature="0" /></clipPath><clipPath
       clipPathUnits="userSpaceOnUse"
       id="clipPath102"><path
         d="M 132.762,498.571 H 367.096 V 170.905 H 132.762 Z"
         id="path100"
         inkscape:connector-curvature="0" /></clipPath><clipPath
       clipPathUnits="userSpaceOnUse"
       id="clipPath106"><path
         d="M 132.286,499.047 H 366.619 V 171.381 H 132.286 Z"
         id="path104"
         inkscape:connector-curvature="0" /></clipPath><clipPath
       clipPathUnits="userSpaceOnUse"
       id="clipPath110"><path
         d="M 131.81,499.524 H 366.143 V 171.857 H 131.81 Z"
         id="path108"
         inkscape:connector-curvature="0" /></clipPath><clipPath
       clipPathUnits="userSpaceOnUse"
       id="clipPath114"><path
         d="M 131.333,500 H 365.667 V 172.333 H 131.333 Z"
         id="path112"
         inkscape:connector-curvature="0" /></clipPath><clipPath
       clipPathUnits="userSpaceOnUse"
       id="clipPath346"><path
         d="m 220.686,421 h 61.608 l -50,79 h -61.608 z"
         id="path344"
         inkscape:connector-curvature="0" /></clipPath><linearGradient
       x1="0"
       y1="0"
       x2="1"
       y2="0"
       gradientUnits="userSpaceOnUse"
       gradientTransform="matrix(-71.935516,111.62422,-111.62422,-71.935516,246.75391,429.05469)"
       spreadMethod="pad"
       id="linearGradient358"><stop
         style="stop-opacity:1;stop-color:#000000"
         offset="0"
         id="stop352" /><stop
         style="stop-opacity:1;stop-color:#c1272d"
         offset="0.25408441"
         id="stop354" /><stop
         style="stop-opacity:1;stop-color:#c1272d"
         offset="1"
         id="stop356" /></linearGradient><clipPath
       clipPathUnits="userSpaceOnUse"
       id="clipPath370"><path
         d="m 202.157,423 v -23.943 c 0,-7.015 5.708,-12.724 12.724,-12.724 H 282.1 c 7.015,0 12.723,5.709 12.723,12.724 V 423 Z"
         id="path368"
         inkscape:connector-curvature="0" /></clipPath><linearGradient
       x1="0"
       y1="0"
       x2="1"
       y2="0"
       gradientUnits="userSpaceOnUse"
       gradientTransform="matrix(0,-53.999863,-53.999863,0,248.48975,451.66699)"
       spreadMethod="pad"
       id="linearGradient380"><stop
         style="stop-opacity:1;stop-color:#f79d00"
         offset="0"
         id="stop376" /><stop
         style="stop-opacity:1;stop-color:#c48c0a"
         offset="1"
         id="stop378" /></linearGradient><clipPath
       clipPathUnits="userSpaceOnUse"
       id="clipPath390"><path
         d="m 282.1,390.333 h -67.22 c -4.817,0 -8.723,3.906 -8.723,8.724 v 28.552 c 0,4.819 3.906,8.724 8.723,8.724 h 67.22 c 4.818,0 8.723,-3.905 8.723,-8.724 v -28.552 c 0,-4.818 -3.905,-8.724 -8.723,-8.724"
         id="path388"
         inkscape:connector-curvature="0" /></clipPath><linearGradient
       x1="0"
       y1="0"
       x2="1"
       y2="0"
       gradientUnits="userSpaceOnUse"
       gradientTransform="matrix(0,72.842377,72.842377,0,248.49023,403.49121)"
       spreadMethod="pad"
       id="linearGradient400"><stop
         style="stop-opacity:1;stop-color:#f5c83d"
         offset="0"
         id="stop396" /><stop
         style="stop-opacity:1;stop-color:#e0990b"
         offset="1"
         id="stop398" /></linearGradient><clipPath
       clipPathUnits="userSpaceOnUse"
       id="clipPath410"><path
         d="m 365.667,289.5 c 0,-64.709 -52.458,-117.167 -117.167,-117.167 -64.709,0 -117.167,52.458 -117.167,117.167 0,64.709 52.458,117.167 117.167,117.167 64.709,0 117.167,-52.458 117.167,-117.167"
         id="path408"
         inkscape:connector-curvature="0" /></clipPath><linearGradient
       x1="0"
       y1="0"
       x2="1"
       y2="0"
       gradientUnits="userSpaceOnUse"
       gradientTransform="matrix(-1.53e-5,-234.33398,-234.33398,1.53e-5,248.5,406.6665)"
       spreadMethod="pad"
       id="linearGradient420"><stop
         style="stop-opacity:1;stop-color:#f79d00"
         offset="0"
         id="stop416" /><stop
         style="stop-opacity:1;stop-color:#c48c0a"
         offset="1"
         id="stop418" /></linearGradient><clipPath
       clipPathUnits="userSpaceOnUse"
       id="clipPath432"><path
         d="m 337.903,289.5 c 0,-49.376 -40.027,-89.403 -89.403,-89.403 -49.376,0 -89.403,40.027 -89.403,89.403 0,49.376 40.027,89.403 89.403,89.403 49.376,0 89.403,-40.027 89.403,-89.403"
         id="path430"
         inkscape:connector-curvature="0" /></clipPath><linearGradient
       x1="0"
       y1="0"
       x2="1"
       y2="0"
       gradientUnits="userSpaceOnUse"
       gradientTransform="matrix(0,-169.73123,-169.73123,0,248.49951,374.40332)"
       spreadMethod="pad"
       id="linearGradient442"><stop
         style="stop-opacity:1;stop-color:#f5c83d"
         offset="0"
         id="stop438" /><stop
         style="stop-opacity:1;stop-color:#e0990b"
         offset="1"
         id="stop440" /></linearGradient><clipPath
       clipPathUnits="userSpaceOnUse"
       id="clipPath458"><path
         d="m 234.438,243.3 v 56.046 h -19.2 l 20.458,36.354 h 32.067 v -92.4 z"
         id="path456"
         inkscape:connector-curvature="0" /></clipPath><linearGradient
       x1="0"
       y1="0"
       x2="1"
       y2="0"
       gradientUnits="userSpaceOnUse"
       gradientTransform="matrix(0,-158.68187,-158.68187,0,241.5,378.1543)"
       spreadMethod="pad"
       id="linearGradient468"><stop
         style="stop-opacity:1;stop-color:#f79d00"
         offset="0"
         id="stop464" /><stop
         style="stop-opacity:1;stop-color:#c48c0a"
         offset="1"
         id="stop466" /></linearGradient><clipPath
       clipPathUnits="userSpaceOnUse"
       id="clipPath478"><path
         d="m 237.467,332.67 -17.049,-30.295 h 17.049 v -56.046 h 27.265 v 86.341 z"
         id="path476"
         inkscape:connector-curvature="0" /></clipPath><linearGradient
       x1="0"
       y1="0"
       x2="1"
       y2="0"
       gradientUnits="userSpaceOnUse"
       gradientTransform="matrix(0,59.909302,59.909302,0,242.57568,253.146)"
       spreadMethod="pad"
       id="linearGradient488"><stop
         style="stop-opacity:1;stop-color:#f8d874"
         offset="0"
         id="stop484" /><stop
         style="stop-opacity:1;stop-color:#ffd37a"
         offset="1"
         id="stop486" /></linearGradient><clipPath
       clipPathUnits="userSpaceOnUse"
       id="clipPath498"><path
         d="m 240.497,249.359 v 56.046 H 225.6 l 13.639,24.236 h 22.464 v -80.282 z"
         id="path496"
         inkscape:connector-curvature="0" /></clipPath><linearGradient
       x1="0"
       y1="0"
       x2="1"
       y2="0"
       gradientUnits="userSpaceOnUse"
       gradientTransform="matrix(0,-150.72266,-150.72266,0,243.65137,333.16211)"
       spreadMethod="pad"
       id="linearGradient508"><stop
         style="stop-opacity:1;stop-color:#f8d874"
         offset="0"
         id="stop504" /><stop
         style="stop-opacity:1;stop-color:#eda20c"
         offset="1"
         id="stop506" /></linearGradient><clipPath
       clipPathUnits="userSpaceOnUse"
       id="clipPath518"><path
         d="m 217.942,415.667 c -2.573,0 -4.667,2.093 -4.667,4.666 0,2.574 2.094,4.667 4.667,4.667 h 61.096 c 2.573,0 4.666,-2.093 4.666,-4.667 0,-2.573 -2.093,-4.666 -4.666,-4.666 z"
         id="path516"
         inkscape:connector-curvature="0" /></clipPath><linearGradient
       x1="0"
       y1="0"
       x2="1"
       y2="0"
       gradientUnits="userSpaceOnUse"
       gradientTransform="matrix(0,-13.745712,-13.745712,0,248.48975,432.29736)"
       spreadMethod="pad"
       id="linearGradient528"><stop
         style="stop-opacity:1;stop-color:#f79d00"
         offset="0"
         id="stop524" /><stop
         style="stop-opacity:1;stop-color:#c48c0a"
         offset="1"
         id="stop526" /></linearGradient><clipPath
       clipPathUnits="userSpaceOnUse"
       id="clipPath540"><path
         d="m 279.294,421 h -61.608 l 50,79 h 61.608 z"
         id="path538"
         inkscape:connector-curvature="0" /></clipPath><linearGradient
       x1="0"
       y1="0"
       x2="1"
       y2="0"
       gradientUnits="userSpaceOnUse"
       gradientTransform="matrix(71.935532,111.62422,111.62422,-71.935516,230.53906,393.85254)"
       spreadMethod="pad"
       id="linearGradient552"><stop
         style="stop-opacity:1;stop-color:#000000"
         offset="0"
         id="stop546" /><stop
         style="stop-opacity:1;stop-color:#c1272d"
         offset="0.25408441"
         id="stop548" /><stop
         style="stop-opacity:1;stop-color:#c1272d"
         offset="1"
         id="stop550" /></linearGradient><clipPath
       clipPathUnits="userSpaceOnUse"
       id="clipPath562"><path
         d="M 435.939,114.193 C 419.792,104.299 403.021,95.876 385.813,88.927 l -21.603,53.516 c 14.273,5.764 28.184,12.749 41.576,20.957 1.249,-10.515 2.068,-21.172 2.448,-31.939 8.886,-6.091 18.126,-11.857 27.705,-17.268"
         id="path560"
         inkscape:connector-curvature="0" /></clipPath><linearGradient
       x1="0"
       y1="0"
       x2="1"
       y2="0"
       gradientUnits="userSpaceOnUse"
       gradientTransform="matrix(126.92821,0,0,-126.92819,366.80176,126.16406)"
       spreadMethod="pad"
       id="linearGradient574"><stop
         style="stop-opacity:1;stop-color:#000000"
         offset="0"
         id="stop568" /><stop
         style="stop-opacity:1;stop-color:#c1272d"
         offset="0.25408441"
         id="stop570" /><stop
         style="stop-opacity:1;stop-color:#c1272d"
         offset="1"
         id="stop572" /></linearGradient><clipPath
       clipPathUnits="userSpaceOnUse"
       id="clipPath584"><path
         d="m 399.76,105.028 c -4.431,-5.47 -9.08,-10.842 -13.947,-16.101 -1.143,2.832 -2.286,5.663 -3.429,8.495 5.846,2.36 11.641,4.896 17.376,7.606"
         id="path582"
         inkscape:connector-curvature="0" /></clipPath><linearGradient
       x1="0"
       y1="0"
       x2="1"
       y2="0"
       gradientUnits="userSpaceOnUse"
       gradientTransform="matrix(30.747482,0,0,-30.747482,383.01172,96.977539)"
       spreadMethod="pad"
       id="linearGradient596"><stop
         style="stop-opacity:1;stop-color:#000000"
         offset="0"
         id="stop590" /><stop
         style="stop-opacity:1;stop-color:#c1272d"
         offset="0.25408441"
         id="stop592" /><stop
         style="stop-opacity:1;stop-color:#c1272d"
         offset="1"
         id="stop594" /></linearGradient><clipPath
       clipPathUnits="userSpaceOnUse"
       id="clipPath606"><path
         d="m 82.394,114.193 c 16.147,-9.894 32.918,-18.317 50.126,-25.266 7.201,17.839 14.402,35.677 21.603,53.516 -14.273,5.764 -28.183,12.749 -41.576,20.957 -1.249,-10.515 -2.068,-21.172 -2.448,-31.939 -8.886,-6.091 -18.126,-11.857 -27.705,-17.268"
         id="path604"
         inkscape:connector-curvature="0" /></clipPath><linearGradient
       x1="0"
       y1="0"
       x2="1"
       y2="0"
       gradientUnits="userSpaceOnUse"
       gradientTransform="matrix(-126.92819,0,0,-126.92819,151.53125,126.16406)"
       spreadMethod="pad"
       id="linearGradient618"><stop
         style="stop-opacity:1;stop-color:#000000"
         offset="0"
         id="stop612" /><stop
         style="stop-opacity:1;stop-color:#c1272d"
         offset="0.25408441"
         id="stop614" /><stop
         style="stop-opacity:1;stop-color:#c1272d"
         offset="1"
         id="stop616" /></linearGradient><clipPath
       clipPathUnits="userSpaceOnUse"
       id="clipPath628"><path
         d="m 118.573,105.028 c 4.431,-5.47 9.081,-10.842 13.947,-16.101 1.143,2.832 2.286,5.663 3.429,8.495 -5.846,2.36 -11.641,4.896 -17.376,7.606"
         id="path626"
         inkscape:connector-curvature="0" /></clipPath><linearGradient
       x1="0"
       y1="0"
       x2="1"
       y2="0"
       gradientUnits="userSpaceOnUse"
       gradientTransform="matrix(-62.987213,0,0,-62.987213,149.35449,96.977539)"
       spreadMethod="pad"
       id="linearGradient640"><stop
         style="stop-opacity:1;stop-color:#000000"
         offset="0"
         id="stop634" /><stop
         style="stop-opacity:1;stop-color:#c1272d"
         offset="0.47428655"
         id="stop636" /><stop
         style="stop-opacity:1;stop-color:#c1272d"
         offset="1"
         id="stop638" /></linearGradient><clipPath
       clipPathUnits="userSpaceOnUse"
       id="clipPath650"><path
         d="m 399.76,105.028 c -88.949,-42.039 -192.238,-42.039 -281.187,0 8.217,17.395 16.433,34.789 24.65,52.183 73.354,-34.669 158.533,-34.669 231.887,0 8.217,-17.394 16.433,-34.788 24.65,-52.183"
         id="path648"
         inkscape:connector-curvature="0" /></clipPath><linearGradient
       x1="0"
       y1="0"
       x2="1"
       y2="0"
       gradientUnits="userSpaceOnUse"
       gradientTransform="matrix(103.67001,160.86745,160.86745,-103.67001,202.35986,23.84668)"
       spreadMethod="pad"
       id="linearGradient662"><stop
         style="stop-opacity:1;stop-color:#000000"
         offset="0"
         id="stop656" /><stop
         style="stop-opacity:1;stop-color:#c1272d"
         offset="0.25408441"
         id="stop658" /><stop
         style="stop-opacity:1;stop-color:#c1272d"
         offset="1"
         id="stop660" /></linearGradient></defs><sodipodi:namedview
     pagecolor="#ffffff"
     bordercolor="#666666"
     borderopacity="1"
     objecttolerance="10"
     gridtolerance="10"
     guidetolerance="10"
     inkscape:pageopacity="0"
     inkscape:pageshadow="2"
     inkscape:window-width="1366"
     inkscape:window-height="715"
     id="namedview4"
     showgrid="false"
     inkscape:zoom="0.70799998"
     inkscape:cx="188.02191"
     inkscape:cy="381.46187"
     inkscape:window-x="0"
     inkscape:window-y="0"
     inkscape:window-maximized="1"
     inkscape:current-layer="g14" /><g
     id="g10"
     inkscape:groupmode="layer"
     inkscape:label="winner-medal-vectorportal"
     transform="matrix(1.3333333,0,0,-1.3333333,0,666.66667)"><g
       id="g12"><g
         id="g14"
         clip-path="url(#clipPath18)"><g
           id="g340"><g
             id="g342"
             clip-path="url(#clipPath346)"><g
               id="g348"><g
                 id="g350"><path
                   d="m 220.686,421 h 61.608 l -50,79 h -61.608 z"
                   style="fill:url(#linearGradient358);stroke:none"
                   id="path360"
                   inkscape:connector-curvature="0" /></g></g></g></g><path
           d="m 294.823,427.609 c 0,7.016 -5.708,12.724 -12.723,12.724 h -67.219 c -7.016,0 -12.724,-5.708 -12.724,-12.724 V 423 h 92.666 z"
           style="fill:#ffd963;fill-opacity:1;fill-rule:nonzero;stroke:none"
           id="path362"
           inkscape:connector-curvature="0" /><g
           id="g364"><g
             id="g366"
             clip-path="url(#clipPath370)"><g
               id="g372"><g
                 id="g374"><path
                   d="m 202.157,423 v -23.943 c 0,-7.015 5.708,-12.724 12.724,-12.724 H 282.1 c 7.015,0 12.723,5.709 12.723,12.724 V 423 Z"
                   style="fill:url(#linearGradient380);stroke:none"
                   id="path382"
                   inkscape:connector-curvature="0" /></g></g></g></g><g
           id="g384"><g
             id="g386"
             clip-path="url(#clipPath390)"><g
               id="g392"><g
                 id="g394"><path
                   d="m 282.1,390.333 h -67.22 c -4.817,0 -8.723,3.906 -8.723,8.724 v 28.552 c 0,4.819 3.906,8.724 8.723,8.724 h 67.22 c 4.818,0 8.723,-3.905 8.723,-8.724 v -28.552 c 0,-4.818 -3.905,-8.724 -8.723,-8.724"
                   style="fill:url(#linearGradient400);stroke:none"
                   id="path402"
                   inkscape:connector-curvature="0" /></g></g></g></g><g
           id="g404"><g
             id="g406"
             clip-path="url(#clipPath410)"><g
               id="g412"><g
                 id="g414"><path
                   d="m 365.667,289.5 c 0,-64.709 -52.458,-117.167 -117.167,-117.167 -64.709,0 -117.167,52.458 -117.167,117.167 0,64.709 52.458,117.167 117.167,117.167 64.709,0 117.167,-52.458 117.167,-117.167"
                   style="fill:url(#linearGradient420);stroke:none"
                   id="path422"
                   inkscape:connector-curvature="0" /></g></g></g></g><path
           d="M 361,289.5 C 361,227.37 310.63,177 248.5,177 c -60.71,0 -110.2,48.1 -112.41,108.27 -0.06,1.4 -0.09,2.81 -0.09,4.23 0,62.13 50.37,112.5 112.5,112.5 61.66,0 111.73,-49.61 112.48,-111.09 0.02,-0.47 0.02,-0.94 0.02,-1.41"
           style="fill:#f3ba0c;fill-opacity:1;fill-rule:nonzero;stroke:none"
           id="path424"
           inkscape:connector-curvature="0" /><g
           id="g426"><g
             id="g428"
             clip-path="url(#clipPath432)"><g
               id="g434"><g
                 id="g436"><path
                   d="m 337.903,289.5 c 0,-49.376 -40.027,-89.403 -89.403,-89.403 -49.376,0 -89.403,40.027 -89.403,89.403 0,49.376 40.027,89.403 89.403,89.403 49.376,0 89.403,-40.027 89.403,-89.403"
                   style="fill:url(#linearGradient442);stroke:none"
                   id="path444"
                   inkscape:connector-curvature="0" /></g></g></g></g><path
           d="m 337.9,289.5 c 0,-1 -0.02,-2 -0.06,-3 -1.57,47.99 -40.96,86.4 -89.34,86.4 -48.38,0 -87.77,-38.41 -89.34,-86.4 -0.04,1 -0.06,2 -0.06,3 0,49.38 40.02,89.4 89.4,89.4 49.38,0 89.4,-40.02 89.4,-89.4"
           style="fill:#b58900;fill-opacity:1;fill-rule:nonzero;stroke:none"
           id="path446"
           inkscape:connector-curvature="0" /><path
           d="m 159.1,289.497 c 0,1 0.02,2 0.06,3 1.57,-47.99 40.96,-86.4 89.34,-86.4 48.38,0 87.77,38.41 89.34,86.4 0.04,-1 0.06,-2 0.06,-3 0,-49.38 -40.02,-89.4 -89.4,-89.4 -49.38,0 -89.4,40.02 -89.4,89.4"
           style="fill:#ffdd00;fill-opacity:1;fill-rule:nonzero;stroke:none"
           id="path448"
           inkscape:connector-curvature="0" /><path
           d="m 360.98,290.91 -9.98,-7.16 -13.16,8.75 c -1.57,47.99 -40.96,86.4 -89.34,86.4 -49.38,0 -89.4,-40.02 -89.4,-89.4 0,-2.91 0.14,-5.78 0.41,-8.62 L 151,275 c 0,0 -7.31,5.39 -14.91,10.27 -0.06,1.4 -0.09,2.81 -0.09,4.23 0,62.13 50.37,112.5 112.5,112.5 61.66,0 111.73,-49.61 112.48,-111.09"
           style="fill:#ffd963;fill-opacity:1;fill-rule:nonzero;stroke:none"
           id="path450"
           inkscape:connector-curvature="0" /><g
           id="g452"><g
             id="g454"
             clip-path="url(#clipPath458)"><g
               id="g460"><g
                 id="g462"><path
                   d="m 234.438,243.3 v 56.046 h -19.2 l 20.458,36.354 h 32.067 v -92.4 z"
                   style="fill:url(#linearGradient468);stroke:none"
                   id="path470"
                   inkscape:connector-curvature="0" /></g></g></g></g><g
           id="g472"><g
             id="g474"
             clip-path="url(#clipPath478)"><g
               id="g480"><g
                 id="g482"><path
                   d="m 237.467,332.67 -17.049,-30.295 h 17.049 v -56.046 h 27.265 v 86.341 z"
                   style="fill:url(#linearGradient488);stroke:none"
                   id="path490"
                   inkscape:connector-curvature="0" /></g></g></g></g><g
           id="g492"><g
             id="g494"
             clip-path="url(#clipPath498)"><g
               id="g500"><g
                 id="g502"><path
                   d="m 240.497,249.359 v 56.046 H 225.6 l 13.639,24.236 h 22.464 v -80.282 z"
                   style="fill:url(#linearGradient508);stroke:none"
                   id="path510"
                   inkscape:connector-curvature="0" /></g></g></g></g><g
           id="g512"><g
             id="g514"
             clip-path="url(#clipPath518)"><g
               id="g520"><g
                 id="g522"><path
                   d="m 217.942,415.667 c -2.573,0 -4.667,2.093 -4.667,4.666 0,2.574 2.094,4.667 4.667,4.667 h 61.096 c 2.573,0 4.666,-2.093 4.666,-4.667 0,-2.573 -2.093,-4.666 -4.666,-4.666 z"
                   style="fill:url(#linearGradient528);stroke:none"
                   id="path530"
                   inkscape:connector-curvature="0" /></g></g></g></g><path
           d="m 279.038,417.667 h -61.096 c -1.473,0 -2.667,1.193 -2.667,2.666 0,1.473 1.194,2.667 2.667,2.667 h 61.096 c 1.473,0 2.666,-1.194 2.666,-2.667 0,-1.473 -1.193,-2.666 -2.666,-2.666"
           style="fill:#5e3d1d;fill-opacity:1;fill-rule:nonzero;stroke:none"
           id="path532"
           inkscape:connector-curvature="0" /><g
           id="g534"><g
             id="g536"
             clip-path="url(#clipPath540)"><g
               id="g542"><g
                 id="g544"><path
                   d="m 279.294,421 h -61.608 l 50,79 h 61.608 z"
                   style="fill:url(#linearGradient552);stroke:none"
                   id="path554"
                   inkscape:connector-curvature="0" /></g></g></g></g><path
           d="m 19.167,529.063 c -1.952,-2.043 -4.289,-3.112 -7.011,-3.202 v 3.931 c 1.407,0.069 2.611,0.752 3.612,2.049 0.496,0.637 0.875,1.334 1.139,2.094 l 4.188,-2.17 c -0.484,-0.973 -1.128,-1.873 -1.928,-2.702 m -3.399,12.597 c -1.001,1.286 -2.205,1.964 -3.612,2.034 v 3.993 c 2.722,-0.091 5.059,-1.154 7.011,-3.188 0.992,-1.042 1.741,-2.191 2.247,-3.445 l -4.31,-2.126 c -0.253,1.013 -0.698,1.923 -1.336,2.732 m -4.402,2.004 c -1.265,-0.151 -2.363,-0.82 -3.293,-2.004 -1.063,-1.355 -1.594,-2.995 -1.594,-4.917 0,-1.912 0.531,-3.546 1.594,-4.902 0.93,-1.196 2.028,-1.868 3.293,-2.019 v -3.947 c -2.681,0.101 -4.983,1.165 -6.907,3.188 -2.032,2.125 -3.049,4.695 -3.049,7.71 0,3.016 1.017,5.591 3.049,7.726 1.924,2.013 4.226,3.072 6.907,3.172 z"
           style="fill:#000000;fill-opacity:1;fill-rule:nonzero;stroke:none"
           id="path678"
           inkscape:connector-curvature="0" /><path
           d="m 37.652,535.65 c 0.384,-0.395 0.754,-0.967 1.108,-1.715 0.152,-0.162 0.282,-0.81 0.395,-1.942 l 0.152,-0.774 0.455,-2.4 c 0.101,-0.252 0.233,-0.738 0.394,-1.456 0.172,-0.264 0.48,-0.744 0.926,-1.443 l -5.176,-0.029 c -0.172,0 -0.48,0.617 -0.925,1.851 -0.091,0.152 -0.35,1.593 -0.775,4.326 -0.182,0.648 -0.598,1.163 -1.245,1.549 -0.607,0.212 -2.094,0.318 -4.461,0.318 v 3.946 h 3.961 c 1.548,0.546 2.321,1.568 2.321,3.067 v 0.379 c -0.344,1.628 -1.275,2.474 -2.792,2.535 H 28.5 v 3.869 h 3.49 c 2.924,0 5.044,-0.793 6.36,-2.382 0.931,-1.356 1.397,-2.778 1.397,-4.265 v -0.29 c 0,-1.699 -0.492,-3.191 -1.473,-4.477 -0.182,-0.242 -0.39,-0.464 -0.622,-0.667 m -9.942,-9.789 h -4.949 v 21.811 h 4.949 z"
           style="fill:#000000;fill-opacity:1;fill-rule:nonzero;stroke:none"
           id="path680"
           inkscape:connector-curvature="0" /><path
           d="M 58.397,525.891 H 48.198 v 4.006 h 10.199 z m -0.848,9.485 h -9.366 v 4.007 h 9.366 z m 0.803,8.242 H 48.153 v 4.008 h 10.199 z m -11.05,-17.757 h -4.948 v 21.811 h 4.948 z"
           style="fill:#000000;fill-opacity:1;fill-rule:nonzero;stroke:none"
           id="path682"
           inkscape:connector-curvature="0" /><path
           d="m 71.873,547.626 7.696,-21.765 h -5.617 l -1.457,4.628 H 66.47 l 1.17,4.023 h 3.702 v 0.075 l -2.247,8.015 H 69.02 l -4.706,-16.741 h -4.4 v 3.157 l 6.328,18.608 z"
           style="fill:#000000;fill-opacity:1;fill-rule:nonzero;stroke:none"
           id="path684"
           inkscape:connector-curvature="0" /><path
           d="m 91.284,525.905 h -4.95 v 16.863 h 4.95 z m 5.51,17.668 h -16.21 v 4.007 h 16.21 z"
           style="fill:#000000;fill-opacity:1;fill-rule:nonzero;stroke:none"
           id="path686"
           inkscape:connector-curvature="0" /><path
           d="m 114.504,525.891 h -10.2 v 4.006 h 10.2 z m -0.851,9.485 h -9.365 v 4.007 h 9.365 z m 0.805,8.242 h -10.2 v 4.008 h 10.2 z m -11.049,-17.757 h -4.948 v 21.811 h 4.948 z"
           style="fill:#000000;fill-opacity:1;fill-rule:nonzero;stroke:none"
           id="path688"
           inkscape:connector-curvature="0" /><path
           d="m 128.041,541.068 c -0.346,1.701 -1.277,2.565 -2.795,2.596 l -3.49,0.045 v 4.022 h 3.49 c 2.924,0 5.045,-0.825 6.36,-2.473 0.931,-1.416 1.397,-2.895 1.397,-4.432 v -8.044 c 0,-1.54 -0.466,-3.016 -1.397,-4.432 -1.315,-1.65 -3.436,-2.475 -6.36,-2.475 h -3.49 v 4.022 l 3.49,0.047 c 1.518,0.029 2.449,0.894 2.795,2.595 z m -7.074,-15.207 h -4.95 v 21.811 h 4.95 z"
           style="fill:#000000;fill-opacity:1;fill-rule:nonzero;stroke:none"
           id="path690"
           inkscape:connector-curvature="0" /><path
           d="m 148.252,547.671 h 0.061 c 3.501,0 5.712,-1.245 6.633,-3.734 0.213,-0.496 0.319,-1.068 0.319,-1.715 v -0.379 c 0.009,-0.557 -0.122,-1.027 -0.395,-1.412 -0.324,-0.952 -0.86,-1.725 -1.608,-2.323 l -0.699,-0.394 -0.364,-0.121 c 0.395,-0.213 0.717,-0.379 0.971,-0.501 1.538,-0.922 2.414,-2.292 2.626,-4.113 0.051,-0.203 0.076,-0.44 0.076,-0.714 -0.08,-1.295 -0.206,-2.044 -0.379,-2.246 -0.102,-0.547 -0.461,-1.195 -1.077,-1.943 -0.729,-1.033 -2.045,-1.76 -3.948,-2.185 l -1.304,-0.076 h -0.076 c -0.101,0 -0.38,0.005 -0.836,0.015 l -4.552,-0.015 v 3.977 h 5.084 c 1.305,0.424 1.973,1.223 2.005,2.398 v 0.637 c 0.08,0.787 -0.28,1.436 -1.078,1.943 -0.163,0.252 -0.648,0.415 -1.459,0.485 l -4.536,0.03 0.013,4.084 h 4.523 c 0.183,0.041 0.436,0.061 0.76,0.061 0.921,0.395 1.38,1.118 1.38,2.171 l -0.076,0.545 -0.149,0.379 h -0.078 c -0.405,0.588 -1.017,0.921 -1.837,1.003 l -4.582,-0.031 0.03,4.19 z"
           style="fill:#000000;fill-opacity:1;fill-rule:nonzero;stroke:none"
           id="path692"
           inkscape:connector-curvature="0" /><path
           d="m 163.475,536.424 6.555,11.217 h 5.45 l -7.042,-12.052 v -9.684 h -4.948 z m -6.162,11.217 h 5.449 l 3.216,-5.509 -2.746,-4.615 z"
           style="fill:#000000;fill-opacity:1;fill-rule:nonzero;stroke:none"
           id="path694"
           inkscape:connector-curvature="0" /><path
           d="m 196.605,534.209 4.872,13.372 h 4.705 l -7.924,-21.736 h -1.653 z m -0.927,-8.348 h -1.592 l -7.939,21.765 h 4.705 l 4.826,-13.235 z"
           style="fill:#000000;fill-opacity:1;fill-rule:nonzero;stroke:none"
           id="path696"
           inkscape:connector-curvature="0" /><path
           d="m 223.208,525.891 h -10.2 v 4.006 h 10.2 z m -0.851,9.485 h -9.364 v 4.007 h 9.364 z m 0.805,8.242 h -10.198 v 4.008 h 10.198 z m -11.05,-17.757 h -4.946 v 21.811 h 4.946 z"
           style="fill:#000000;fill-opacity:1;fill-rule:nonzero;stroke:none"
           id="path698"
           inkscape:connector-curvature="0" /><path
           d="m 242.483,529.063 c -1.954,-2.043 -4.29,-3.112 -7.012,-3.202 v 3.931 c 1.405,0.069 2.61,0.752 3.611,2.049 0.496,0.637 0.875,1.334 1.139,2.094 l 4.189,-2.17 c -0.486,-0.973 -1.128,-1.873 -1.927,-2.702 m -3.401,12.597 c -1.001,1.286 -2.206,1.964 -3.611,2.034 v 3.993 c 2.722,-0.091 5.058,-1.154 7.012,-3.188 0.992,-1.042 1.738,-2.191 2.246,-3.445 l -4.31,-2.126 c -0.254,1.013 -0.699,1.923 -1.337,2.732 m -4.4,2.004 c -1.265,-0.151 -2.363,-0.82 -3.295,-2.004 -1.062,-1.355 -1.594,-2.995 -1.594,-4.917 0,-1.912 0.532,-3.546 1.594,-4.902 0.932,-1.196 2.03,-1.868 3.295,-2.019 v -3.947 c -2.682,0.101 -4.985,1.165 -6.908,3.188 -2.034,2.125 -3.05,4.695 -3.05,7.71 0,3.016 1.016,5.591 3.05,7.726 1.923,2.013 4.226,3.072 6.908,3.172 z"
           style="fill:#000000;fill-opacity:1;fill-rule:nonzero;stroke:none"
           id="path700"
           inkscape:connector-curvature="0" /><path
           d="m 256.733,525.905 h -4.95 v 16.863 h 4.95 z m 5.508,17.668 h -16.21 v 4.007 h 16.21 z"
           style="fill:#000000;fill-opacity:1;fill-rule:nonzero;stroke:none"
           id="path702"
           inkscape:connector-curvature="0" /><path
           d="m 274.655,529.792 c 1.407,0.069 2.611,0.752 3.613,2.049 1.062,1.356 1.593,2.99 1.593,4.902 0,1.922 -0.531,3.562 -1.593,4.917 -1.002,1.286 -2.206,1.964 -3.613,2.034 v 3.993 c 2.721,-0.091 5.058,-1.154 7.01,-3.188 2.034,-2.135 3.052,-4.71 3.052,-7.726 0,-3.015 -1.018,-5.585 -3.052,-7.71 -1.952,-2.043 -4.289,-3.112 -7.01,-3.202 z m -0.791,13.872 c -1.264,-0.151 -2.363,-0.82 -3.293,-2.004 -1.063,-1.355 -1.593,-2.995 -1.593,-4.917 0,-1.912 0.53,-3.546 1.593,-4.902 0.93,-1.196 2.029,-1.868 3.293,-2.019 v -3.947 c -2.678,0.101 -4.982,1.165 -6.907,3.188 -2.031,2.125 -3.048,4.695 -3.048,7.71 0,3.016 1.017,5.591 3.048,7.726 1.925,2.013 4.229,3.072 6.907,3.172 z"
           style="fill:#000000;fill-opacity:1;fill-rule:nonzero;stroke:none"
           id="path704"
           inkscape:connector-curvature="0" /><path
           d="m 301.074,535.65 c 0.387,-0.395 0.755,-0.967 1.11,-1.715 0.151,-0.162 0.282,-0.81 0.393,-1.942 l 0.155,-0.774 0.453,-2.4 c 0.1,-0.252 0.232,-0.738 0.393,-1.456 0.172,-0.264 0.483,-0.744 0.928,-1.443 l -5.174,-0.029 c -0.174,0 -0.482,0.617 -0.928,1.851 -0.09,0.152 -0.347,1.593 -0.774,4.326 -0.181,0.648 -0.597,1.163 -1.243,1.549 -0.607,0.212 -2.095,0.318 -4.464,0.318 v 3.946 h 3.961 c 1.548,0.546 2.322,1.568 2.322,3.067 v 0.379 c -0.343,1.628 -1.274,2.474 -2.79,2.535 h -3.493 v 3.869 h 3.493 c 2.922,0 5.042,-0.793 6.359,-2.382 0.928,-1.356 1.398,-2.778 1.398,-4.265 v -0.29 c 0,-1.699 -0.493,-3.191 -1.476,-4.477 -0.182,-0.242 -0.39,-0.464 -0.623,-0.667 m -9.941,-9.789 h -4.947 v 21.811 h 4.947 z"
           style="fill:#000000;fill-opacity:1;fill-rule:nonzero;stroke:none"
           id="path706"
           inkscape:connector-curvature="0" /><path
           d="m 315.005,547.731 c 2.926,0 5.047,-0.825 6.36,-2.473 0.933,-1.416 1.399,-2.895 1.399,-4.432 v -0.303 c 0,-1.772 -0.493,-3.324 -1.475,-4.661 -1.315,-1.78 -3.926,-2.606 -7.829,-2.473 h -1.944 v 4.098 h 3.963 c 1.546,0.566 2.321,1.628 2.321,3.187 v 0.394 c -0.345,1.701 -1.275,2.581 -2.795,2.641 h -3.489 v 4.022 z m -4.277,-21.87 h -4.951 v 21.811 h 4.951 z"
           style="fill:#000000;fill-opacity:1;fill-rule:nonzero;stroke:none"
           id="path708"
           inkscape:connector-curvature="0" /><path
           d="m 335.1,529.792 c 1.406,0.069 2.611,0.752 3.611,2.049 1.062,1.356 1.598,2.99 1.598,4.902 0,1.922 -0.536,3.562 -1.598,4.917 -1,1.286 -2.205,1.964 -3.611,2.034 v 3.993 c 2.721,-0.091 5.058,-1.154 7.014,-3.188 2.032,-2.135 3.05,-4.71 3.05,-7.726 0,-3.015 -1.018,-5.585 -3.05,-7.71 -1.956,-2.043 -4.293,-3.112 -7.014,-3.202 z m -0.788,13.872 c -1.266,-0.151 -2.364,-0.82 -3.296,-2.004 -1.061,-1.355 -1.593,-2.995 -1.593,-4.917 0,-1.912 0.532,-3.546 1.593,-4.902 0.932,-1.196 2.03,-1.868 3.296,-2.019 v -3.947 c -2.683,0.101 -4.985,1.165 -6.907,3.188 -2.034,2.125 -3.051,4.695 -3.051,7.71 0,3.016 1.017,5.591 3.051,7.726 1.922,2.013 4.224,3.072 6.907,3.172 z"
           style="fill:#000000;fill-opacity:1;fill-rule:nonzero;stroke:none"
           id="path710"
           inkscape:connector-curvature="0" /><path
           d="m 361.522,535.65 c 0.385,-0.395 0.755,-0.967 1.106,-1.715 0.155,-0.162 0.285,-0.81 0.398,-1.942 l 0.152,-0.774 0.453,-2.4 c 0.101,-0.252 0.232,-0.738 0.393,-1.456 0.172,-0.264 0.483,-0.744 0.928,-1.443 l -5.177,-0.029 c -0.171,0 -0.48,0.617 -0.923,1.851 -0.093,0.152 -0.351,1.593 -0.774,4.326 -0.185,0.648 -0.6,1.163 -1.247,1.549 -0.606,0.212 -2.095,0.318 -4.462,0.318 v 3.946 h 3.963 c 1.547,0.546 2.321,1.568 2.321,3.067 v 0.379 c -0.343,1.628 -1.274,2.474 -2.794,2.535 h -3.49 v 3.869 h 3.49 c 2.924,0 5.046,-0.793 6.361,-2.382 0.931,-1.356 1.397,-2.778 1.397,-4.265 v -0.29 c 0,-1.699 -0.492,-3.191 -1.473,-4.477 -0.184,-0.242 -0.389,-0.464 -0.622,-0.667 m -9.942,-9.789 h -4.948 v 21.811 h 4.948 z"
           style="fill:#000000;fill-opacity:1;fill-rule:nonzero;stroke:none"
           id="path712"
           inkscape:connector-curvature="0" /><path
           d="m 376.881,525.905 h -4.949 v 16.863 h 4.949 z m 5.508,17.668 h -16.207 v 4.007 h 16.207 z"
           style="fill:#000000;fill-opacity:1;fill-rule:nonzero;stroke:none"
           id="path714"
           inkscape:connector-curvature="0" /><path
           d="m 396.017,547.626 7.695,-21.765 h -5.615 l -1.458,4.628 h -6.026 l 1.167,4.023 h 3.704 v 0.075 l -2.246,8.015 h -0.076 l -4.702,-16.741 h -4.404 v 3.157 l 6.329,18.608 z"
           style="fill:#000000;fill-opacity:1;fill-rule:nonzero;stroke:none"
           id="path716"
           inkscape:connector-curvature="0" /><path
           d="M 420.951,525.875 H 410.75 v 4.007 h 10.201 z m -11.233,-0.014 h -4.945 v 21.811 h 4.945 z"
           style="fill:#000000;fill-opacity:1;fill-rule:nonzero;stroke:none"
           id="path718"
           inkscape:connector-curvature="0" /><path
           d="m 427.549,525.861 h -4.945 v 4.007 h 4.945 z"
           style="fill:#000000;fill-opacity:1;fill-rule:nonzero;stroke:none"
           id="path720"
           inkscape:connector-curvature="0" /><path
           d="m 446.842,529.063 c -1.953,-2.043 -4.29,-3.112 -7.011,-3.202 v 3.931 c 1.406,0.069 2.61,0.752 3.611,2.049 0.496,0.637 0.877,1.334 1.141,2.094 l 4.184,-2.17 c -0.485,-0.973 -1.126,-1.873 -1.925,-2.702 m -3.4,12.597 c -1.001,1.286 -2.205,1.964 -3.611,2.034 v 3.993 c 2.721,-0.091 5.058,-1.154 7.011,-3.188 0.992,-1.042 1.742,-2.191 2.247,-3.445 l -4.311,-2.126 c -0.254,1.013 -0.698,1.923 -1.336,2.732 m -4.401,2.004 c -1.267,-0.151 -2.362,-0.82 -3.294,-2.004 -1.061,-1.355 -1.594,-2.995 -1.594,-4.917 0,-1.912 0.533,-3.546 1.594,-4.902 0.932,-1.196 2.027,-1.868 3.294,-2.019 v -3.947 c -2.684,0.101 -4.984,1.165 -6.905,3.188 -2.034,2.125 -3.053,4.695 -3.053,7.71 0,3.016 1.019,5.591 3.053,7.726 1.921,2.013 4.221,3.072 6.905,3.172 z"
           style="fill:#000000;fill-opacity:1;fill-rule:nonzero;stroke:none"
           id="path722"
           inkscape:connector-curvature="0" /><path
           d="m 461.183,529.792 c 1.405,0.069 2.608,0.752 3.612,2.049 1.061,1.356 1.595,2.99 1.595,4.902 0,1.922 -0.534,3.562 -1.595,4.917 -1.004,1.286 -2.207,1.964 -3.612,2.034 v 3.993 c 2.719,-0.091 5.058,-1.154 7.011,-3.188 2.031,-2.135 3.05,-4.71 3.05,-7.726 0,-3.015 -1.019,-5.585 -3.05,-7.71 -1.953,-2.043 -4.292,-3.112 -7.011,-3.202 z m -0.788,13.872 c -1.266,-0.151 -2.367,-0.82 -3.296,-2.004 -1.064,-1.355 -1.593,-2.995 -1.593,-4.917 0,-1.912 0.529,-3.546 1.593,-4.902 0.929,-1.196 2.03,-1.868 3.296,-2.019 v -3.947 c -2.684,0.101 -4.986,1.165 -6.911,3.188 -2.032,2.125 -3.046,4.695 -3.046,7.71 0,3.016 1.014,5.591 3.046,7.726 1.925,2.013 4.227,3.072 6.911,3.172 z"
           style="fill:#000000;fill-opacity:1;fill-rule:nonzero;stroke:none"
           id="path724"
           inkscape:connector-curvature="0" /><path
           d="m 492.961,538.063 4.947,8.256 v -20.458 h -4.947 z m -6.982,-2.778 7.347,12.341 h 4.705 l -12.052,-20.248 z m -1.153,-7.922 -12.053,20.248 h 4.706 l 7.347,-12.34 z m -7.164,-1.502 h -4.946 v 20.458 l 4.946,-8.256 z"
           style="fill:#000000;fill-opacity:1;fill-rule:nonzero;stroke:none"
           id="path726"
           inkscape:connector-curvature="0" /><path
           d="m 9.436,510.197 c 0.864,0.045 1.604,0.464 2.221,1.261 0.653,0.832 0.979,1.838 0.979,3.013 0,1.182 -0.326,2.19 -0.979,3.022 -0.617,0.79 -1.357,1.208 -2.221,1.25 v 2.454 c 1.672,-0.055 3.11,-0.709 4.311,-1.958 1.249,-1.314 1.876,-2.896 1.876,-4.75 0,-1.854 -0.627,-3.432 -1.876,-4.739 -1.201,-1.257 -2.639,-1.913 -4.311,-1.968 z m -0.484,8.529 c -0.779,-0.095 -1.453,-0.505 -2.026,-1.233 -0.652,-0.832 -0.98,-1.84 -0.98,-3.022 0,-1.175 0.328,-2.181 0.98,-3.013 0.573,-0.735 1.247,-1.149 2.026,-1.242 v -2.425 c -1.649,0.062 -3.064,0.716 -4.246,1.959 -1.25,1.307 -1.875,2.885 -1.875,4.739 0,1.854 0.625,3.436 1.875,4.75 1.182,1.238 2.597,1.888 4.246,1.95 z"
           style="fill:#000000;fill-opacity:1;fill-rule:nonzero;stroke:none"
           id="path778"
           inkscape:connector-curvature="0" /><path
           d="m 31.272,513.799 c 0.236,-0.243 0.463,-0.594 0.682,-1.053 0.092,-0.101 0.173,-0.498 0.241,-1.195 l 0.094,-0.476 0.281,-1.473 c 0.061,-0.157 0.141,-0.456 0.242,-0.897 0.106,-0.162 0.295,-0.457 0.569,-0.886 l -3.182,-0.018 c -0.105,0 -0.296,0.378 -0.569,1.137 -0.056,0.094 -0.214,0.98 -0.476,2.659 -0.112,0.399 -0.367,0.716 -0.764,0.952 -0.373,0.13 -1.287,0.197 -2.743,0.197 v 2.425 h 2.435 c 0.951,0.336 1.427,0.964 1.427,1.885 v 0.233 c -0.211,1.002 -0.784,1.521 -1.717,1.558 h -2.145 v 2.379 h 2.145 c 1.798,0 3.101,-0.488 3.909,-1.464 0.572,-0.835 0.859,-1.709 0.859,-2.623 v -0.176 c 0,-1.046 -0.301,-1.963 -0.905,-2.753 -0.112,-0.149 -0.24,-0.287 -0.383,-0.411 m -6.11,-6.017 H 22.12 v 13.408 h 3.042 z"
           style="fill:#000000;fill-opacity:1;fill-rule:nonzero;stroke:none"
           id="path780"
           inkscape:connector-curvature="0" /><path
           d="m 42.799,507.782 h -3.042 v 13.408 h 3.042 z"
           style="fill:#000000;fill-opacity:1;fill-rule:nonzero;stroke:none"
           id="path782"
           inkscape:connector-curvature="0" /><path
           d="m 58.129,517.493 c -0.615,0.79 -1.354,1.208 -2.219,1.25 v 2.454 c 1.673,-0.055 3.109,-0.709 4.31,-1.958 0.611,-0.642 1.07,-1.347 1.381,-2.118 l -2.649,-1.306 c -0.155,0.622 -0.429,1.182 -0.823,1.678 m 3.966,-3.161 c -0.037,-1.786 -0.662,-3.313 -1.875,-4.582 -1.201,-1.257 -2.637,-1.913 -4.31,-1.968 v 2.415 c 0.865,0.045 1.604,0.464 2.219,1.261 0.107,0.13 0.204,0.267 0.291,0.409 h -2.528 v 2.465 z m -6.67,4.394 c -0.778,-0.095 -1.452,-0.505 -2.024,-1.233 -0.654,-0.832 -0.981,-1.84 -0.981,-3.022 0,-1.175 0.327,-2.181 0.981,-3.013 0.572,-0.735 1.246,-1.149 2.024,-1.242 v -2.425 c -1.648,0.062 -3.063,0.716 -4.246,1.959 -1.25,1.307 -1.874,2.885 -1.874,4.739 0,1.854 0.624,3.436 1.874,4.75 1.183,1.238 2.598,1.888 4.246,1.95 z"
           style="fill:#000000;fill-opacity:1;fill-rule:nonzero;stroke:none"
           id="path784"
           inkscape:connector-curvature="0" /><path
           d="m 71.664,507.782 h -3.042 v 13.408 h 3.042 z"
           style="fill:#000000;fill-opacity:1;fill-rule:nonzero;stroke:none"
           id="path786"
           inkscape:connector-curvature="0" /><path
           d="m 86.034,521.16 h 3.04 v -12.576 l -3.04,5.075 z m 0.121,-13.369 -7.95,13.361 h 2.892 l 7.958,-13.37 z m -4.945,-0.009 h -3.042 v 12.576 l 3.042,-5.075 z"
           style="fill:#000000;fill-opacity:1;fill-rule:nonzero;stroke:none"
           id="path788"
           inkscape:connector-curvature="0" /><path
           d="m 103.018,521.16 4.731,-13.378 h -3.454 l -0.895,2.846 h -3.703 l 0.718,2.471 h 2.276 v 0.047 l -1.38,4.927 h -0.046 l -2.893,-10.291 h -2.706 v 1.94 l 3.89,11.438 z"
           style="fill:#000000;fill-opacity:1;fill-rule:nonzero;stroke:none"
           id="path790"
           inkscape:connector-curvature="0" /><path
           d="m 123.94,507.791 h -6.27 v 2.463 h 6.27 z m -6.904,-0.009 h -3.041 v 13.408 h 3.041 z"
           style="fill:#000000;fill-opacity:1;fill-rule:nonzero;stroke:none"
           id="path792"
           inkscape:connector-curvature="0" /><path
           d="m 151.068,513.631 h -5.756 v 2.462 h 5.756 z m 0.495,5.066 h -6.27 v 2.463 h 6.27 z m -6.792,-10.915 h -3.041 v 13.408 h 3.041 z"
           style="fill:#000000;fill-opacity:1;fill-rule:nonzero;stroke:none"
           id="path794"
           inkscape:connector-curvature="0" /><path
           d="m 167.212,513.799 c 0.238,-0.243 0.464,-0.594 0.682,-1.053 0.094,-0.101 0.173,-0.498 0.242,-1.195 l 0.094,-0.476 0.28,-1.473 c 0.062,-0.157 0.143,-0.456 0.241,-0.897 0.106,-0.162 0.297,-0.457 0.57,-0.886 l -3.18,-0.018 c -0.106,0 -0.297,0.378 -0.571,1.137 -0.056,0.094 -0.214,0.98 -0.475,2.659 -0.112,0.399 -0.366,0.716 -0.764,0.952 -0.375,0.13 -1.288,0.197 -2.744,0.197 v 2.425 h 2.435 c 0.952,0.336 1.428,0.964 1.428,1.885 v 0.233 c -0.213,1.002 -0.784,1.521 -1.718,1.558 h -2.145 v 2.379 h 2.145 c 1.799,0 3.102,-0.488 3.91,-1.464 0.571,-0.835 0.859,-1.709 0.859,-2.623 v -0.176 c 0,-1.046 -0.302,-1.963 -0.905,-2.753 -0.113,-0.149 -0.24,-0.287 -0.384,-0.411 m -6.11,-6.017 h -3.041 v 13.408 h 3.041 z"
           style="fill:#000000;fill-opacity:1;fill-rule:nonzero;stroke:none"
           id="path796"
           inkscape:connector-curvature="0" /><path
           d="m 185.56,507.801 h -6.268 v 2.462 h 6.268 z m -0.523,5.83 h -5.756 v 2.462 h 5.756 z m 0.495,5.066 h -6.271 v 2.463 h 6.271 z m -6.792,-10.915 h -3.042 v 13.408 h 3.042 z"
           style="fill:#000000;fill-opacity:1;fill-rule:nonzero;stroke:none"
           id="path798"
           inkscape:connector-curvature="0" /><path
           d="m 201.946,507.801 h -6.268 v 2.462 h 6.268 z m -0.521,5.83 h -5.757 v 2.462 h 5.757 z m 0.493,5.066 h -6.268 v 2.463 h 6.268 z m -6.792,-10.915 h -3.041 v 13.408 h 3.041 z"
           style="fill:#000000;fill-opacity:1;fill-rule:nonzero;stroke:none"
           id="path800"
           inkscape:connector-curvature="0" /><path
           d="m 226.118,512.913 2.995,8.219 h 2.891 l -4.87,-13.359 h -1.016 z m -0.568,-5.131 h -0.98 l -4.88,13.378 h 2.892 l 2.968,-8.136 z"
           style="fill:#000000;fill-opacity:1;fill-rule:nonzero;stroke:none"
           id="path802"
           inkscape:connector-curvature="0" /><path
           d="m 248.065,507.801 h -6.269 v 2.462 h 6.269 z m -0.521,5.83 h -5.757 v 2.462 h 5.757 z m 0.495,5.066 h -6.272 v 2.463 h 6.272 z m -6.792,-10.915 h -3.041 v 13.408 h 3.041 z"
           style="fill:#000000;fill-opacity:1;fill-rule:nonzero;stroke:none"
           id="path804"
           inkscape:connector-curvature="0" /><path
           d="m 265.507,509.75 c -1.2,-1.257 -2.638,-1.913 -4.31,-1.968 v 2.415 c 0.866,0.045 1.607,0.464 2.223,1.261 0.304,0.392 0.536,0.82 0.698,1.288 l 2.574,-1.335 c -0.297,-0.598 -0.692,-1.151 -1.185,-1.661 m -2.087,7.743 c -0.616,0.79 -1.357,1.208 -2.223,1.25 v 2.454 c 1.672,-0.055 3.11,-0.709 4.31,-1.958 0.609,-0.642 1.069,-1.347 1.381,-2.118 l -2.649,-1.306 c -0.156,0.622 -0.429,1.182 -0.819,1.678 m -2.707,1.233 c -0.776,-0.095 -1.453,-0.505 -2.026,-1.233 -0.653,-0.832 -0.978,-1.84 -0.978,-3.022 0,-1.175 0.325,-2.181 0.978,-3.013 0.573,-0.735 1.25,-1.149 2.026,-1.242 v -2.425 c -1.648,0.062 -3.064,0.716 -4.244,1.959 -1.253,1.307 -1.876,2.885 -1.876,4.739 0,1.854 0.623,3.436 1.876,4.75 1.18,1.238 2.596,1.888 4.244,1.95 z"
           style="fill:#000000;fill-opacity:1;fill-rule:nonzero;stroke:none"
           id="path806"
           inkscape:connector-curvature="0" /><path
           d="m 279.862,507.81 h -3.041 v 10.365 h 3.041 z m 3.387,10.86 h -9.966 v 2.462 h 9.966 z"
           style="fill:#000000;fill-opacity:1;fill-rule:nonzero;stroke:none"
           id="path808"
           inkscape:connector-curvature="0" /><path
           d="m 296.472,510.197 c 0.865,0.045 1.606,0.464 2.223,1.261 0.651,0.832 0.979,1.838 0.979,3.013 0,1.182 -0.328,2.19 -0.979,3.022 -0.617,0.79 -1.358,1.208 -2.223,1.25 v 2.454 c 1.674,-0.055 3.109,-0.709 4.309,-1.958 1.252,-1.314 1.877,-2.896 1.877,-4.75 0,-1.854 -0.625,-3.432 -1.877,-4.739 -1.2,-1.257 -2.635,-1.913 -4.309,-1.968 z m -0.486,8.529 c -0.776,-0.095 -1.452,-0.505 -2.024,-1.233 -0.653,-0.832 -0.98,-1.84 -0.98,-3.022 0,-1.175 0.327,-2.181 0.98,-3.013 0.572,-0.735 1.248,-1.149 2.024,-1.242 v -2.425 c -1.647,0.062 -3.062,0.716 -4.243,1.959 -1.252,1.307 -1.877,2.885 -1.877,4.739 0,1.854 0.625,3.436 1.877,4.75 1.181,1.238 2.596,1.888 4.243,1.95 z"
           style="fill:#000000;fill-opacity:1;fill-rule:nonzero;stroke:none"
           id="path810"
           inkscape:connector-curvature="0" /><path
           d="m 318.31,513.799 c 0.236,-0.243 0.462,-0.594 0.68,-1.053 0.092,-0.101 0.173,-0.498 0.243,-1.195 l 0.092,-0.476 0.281,-1.473 c 0.061,-0.157 0.141,-0.456 0.243,-0.897 0.105,-0.162 0.296,-0.457 0.569,-0.886 l -3.184,-0.018 c -0.103,0 -0.296,0.378 -0.567,1.137 -0.055,0.094 -0.215,0.98 -0.477,2.659 -0.112,0.399 -0.366,0.716 -0.765,0.952 -0.372,0.13 -1.286,0.197 -2.741,0.197 v 2.425 h 2.433 c 0.952,0.336 1.428,0.964 1.428,1.885 v 0.233 c -0.213,1.002 -0.781,1.521 -1.717,1.558 h -2.144 v 2.379 h 2.144 c 1.798,0 3.101,-0.488 3.909,-1.464 0.575,-0.835 0.858,-1.709 0.858,-2.623 v -0.176 c 0,-1.046 -0.301,-1.963 -0.902,-2.753 -0.114,-0.149 -0.241,-0.287 -0.383,-0.411 m -6.112,-6.017 h -3.042 v 13.408 h 3.042 z"
           style="fill:#000000;fill-opacity:1;fill-rule:nonzero;stroke:none"
           id="path812"
           inkscape:connector-curvature="0" /><path
           d="m 332.569,521.16 c 1.338,0 2.517,-0.376 3.535,-1.128 0.599,-0.498 1.036,-1.419 1.308,-2.763 v -0.13 l -1.53,-0.186 -1.271,-0.083 c -0.119,0.733 -0.328,1.214 -0.632,1.446 -0.25,0.209 -0.716,0.407 -1.4,0.587 z m -1.335,-7.669 c -2.685,0.486 -4.03,1.732 -4.03,3.742 v 0.178 c 0,2.096 1.356,3.329 4.068,3.702 l 0.841,0.019 0.017,-2.229 c -0.609,-0.049 -1.032,-0.125 -1.268,-0.223 -0.492,-0.189 -0.731,-0.611 -0.719,-1.269 0,-0.617 0.781,-1.068 2.341,-1.354 0.392,-0.069 0.714,-0.133 0.962,-0.196 2.768,-0.461 4.153,-1.779 4.153,-3.956 v -0.187 c 0,-2.232 -1.356,-3.549 -4.07,-3.945 l -0.915,-0.028 v 2.359 c 0.649,0.069 1.091,0.156 1.326,0.261 0.493,0.2 0.733,0.652 0.718,1.353 0,0.66 -0.769,1.169 -2.313,1.532 -0.35,0.104 -0.732,0.195 -1.148,0.269 z m -1.007,-2.678 c 0.572,-0.329 1.117,-0.525 1.634,-0.587 l 0.269,-0.047 -0.017,-2.397 c -1.625,-0.044 -2.868,0.288 -3.733,0.997 -0.965,0.623 -1.481,1.705 -1.55,3.247 l 2.809,0.271 c 0.049,-0.653 0.246,-1.134 0.588,-1.446 z"
           style="fill:#000000;fill-opacity:1;fill-rule:nonzero;stroke:none"
           id="path814"
           inkscape:connector-curvature="0" /><path
           d="m 355.488,521.16 c 1.339,0 2.517,-0.376 3.535,-1.128 0.599,-0.498 1.035,-1.419 1.309,-2.763 v -0.13 l -1.531,-0.186 -1.27,-0.083 c -0.117,0.733 -0.329,1.214 -0.634,1.446 -0.248,0.209 -0.715,0.407 -1.399,0.587 z m -1.335,-7.669 c -2.683,0.486 -4.028,1.732 -4.028,3.742 v 0.178 c 0,2.096 1.355,3.329 4.067,3.702 l 0.839,0.019 0.02,-2.229 c -0.611,-0.049 -1.034,-0.125 -1.269,-0.223 -0.493,-0.189 -0.732,-0.611 -0.719,-1.269 0,-0.617 0.782,-1.068 2.342,-1.354 0.392,-0.069 0.714,-0.133 0.962,-0.196 2.766,-0.461 4.151,-1.779 4.151,-3.956 v -0.187 c 0,-2.232 -1.358,-3.549 -4.07,-3.945 l -0.913,-0.028 v 2.359 c 0.647,0.069 1.088,0.156 1.325,0.261 0.491,0.2 0.731,0.652 0.718,1.353 0,0.66 -0.77,1.169 -2.313,1.532 -0.349,0.104 -0.731,0.195 -1.146,0.269 z m -1.006,-2.678 c 0.573,-0.329 1.117,-0.525 1.632,-0.587 l 0.272,-0.047 -0.02,-2.397 c -1.622,-0.044 -2.866,0.288 -3.733,0.997 -0.961,0.623 -1.479,1.705 -1.548,3.247 l 2.808,0.271 c 0.051,-0.653 0.247,-1.134 0.589,-1.446 z"
           style="fill:#000000;fill-opacity:1;fill-rule:nonzero;stroke:none"
           id="path816"
           inkscape:connector-curvature="0" /><path
           d="m 370.085,507.782 h -3.042 v 13.408 h 3.042 z"
           style="fill:#000000;fill-opacity:1;fill-rule:nonzero;stroke:none"
           id="path818"
           inkscape:connector-curvature="0" /><path
           d="m 384.456,521.16 h 3.039 v -12.576 l -3.039,5.075 z m 0.121,-13.369 -7.95,13.361 h 2.893 l 7.959,-13.37 z m -4.944,-0.009 h -3.043 v 12.576 l 3.043,-5.075 z"
           style="fill:#000000;fill-opacity:1;fill-rule:nonzero;stroke:none"
           id="path820"
           inkscape:connector-curvature="0" /><path
           d="m 405.002,509.75 c -1.199,-1.257 -2.635,-1.913 -4.31,-1.968 v 2.415 c 0.866,0.045 1.607,0.464 2.222,1.261 0.305,0.392 0.538,0.82 0.699,1.288 l 2.577,-1.335 c -0.301,-0.598 -0.694,-1.151 -1.188,-1.661 m -2.088,7.743 c -0.615,0.79 -1.356,1.208 -2.222,1.25 v 2.454 c 1.675,-0.055 3.111,-0.709 4.31,-1.958 0.609,-0.642 1.069,-1.347 1.38,-2.118 l -2.648,-1.306 c -0.156,0.622 -0.43,1.182 -0.82,1.678 m -2.707,1.233 c -0.775,-0.095 -1.451,-0.505 -2.024,-1.233 -0.654,-0.832 -0.978,-1.84 -0.978,-3.022 0,-1.175 0.324,-2.181 0.978,-3.013 0.573,-0.735 1.249,-1.149 2.024,-1.242 v -2.425 c -1.645,0.062 -3.064,0.716 -4.243,1.959 -1.251,1.307 -1.876,2.885 -1.876,4.739 0,1.854 0.625,3.436 1.876,4.75 1.179,1.238 2.598,1.888 4.243,1.95 z"
           style="fill:#000000;fill-opacity:1;fill-rule:nonzero;stroke:none"
           id="path822"
           inkscape:connector-curvature="0" /><path
           d="m 422.67,507.801 h -6.271 v 2.462 h 6.271 z m -0.523,5.83 h -5.757 v 2.462 h 5.757 z m 0.494,5.066 h -6.268 v 2.463 h 6.268 z m -6.792,-10.915 h -3.04 v 13.408 h 3.04 z"
           style="fill:#000000;fill-opacity:1;fill-rule:nonzero;stroke:none"
           id="path824"
           inkscape:connector-curvature="0" /><path
           d="m 450.777,507.791 h -7.042 v 2.463 h 7.042 z m -7.183,10.562 c -0.323,-0.292 -0.511,-0.742 -0.562,-1.345 l -2.658,0.253 c 0.064,1.43 0.553,2.435 1.466,3.013 0.821,0.659 1.999,0.97 3.535,0.934 l 0.021,-2.23 -0.254,-0.047 c -0.492,-0.056 -1.007,-0.24 -1.548,-0.552 z m -3.228,-8.005 v 0.391 c 0,2.178 1.423,3.645 4.264,4.404 0.249,0.063 0.569,0.128 0.961,0.195 1.523,0.442 2.265,1.152 2.229,2.129 0.013,0.658 -0.227,1.082 -0.718,1.268 -0.237,0.1 -0.658,0.174 -1.27,0.224 l 0.021,2.23 0.838,-0.02 c 2.71,-0.371 4.071,-1.606 4.071,-3.702 v -0.178 c 0,-2.01 -1.31,-3.514 -3.921,-4.517 -0.394,-0.054 -0.764,-0.135 -1.112,-0.241 -1.669,-0.487 -2.479,-1.145 -2.424,-1.979 l 0.009,-2.799 h -2.948 z"
           style="fill:#000000;fill-opacity:1;fill-rule:nonzero;stroke:none"
           id="path826"
           inkscape:connector-curvature="0" /><path
           d="m 462.146,521.169 c 1.624,-0.056 2.815,-0.544 3.573,-1.464 l 0.046,0.046 v -0.046 l -0.046,-0.047 c 0.57,-0.87 0.856,-1.778 0.856,-2.725 v -4.823 c 0,-1.089 -0.411,-2.135 -1.238,-3.143 -0.616,-0.685 -1.681,-1.083 -3.191,-1.194 v 2.548 c 0.921,0.316 1.38,0.944 1.38,1.883 v 4.879 c -0.185,0.915 -0.646,1.428 -1.38,1.54 z m -0.671,-2.519 c -0.733,-0.111 -1.196,-0.624 -1.383,-1.539 v -4.88 c 0,-0.938 0.461,-1.566 1.383,-1.883 v -2.547 c -1.511,0.111 -2.578,0.509 -3.193,1.193 -0.825,1.008 -1.239,2.057 -1.239,3.144 v 4.825 c 0,0.945 0.285,1.853 0.857,2.723 l -0.046,0.047 v 0.046 l 0.046,-0.046 c 0.759,0.92 1.95,1.409 3.575,1.464 z"
           style="fill:#000000;fill-opacity:1;fill-rule:nonzero;stroke:none"
           id="path828"
           inkscape:connector-curvature="0" /><path
           d="m 478.252,521.169 c 1.624,-0.056 2.817,-0.544 3.575,-1.464 l 0.045,0.046 v -0.046 l -0.045,-0.047 c 0.571,-0.87 0.857,-1.778 0.857,-2.725 v -4.823 c 0,-1.089 -0.412,-2.135 -1.239,-3.143 -0.616,-0.685 -1.681,-1.083 -3.193,-1.194 v 2.548 c 0.922,0.316 1.382,0.944 1.382,1.883 v 4.879 c -0.187,0.915 -0.648,1.428 -1.382,1.54 z m -0.671,-2.519 c -0.736,-0.111 -1.193,-0.624 -1.381,-1.539 v -4.88 c 0,-0.938 0.462,-1.566 1.381,-1.883 v -2.547 c -1.512,0.111 -2.574,0.509 -3.191,1.193 -0.827,1.008 -1.241,2.057 -1.241,3.144 v 4.825 c 0,0.945 0.286,1.853 0.861,2.723 l -0.049,0.047 v 0.046 l 0.049,-0.046 c 0.758,0.92 1.948,1.409 3.571,1.464 z"
           style="fill:#000000;fill-opacity:1;fill-rule:nonzero;stroke:none"
           id="path830"
           inkscape:connector-curvature="0" /><path
           d="m 492.233,518.296 c -0.137,-1.343 0.572,-2.052 2.126,-2.128 0.521,0.006 1.067,-0.083 1.635,-0.27 2.437,-0.808 3.656,-2.217 3.656,-4.225 v -0.178 c 0,-2.098 -1.355,-3.331 -4.068,-3.704 l -0.84,-0.018 -0.017,2.229 c 0.609,0.051 1.031,0.125 1.269,0.224 0.49,0.187 0.731,0.609 0.718,1.269 0.036,0.977 -0.632,1.686 -2.007,2.127 -0.54,0.069 -1.033,0.134 -1.475,0.195 -2.724,0.193 -4.037,1.683 -3.937,4.47 z m 0.251,-7.716 c 0.542,-0.311 1.055,-0.494 1.54,-0.55 l 0.262,-0.047 -0.02,-2.23 c -1.536,-0.038 -2.715,0.274 -3.535,0.934 -0.914,0.579 -1.401,1.582 -1.464,3.013 l 2.659,0.252 c 0.049,-0.603 0.237,-1.052 0.558,-1.344 z m -3.217,10.589 h 10.402 v -2.462 h -10.402 z"
           style="fill:#000000;fill-opacity:1;fill-rule:nonzero;stroke:none"
           id="path832"
           inkscape:connector-curvature="0" /></g></g></g></svg>